<svg width="830" height="274" viewBox="0 0 830 274" fill="none" xmlns="http://www.w3.org/2000/svg">
<rect width="830" height="274" fill="black"/>
<path d="M138.242 100.149C144.996 97.8874 151.475 97.3183 156.932 98.7496L157.012 98.7708L157.06 98.7821L157.061 98.7823L157.062 98.7826L157.109 98.7969C158.636 99.211 160.04 99.7723 161.318 100.468L161.371 100.495L161.372 100.496L161.373 100.496L161.413 100.52C163.235 101.527 164.799 102.811 166.09 104.336L166.144 104.395L166.145 104.396L166.146 104.397L166.212 104.481C166.372 104.674 166.527 104.87 166.678 105.071L166.685 105.078L166.687 105.08L166.689 105.082L166.721 105.128C167.087 105.616 167.427 106.127 167.741 106.658L167.769 106.695H167.763C167.857 106.854 167.948 107.015 168.037 107.178H168.038L168.046 107.195C168.048 107.198 168.049 107.2 168.05 107.203L168.077 107.249H168.076C168.097 107.289 168.119 107.33 168.141 107.37L168.158 107.402H168.158C168.254 107.585 168.348 107.769 168.438 107.956L168.472 108.023L168.473 108.025L168.473 108.026L168.478 108.038C168.565 108.219 168.649 108.402 168.73 108.587L168.743 108.613L168.745 108.616L168.757 108.648C169.003 109.212 169.224 109.796 169.421 110.396C169.438 110.449 169.455 110.501 169.471 110.554L169.474 110.557L169.477 110.566L169.486 110.601C169.668 111.178 169.827 111.771 169.963 112.379L169.97 112.401L169.971 112.404L169.972 112.406L169.972 112.408L170.02 112.632L170.02 112.633L170.018 112.633V112.633L170.02 112.633L170.025 112.667C170.069 112.873 170.109 113.081 170.147 113.29L170.155 113.323H170.162V113.371C170.277 114.021 170.367 114.686 170.432 115.366L170.433 115.371L170.433 115.373V115.374C170.497 116.05 170.536 116.741 170.549 117.445L170.551 117.459L170.551 117.461V117.463L170.551 117.464L170.554 117.498H170.551L170.551 117.54C170.556 117.85 170.556 118.162 170.551 118.478V118.538L170.551 118.54V118.571H170.549C170.536 119.284 170.497 120.01 170.433 120.748V120.765H170.432C170.339 121.823 170.194 122.906 169.997 124.011L169.973 124.156L169.972 124.157L169.94 124.32C169.49 126.729 168.788 129.243 167.828 131.837L167.79 131.945L167.765 132.018L167.731 131.96C167.725 131.955 167.721 131.948 167.72 131.94L167.031 130.749L166.324 129.546L166.323 129.546L165.591 128.371L165.572 128.341L164.82 127.184L164.815 127.177L164.025 125.998V125.997L163.554 125.326L163.554 125.326L163.213 124.831L163.202 124.817L162.364 123.676L161.869 123.015L161.869 123.015L161.503 122.52L161.494 122.508L161.497 122.494C161.497 122.493 161.497 122.493 161.497 122.493L161.602 121.87V121.848L161.603 121.845L161.685 121.255L161.751 120.765H161.748L161.757 120.723L161.76 120.706L161.768 120.665L161.827 120.077L161.827 120.075L161.862 119.501V119.501L161.897 118.948L161.909 118.394L161.909 118.389V118.359H161.91L161.921 117.865L161.91 117.498H161.909V117.466L161.909 117.464L161.909 117.463H161.909V117.346L161.885 116.839V116.839L161.853 116.448H161.85V116.416L161.85 116.414V116.356L161.803 115.875L161.803 115.875L161.744 115.428L161.674 114.981L161.674 114.98L161.674 114.98L161.613 114.604L161.603 114.546L161.557 114.382L161.556 114.381L161.556 114.379L161.509 114.131V114.131L161.415 113.745L161.414 113.741L161.317 113.417H161.308V113.388L161.308 113.387V113.382L161.308 113.364L161.192 113.004L161.074 112.65L160.98 112.429L160.98 112.427L160.98 112.426L160.945 112.322L160.804 112.005L160.665 111.704L160.663 111.7L160.66 111.693L160.51 111.406V111.406L160.358 111.124L160.194 110.854L160.018 110.596L159.841 110.349L159.477 109.878L159.077 109.455H159.077L158.784 109.186V109.186L158.48 108.916L158.151 108.657L157.846 108.447L157.811 108.423V108.423L157.541 108.249L157.446 108.188L157.224 108.071L157.223 108.07L157.058 107.976V107.976L156.647 107.765L156.214 107.577L155.755 107.4L155.753 107.4L155.391 107.295L155.39 107.295L155.389 107.294L155.262 107.248H155.262L154.743 107.106V107.106L154.203 106.977L153.627 106.86L153.627 106.859V106.86L153.586 106.853L153.027 106.765L152.391 106.695L151.722 106.648V106.648L151.029 106.624H150.302L149.555 106.636H149.555L148.778 106.695L148.778 106.695L148.396 106.728L147.977 106.766L147.165 106.859L147.165 106.86L146.317 106.989L145.457 107.154L145.457 107.154L144.574 107.343L144.574 107.343V107.343L144.57 107.344H144.57L143.673 107.553L143.667 107.555L142.748 107.802L142.748 107.802L141.818 108.073L141.818 108.073L141.784 108.084L140.864 108.379L140.865 108.379L139.91 108.721L139.179 109.004H139.179L138.953 109.09L138.932 109.098L138.932 109.098L137.954 109.499L137.954 109.499L136.966 109.923L136.965 109.923L136.965 109.923L136.964 109.923L135.963 110.383L134.973 110.872L134.962 110.878L134.955 110.882H134.954L133.949 111.396L133.949 111.396L132.935 111.939L131.921 112.505L131.921 112.505L130.908 113.106L130.201 113.542L130.201 113.542L129.883 113.731L129.615 113.902L128.87 114.379L128.868 114.38L128.671 114.519L128.67 114.52L128.67 114.52L127.869 115.05L127.869 115.05L127.849 115.064L127.197 115.522L127.197 115.522L126.855 115.758L126.855 115.758L125.853 116.477H125.853L125.853 116.477L125.851 116.478L124.901 117.191L124.863 117.22L124.863 117.22V117.22L124.392 117.585L123.874 117.986L123.138 118.583H123.14L123.065 118.643L123.061 118.646L123.06 118.646L122.895 118.776L121.93 119.588L121.93 119.589L120.975 120.425L120.975 120.425L120.037 121.282L120.033 121.286L120.032 121.286L120.032 121.286L120.032 121.286L119.101 122.147L118.194 123.043L118.182 123.054L118.182 123.054L117.286 123.951L116.415 124.869L116.415 124.87L115.979 125.341L115.978 125.342L115.551 125.792L115.542 125.802L114.706 126.756L114.706 126.756L113.882 127.71L113.873 127.724H113.871L113.068 128.689L112.927 128.866L112.927 128.866L112.278 129.668L111.984 130.056V130.056L111.568 130.601L111.524 130.658L111.524 130.658L110.782 131.648L110.782 131.648L110.063 132.65L110.063 132.65L109.368 133.652L109.368 133.652L108.697 134.665L108.071 135.644L108.048 135.679L108.048 135.679L108.042 135.689L107.439 136.688L107.436 136.693L107.436 136.693L107.082 137.294L107.082 137.295L106.834 137.707L106.832 137.711L106.399 138.508L106.398 138.51L106.269 138.72L106.269 138.72L106.259 138.739L105.751 139.722L105.748 139.727L105.744 139.731L105.737 139.738L105.233 140.747L105.233 140.747L105.15 140.924L105.15 140.924L104.761 141.749L104.761 141.749L104.316 142.746L104.066 143.329L103.889 143.74L103.889 143.741L103.889 143.742L103.515 144.712L103.513 144.718L103.512 144.719L103.149 145.68L103.149 145.697L103.149 145.733H103.139L102.817 146.652L102.747 146.887L102.747 146.887L102.523 147.595L102.393 148.054L102.393 148.054L102.252 148.526L102.087 149.162L102.016 149.433L101.838 150.202H101.839L101.828 150.246L101.804 150.341L101.628 151.212L101.475 152.071L101.475 152.071L101.474 152.077L101.357 152.908L101.355 152.927L101.298 153.45V153.45L101.294 153.45L101.298 153.45L101.263 153.715L101.263 153.72L101.204 154.504L101.204 154.505V154.507L101.204 154.543H101.202L101.157 155.276L101.157 155.278V155.392L101.157 155.51V155.545H101.156L101.145 156.018L101.157 156.511V156.725L101.192 157.405L101.2 157.479L101.204 157.511L101.204 157.512L101.251 158.065L101.31 158.477L101.31 158.478L101.333 158.685L101.333 158.689H101.333L101.439 159.289H101.439L101.557 159.865L101.682 160.391L101.686 160.407L101.838 160.911H101.838L101.96 161.253H101.961L101.967 161.273L101.968 161.277L101.968 161.278L101.969 161.278L102 161.384L102.003 161.395L102.18 161.842L102.379 162.264L102.579 162.675L102.79 163.028L102.795 163.036V163.059L102.876 163.18L103.025 163.403L103.272 163.744L103.529 164.06L103.799 164.354L104.081 164.648L104.094 164.66L104.372 164.915L104.374 164.918L104.68 165.177L105.008 165.423L105.305 165.617H105.307L105.316 165.624L105.345 165.646L105.361 165.658L105.736 165.881L105.837 165.934L106.136 166.093L106.548 166.293L106.992 166.479L106.994 166.48H106.994L107.346 166.613L107.464 166.657L107.917 166.797L107.957 166.81H107.957L108.487 166.951L109.039 167.068L109.627 167.174L109.871 167.209H109.872L109.875 167.21L110.24 167.269L110.769 167.317L110.885 167.327H110.886L111.21 167.35L111.556 167.374H111.557L112.263 167.398L112.993 167.386L113.758 167.351L114.535 167.304L115.346 167.221L116.171 167.104L117.016 166.963L117.019 166.962L117.034 166.959L117.047 166.969L117.067 166.984L117.094 167.004L117.226 167.103H117.227L117.233 167.109L117.236 167.11L117.236 167.111L117.237 167.111L117.249 167.121L117.533 167.336L117.555 167.351H117.556L117.563 167.356L117.564 167.357L117.565 167.357L117.566 167.358L117.603 167.386H117.627V167.404L117.697 167.457H117.693L118.195 167.836L118.202 167.841L118.216 167.851L119.357 168.678L119.798 168.99L120.37 169.386L120.371 169.386L120.372 169.387L120.523 169.503L121.348 170.046L121.349 170.046L121.702 170.293L121.748 170.323L122.892 171.06H122.892L122.915 171.074L123.234 171.272L123.234 171.272L124.082 171.802H124.082L124.089 171.806L125.284 172.51L125.312 172.525L125.399 172.576H125.398L126.467 173.194C126.477 173.192 126.487 173.195 126.495 173.201H126.673L126.553 173.243L126.553 173.244L126.481 173.269L126.151 173.387H126.151L126.145 173.389H126.145L125.962 173.453C125.703 173.547 125.445 173.638 125.187 173.726L124.948 173.812L124.943 173.814H124.942L124.075 174.095L123.757 174.201L123.756 174.201L123.116 174.392H123.15L122.883 174.461L122.882 174.461L122.882 174.461L122.677 174.515C122.37 174.602 122.064 174.685 121.76 174.764L121.704 174.78L121.703 174.78L121.703 174.779H121.703L121.703 174.78L121.633 174.797C121.423 174.851 121.214 174.904 121.006 174.954L120.803 175.005H120.838L120.527 175.074L120.524 175.075L120.523 175.075L120.316 175.121L120.205 175.146L120.205 175.146V175.146H120.204L119.367 175.323L119.366 175.323L119.094 175.372C118.874 175.414 118.654 175.455 118.435 175.493L118.211 175.535L118.21 175.535L118.098 175.551C117.813 175.599 117.529 175.643 117.247 175.683L117.067 175.712L117.066 175.712H117.065L116.925 175.728C116.723 175.755 116.523 175.78 116.322 175.804L115.946 175.854L115.945 175.854L115.944 175.854L115.924 175.855L115.692 175.872C115.466 175.894 115.241 175.914 115.017 175.932L114.836 175.949H114.835L114.482 175.972L114.481 175.972L114.267 175.982C114.108 175.991 113.95 175.999 113.792 176.006L113.75 176.008H113.741L113.735 176.008C113.392 176.021 113.052 176.029 112.715 176.031L112.699 176.031H112.699V176.031H112.644C112.351 176.032 112.061 176.029 111.773 176.021L111.614 176.019V176.019H111.612L111.502 176.013C111.331 176.006 111.16 175.999 110.99 175.99L110.575 175.972H110.575L110.573 175.972L110.352 175.949H110.351L110.35 175.949L110.223 175.937C110.104 175.927 109.987 175.917 109.87 175.905L109.562 175.878H109.561L109.559 175.878L109.323 175.854L109.322 175.854V175.854L108.56 175.748H108.558L108.555 175.748L108.323 175.713H108.322L108.318 175.712L107.588 175.582V175.582H107.587L107.351 175.535L107.351 175.535L106.632 175.382L106.631 175.381L106.63 175.381L106.406 175.322V175.322L105.711 175.145L105.709 175.145L105.629 175.121L105.473 175.074L105.473 175.074L105.469 175.073L105.242 175.005H105.254L104.806 174.864H104.805L104.799 174.861L104.596 174.782C104.468 174.738 104.341 174.692 104.214 174.645L103.933 174.545H103.932L103.926 174.543L103.714 174.46L103.713 174.46L103.077 174.2L103.075 174.2L103.074 174.199L102.875 174.094L102.262 173.811L102.26 173.81L102.259 173.809L102.099 173.715C101.997 173.662 101.895 173.608 101.795 173.554L101.471 173.385L101.469 173.384L101.269 173.266L101.268 173.266L100.702 172.924L100.7 172.923L100.408 172.719C100.315 172.657 100.223 172.594 100.132 172.53L99.9706 172.428L99.9694 172.428L99.9681 172.427L99.2724 171.896V171.896L99.2256 171.861L99.2247 171.86L99.2239 171.859L98.9461 171.623C98.8959 171.581 98.846 171.539 98.7963 171.496L98.5991 171.329L98.5976 171.328L98.5131 171.247C98.3898 171.136 98.2682 171.024 98.1483 170.909L97.9614 170.738L97.9604 170.737L97.9596 170.736L97.7885 170.554C97.5532 170.315 97.3247 170.068 97.1036 169.813L96.8742 169.556L96.8736 169.555L96.873 169.555L96.7787 169.437L96.7784 169.436L96.2478 168.752L96.2457 168.75L96.2442 168.747L96.2328 168.724L96.1905 168.664C96.0822 168.514 95.9761 168.362 95.8722 168.209L95.7505 168.035H95.7495L95.7406 168.021L95.7399 168.02L95.739 168.018L95.6564 167.889L95.6562 167.888L95.6486 167.876L95.6219 167.834H95.6226L95.385 167.452L95.3842 167.451L95.3835 167.449L95.3815 167.445H95.3814L95.3717 167.426L95.3625 167.407C95.355 167.394 95.3474 167.382 95.3399 167.369L95.305 167.326L95.3017 167.322L95.2997 167.317L95.2803 167.268C95.2756 167.26 95.2709 167.252 95.2662 167.244L95.256 167.229L95.2553 167.228L95.2546 167.226L95.222 167.168C95.207 167.142 95.192 167.116 95.1772 167.09L95.1254 167.003L95.1247 167.002L95.1241 167.001L95.0985 166.95C95.0686 166.896 95.0387 166.842 95.0093 166.788L94.9605 166.709L94.96 166.708L94.9594 166.707L94.875 166.549H94.8747L94.868 166.535L94.8652 166.53L94.8647 166.529V166.529L94.851 166.502H94.8509L94.841 166.482L94.7706 166.341L94.7701 166.34L94.7688 166.337L94.7449 166.289H94.7463L94.7198 166.233C94.6756 166.145 94.632 166.055 94.589 165.966L94.5797 165.947H94.5794L94.5721 165.932L94.57 165.928L94.5444 165.877H94.5458L94.4645 165.705L94.4425 165.672L94.4405 165.669L94.4401 165.668L94.4061 165.617H94.4191L94.3569 165.466L94.2801 165.287C94.2693 165.262 94.2583 165.236 94.2475 165.211L94.1326 164.958L94.1322 164.957L94.0856 164.829L94.0358 164.709H94.0344L94.026 164.686L94.0251 164.683L94.0064 164.638H94.0089L93.9199 164.391L93.9071 164.355C93.8734 164.264 93.8401 164.173 93.8076 164.081L93.7556 163.956L93.7547 163.954L93.6956 163.777L93.6954 163.776L93.5893 163.434V163.434L93.4717 163.081L93.4699 163.075V163.051L93.4332 162.913C93.3901 162.764 93.3483 162.613 93.3081 162.461L93.259 162.289L93.2587 162.288L93.2352 162.194L93.2349 162.193V162.192L93.2107 162.079C93.1566 161.859 93.1057 161.638 93.058 161.415L93.0233 161.299L93.0227 161.297L93.0224 161.294L92.9821 161.045C92.941 160.836 92.9027 160.626 92.867 160.414L92.8578 160.377L92.8469 160.333H92.8513L92.8345 160.216C92.8075 160.047 92.7822 159.878 92.7587 159.707L92.7158 159.443L92.7156 159.441L92.7154 159.44L92.7036 159.299L92.6952 159.213C92.6519 158.847 92.6164 158.477 92.5884 158.104H92.5877L92.5857 158.071L92.584 158.045C92.5722 157.883 92.5618 157.72 92.5528 157.557L92.5503 157.517L92.5502 157.516V157.506C92.5331 157.183 92.5217 156.856 92.5158 156.528L92.5149 156.514V156.487C92.4937 155.218 92.5552 153.916 92.6966 152.588L92.7154 152.381L92.7157 152.379L92.7327 152.264C92.7676 151.963 92.8065 151.661 92.8494 151.358H92.849L92.8499 151.353C92.8987 151.009 92.9527 150.664 93.0117 150.316L93.0221 150.233L93.0223 150.232L93.0225 150.231L93.0913 149.866C93.1181 149.719 93.1459 149.571 93.1745 149.424L93.1757 149.418L93.1759 149.417C93.3392 148.575 93.532 147.725 93.7537 146.869L93.7539 146.867L93.7543 146.866C94.0523 145.715 94.4023 144.552 94.803 143.381L94.8129 143.35H94.8103L94.8278 143.303L94.8351 143.28H94.8363L94.8706 143.186C95.1258 142.45 95.4009 141.711 95.6955 140.97L95.724 140.896L95.7249 140.894L95.7302 140.883C95.7859 140.743 95.8423 140.603 95.8994 140.464C99.1367 132.549 104.585 124.42 111.768 117.234L112.105 116.898C112.226 116.779 112.346 116.661 112.467 116.543H112.46L112.512 116.499C116.437 112.672 120.627 109.359 124.898 106.636H124.81L124.991 106.576C125.376 106.332 125.761 106.092 126.147 105.858H126.144L126.162 105.848C126.56 105.606 126.958 105.37 127.357 105.138H127.356L127.36 105.136C129.901 103.66 132.457 102.396 134.991 101.358C136.079 100.913 137.164 100.51 138.241 100.149H138.24L138.242 100.149ZM144.978 111.578C144.989 111.566 145.006 111.564 145.019 111.571L145.025 111.575L145.368 111.853C159.827 123.681 169.705 140.295 170.511 154.201L170.529 154.529C170.619 156.405 170.539 158.182 170.299 159.85H170.301L170.297 159.869C170.16 160.813 169.973 161.723 169.735 162.595L169.735 162.598H169.747L169.724 162.644L169.724 162.645L169.722 162.649L169.719 162.654C169.304 164.164 168.74 165.564 168.036 166.844L168.025 166.87L168.023 166.873L168.021 166.877L168.011 166.889C167.936 167.025 167.859 167.159 167.781 167.292H167.784L167.753 167.343L167.745 167.363H167.741L167.732 167.378L167.727 167.386H167.747L167.747 167.386H167.748L167.692 167.442C167.593 167.607 167.491 167.769 167.387 167.93L167.339 168.007L167.338 168.007L167.338 168.007L167.079 168.396L167.078 168.397L167.078 168.398L166.996 168.506C166.887 168.661 166.774 168.814 166.66 168.965L166.559 169.105L166.559 169.106L166.558 169.107L166.364 169.343C166.27 169.46 166.174 169.575 166.077 169.689L165.992 169.791L165.991 169.792L165.991 169.793L165.945 169.842C165.798 170.01 165.649 170.174 165.496 170.335L165.401 170.441L165.105 170.738L164.775 171.056L164.774 171.057L164.617 171.196C164.363 171.427 164.102 171.65 163.833 171.865L163.782 171.907L163.782 171.907L163.428 172.19L163.427 172.191L163.426 172.192L163.091 172.427C162.888 172.571 162.682 172.711 162.472 172.848L162.341 172.935L162.341 172.935L161.952 173.183L161.951 173.184L161.95 173.184L161.573 173.397L161.572 173.397L161.405 173.487C161.33 173.529 161.255 173.57 161.179 173.61L161.16 173.621L161.159 173.621L161.148 173.627C161.004 173.703 160.858 173.778 160.711 173.851L160.345 174.034L160.343 174.035L159.943 174.212L159.942 174.212L159.506 174.401L159.505 174.401L159.08 174.566L159.08 174.566L159.038 174.582C158.906 174.632 158.774 174.681 158.64 174.728L158.632 174.732L158.631 174.732L158.624 174.734C158.367 174.826 158.106 174.912 157.842 174.994L157.747 175.027L157.746 175.027L157.745 175.027L157.564 175.078C157.405 175.125 157.245 175.17 157.084 175.213L156.825 175.287L156.824 175.287L156.627 175.331C156.458 175.373 156.288 175.413 156.117 175.451L155.869 175.511L155.868 175.511L155.867 175.512L155.712 175.538L155.65 175.549C155.441 175.59 155.23 175.629 155.016 175.666L154.901 175.688L154.899 175.689L154.899 175.689H154.899L154.897 175.689H154.897L154.739 175.712C154.497 175.75 154.252 175.785 154.005 175.816L153.909 175.83L153.906 175.831H153.905L153.735 175.849C153.652 175.859 153.568 175.869 153.483 175.878L153.377 175.889H153.377L152.893 175.937L152.892 175.937L152.732 175.947C152.534 175.962 152.335 175.975 152.134 175.986L151.855 176.007L151.854 176.008H151.847L151.539 176.013C151.331 176.02 151.122 176.025 150.911 176.027L150.792 176.031L150.791 176.031V176.031L150.653 176.03C150.374 176.03 150.094 176.027 149.811 176.02L149.718 176.019H149.717L149.32 176.008H149.316L148.624 175.972H148.621L148.619 175.972L148.307 175.948C148.212 175.941 148.118 175.934 148.023 175.927L147.511 175.89H147.51L147.509 175.889L147.154 175.846C146.968 175.826 146.782 175.805 146.596 175.782L146.39 175.76L146.389 175.759V175.759L146.099 175.719C146.054 175.713 146.009 175.706 145.964 175.7L145.882 175.689H145.882L145.859 175.685C145.701 175.663 145.543 175.64 145.385 175.615L145.249 175.595H145.247L145.245 175.594L144.726 175.512L144.725 175.512L144.088 175.394L144.088 175.394L143.811 175.337C143.66 175.307 143.509 175.277 143.358 175.245L142.921 175.158L142.919 175.157L142.561 175.07C142.331 175.017 142.1 174.962 141.869 174.905L141.74 174.874L141.74 174.874L141.544 174.823C141.406 174.788 141.268 174.752 141.129 174.715L140.561 174.568L140.56 174.567V174.567L140.006 174.402V174.402L139.357 174.213L139.356 174.213L138.808 174.038H138.807L138.802 174.036L138.784 174.03L138.586 173.967H138.591L138.154 173.824L138.153 173.824L137.862 173.719C137.683 173.657 137.504 173.594 137.324 173.53L136.939 173.399L136.938 173.399V173.399L136.384 173.186V173.186L135.724 172.939L135.722 172.938L135.228 172.732C135.155 172.703 135.083 172.674 135.01 172.644L134.508 172.443L134.507 172.443L133.942 172.195L133.281 171.912L133.28 171.912L132.923 171.74C132.773 171.672 132.624 171.603 132.475 171.533L132.055 171.346L132.053 171.345V171.345L131.487 171.062V171.062L130.828 170.744L130.827 170.743L130.261 170.449V170.449L129.601 170.107L129.6 170.106L129.034 169.8H129.034L128.394 169.45H128.393L128.385 169.445L128.38 169.443L128.264 169.379H128.27L127.816 169.12H127.815L127.807 169.115L127.799 169.111L127.692 169.049H127.694L127.159 168.738L126.601 168.412H126.601L126.592 168.407L126.586 168.404L126.48 168.341H126.483L125.944 168.018L125.386 167.669H125.386L125.377 167.664L125.347 167.645L125.273 167.598H125.274L125.059 167.463L125.056 167.461L125.053 167.458L125.045 167.45L125.03 167.441L124.989 167.417L124.989 167.416L124.903 167.363H124.903L124.894 167.357L124.764 167.274L124.764 167.274L124.746 167.262L124.728 167.25L124.587 167.156V167.156L124.387 167.027L124.386 167.026L124.377 167.02L124.286 166.962H124.289L124.226 166.92C124.179 166.889 124.131 166.857 124.084 166.826L123.845 166.673L123.844 166.673L123.526 166.46L123.523 166.458L123.511 166.446L123.354 166.34C123.264 166.28 123.174 166.219 123.085 166.158L122.756 165.935H122.756L122.747 165.929L122.734 165.921L122.652 165.865H122.653L122.335 165.646V165.646L122.309 165.629H122.308L122.299 165.622L122.202 165.558H122.21L121.936 165.359C121.711 165.199 121.485 165.038 121.261 164.875L121.144 164.797L121.143 164.797L121.143 164.796L120.777 164.525L120.777 164.525L120.211 164.1V164.1L119.964 163.924L119.964 163.923L119.963 163.923L119.621 163.652V163.652L119.008 163.18L119.007 163.18L118.904 163.094C118.738 162.964 118.573 162.833 118.408 162.701L118.371 162.673L118.371 162.673L117.711 162.142L117.652 162.095L117.652 162.094L117.573 162.032H117.576L117.038 161.587L117.038 161.587L116.508 161.139H116.508L116.354 161.009L116.354 161.009L116.007 160.703C115.867 160.582 115.727 160.46 115.588 160.337L115.388 160.172L115.387 160.171L115.386 160.171L115.001 159.817C114.914 159.738 114.826 159.659 114.739 159.58L114.279 159.169L114.218 159.108V159.108L114.005 158.909C113.624 158.556 113.246 158.199 112.871 157.838L112.769 157.741L112.768 157.74L112.636 157.61C112.206 157.193 111.78 156.77 111.358 156.341L111.058 156.041L110.539 155.499L110.043 154.979H110.043L110.032 154.968L109.797 154.72L109.796 154.72L109.054 153.907L109.019 153.872L109.018 153.871L109.018 153.87L108.679 153.486C108.5 153.286 108.323 153.084 108.146 152.882L108.027 152.75L108.027 152.749L107.591 152.242L107.591 152.242L107.551 152.196C107.42 152.043 107.29 151.889 107.16 151.735L107.06 151.617L107.011 151.559H107.011L106.86 151.381L106.859 151.381L106.151 150.521H106.148L106.138 150.505L106.114 150.47L106.105 150.456L106.11 150.441L106.251 149.91L106.334 149.58L106.393 149.367L106.393 149.367L106.558 148.813L106.558 148.812L106.732 148.268L106.735 148.257V148.257L106.739 148.245L106.885 147.797H106.885L106.885 147.796H106.885L106.9 147.75L106.921 147.688L106.924 147.679V147.679L107.112 147.113L107.113 147.112L107.325 146.523L107.56 145.934L107.571 145.889L107.572 145.887L107.573 145.884L107.797 145.342L107.962 144.929L107.962 144.928L107.966 144.93H107.966L107.962 144.928L108.045 144.74L108.304 144.138L108.375 143.973L108.375 143.972L108.588 143.524L108.59 143.52L108.801 143.055H108.798L108.824 143.004L108.855 142.941L108.871 142.91L108.881 142.89L109.31 142.032L109.484 141.683L109.484 141.683L109.814 141.057L109.841 141.007L109.874 141.053L109.875 141.054H109.875L109.877 141.057L110.567 142.028L110.57 142.032H110.57L110.57 142.032L111.277 142.998L111.677 143.517L111.678 143.517L112.009 143.952L112.019 143.966H112.019L112.773 144.92L113.551 145.875L114.34 146.818L114.813 147.352L115.095 147.667L115.096 147.668L115.155 147.738L115.156 147.74L115.979 148.657L116.827 149.565H116.827L117.145 149.895L117.664 150.425L117.666 150.428L117.668 150.431L117.69 150.463L118.571 151.333L118.818 151.569L118.819 151.569L119.467 152.193L119.474 152.2L120.367 153.024L120.374 153.03H120.374L121.293 153.856L121.294 153.857L121.375 153.918H121.364L122.224 154.669L123.157 155.439L123.167 155.447L124.122 156.213H124.121L125.078 156.949H125.079L125.088 156.956L125.095 156.962L126.053 157.686L126.631 158.087L126.632 158.088H126.632L127.031 158.382L128.01 159.054H128.01L128.988 159.714H128.988L129.977 160.339H129.977L130.967 160.952L131.202 161.081L131.203 161.081H131.203L131.323 161.147H131.314L131.957 161.529H131.957L132.865 162.036L132.865 162.036L132.948 162.084H132.947L133.936 162.614L134.608 162.956L134.609 162.956L134.911 163.118L134.915 163.121H134.915L135.892 163.592L136.858 164.04L137.824 164.464L137.835 164.468L138.788 164.852L138.79 164.853H138.79L139.733 165.218H139.733L139.922 165.287L140.675 165.56H140.675L141.605 165.866L142.513 166.137H142.513L143.408 166.385L143.413 166.386L143.455 166.397H143.455L144.291 166.609L145.163 166.797H145.163L146.007 166.962L146.01 166.962L146.835 167.092L147.519 167.186L147.52 167.186L147.52 167.186H147.52L147.649 167.21L148.424 167.292L149.191 167.351H149.19L149.221 167.352L149.932 167.386H149.932L150.644 167.398H150.649L151.345 167.386H151.35L152.002 167.351L152.649 167.292L153.25 167.21V167.21L153.576 167.156L153.826 167.116L154.379 166.998L154.897 166.868L154.899 166.868L155.402 166.716L155.77 166.593L155.861 166.563L156.306 166.387L156.731 166.198L157.129 165.999L157.505 165.787L157.856 165.565L158.034 165.438L158.186 165.329L158.242 165.285L158.283 165.251H158.278L158.363 165.188L158.502 165.083L158.502 165.083L158.796 164.825L159.078 164.554L159.08 164.552L159.349 164.272L159.607 163.978L159.853 163.661L160.088 163.332L160.31 162.981L160.523 162.616L160.721 162.218L160.898 161.807L161.074 161.36L161.239 160.888V160.888L161.38 160.395L161.521 159.878L161.54 159.779L161.627 159.324L161.685 158.971L161.686 158.97L161.733 158.735L161.803 158.124L161.803 158.12L161.862 157.489L161.909 156.83L161.921 156.147L161.909 155.428L161.886 154.687L161.885 154.685H161.885L161.829 153.988H161.827V153.956L161.827 153.954V153.932L161.802 153.696L161.744 153.144L161.743 153.139L161.709 152.909L161.639 152.347L161.638 152.343L161.636 152.331L161.497 151.507L161.332 150.658L161.144 149.8L161.144 149.799L161.109 149.669L161.108 149.669L160.92 148.914L160.916 148.898L160.674 148.014L160.672 148.006V148.006L160.402 147.101L160.402 147.1L160.142 146.322L160.142 146.321L160.096 146.169L159.762 145.261H159.76L159.753 145.237L159.4 144.283L159.271 143.989L159.271 143.988L159.013 143.332L159.011 143.328V143.328L158.588 142.362L158.587 142.362L158.14 141.384L158.14 141.384L157.69 140.461H157.686L157.678 140.436L157.667 140.403L157.175 139.429L157.068 139.252L157.068 139.251L157.067 139.25L156.644 138.438L156.42 138.049L156.419 138.048L156.424 138.046L156.419 138.048L156.09 137.448L156.066 137.407L155.5 136.469V136.469L155.489 136.451L155.016 135.684H155.015L155.005 135.667L154.972 135.614H154.975L154.9 135.479L154.265 134.492L154.256 134.483L154.254 134.48L154.252 134.477L153.603 133.511L152.932 132.532L152.614 132.096L152.614 132.096L152.229 131.559L152.225 131.553V131.553L151.742 130.905L151.741 130.905L151.506 130.587L150.752 129.621V129.621L149.996 128.679H149.996L149.992 128.674L149.986 128.666L149.208 127.723L149.206 127.72L148.936 127.417H148.936L148.925 127.404L148.921 127.4L148.873 127.346H148.876L148.411 126.796L148.406 126.791V126.791L148.403 126.787L147.582 125.872V125.872L146.875 125.106L146.874 125.104L146.744 124.951H146.744L145.885 124.056V124.056L145.803 123.974L145.803 123.974L145.013 123.173L144.134 122.317L144.129 122.312L143.54 121.746L143.234 121.452L142.36 120.671H142.359L142.349 120.66L142.314 120.625L141.384 119.801L141.379 119.797L140.453 119.011L140.453 119.011V119.011L140.441 119.001L139.501 118.235L139.498 118.233V118.233L139.498 118.233V118.233L138.544 117.479L137.577 116.748L137.568 116.741L136.611 116.029V116.028L135.775 115.451L135.774 115.451L135.636 115.347L135.633 115.345L135.586 115.312L135.588 115.311L135.637 115.285L136.25 114.955L136.25 114.954L136.875 114.636L137.213 114.467H137.186L137.348 114.399L137.349 114.399L137.49 114.34L138.102 114.046L138.103 114.046L138.704 113.774L139.305 113.503L139.307 113.503L139.905 113.256L139.908 113.255L140.497 113.007L140.498 113.007L141.076 112.783L141.076 112.783L141.467 112.639H141.437L141.652 112.571L141.654 112.57L141.655 112.57L142.232 112.37L142.233 112.369L142.799 112.192L143.353 112.016L143.354 112.015L143.908 111.862L144.451 111.709L144.452 111.708L144.452 111.708L144.958 111.579L144.963 111.578H144.978ZM153.251 141.058L153.581 141.683L153.582 141.683L153.9 142.308L153.9 142.308L153.9 142.309L154.195 142.922L154.195 142.923L154.475 143.53L154.483 143.537L154.544 143.598H154.513L154.761 144.137L154.761 144.138L155.021 144.74L155.28 145.341L155.281 145.342L155.508 145.921H155.511L155.517 145.945L155.741 146.522L155.741 146.523L155.953 147.112L155.953 147.113H155.953V147.113H155.953L155.957 147.122L156.154 147.691L156.154 147.691L156.342 148.257L156.378 148.363L156.378 148.364L156.515 148.798L156.519 148.811L156.519 148.812L156.52 148.813L156.673 149.367L156.72 149.52L156.72 149.521L156.826 149.91L156.827 149.911L156.951 150.431C156.962 150.441 156.965 150.456 156.96 150.469L156.96 150.47L156.958 150.472C156.957 150.475 156.956 150.477 156.954 150.479C156.948 150.487 156.941 150.496 156.934 150.504L156.785 150.696L156.784 150.697L156.427 151.125C155.738 151.958 155.031 152.78 154.307 153.587L154.213 153.693L154.212 153.694L154.212 153.693H154.211L154.212 153.694L154.183 153.725C153.616 154.354 153.039 154.975 152.451 155.587L152.291 155.758L152.29 155.759L152.166 155.882C150.897 157.192 149.582 158.46 148.228 159.679L148.226 159.683L148.221 159.688L148.051 159.838C147.834 160.032 147.617 160.225 147.398 160.416L147.302 160.501L147.302 160.501L147.24 160.557H147.25L147.172 160.619L147.162 160.628H147.16L147.102 160.674C146.872 160.874 146.64 161.072 146.407 161.27L146.216 161.434L146.215 161.434L146.214 161.433L146.215 161.434L146.153 161.484C145.778 161.799 145.401 162.11 145.021 162.418L145.015 162.423L145 162.436L145 162.436V162.436L144.982 162.432L144.981 162.431V162.432L144.966 162.427L144.455 162.291L144.451 162.29L144.451 162.29V162.29L143.909 162.149L143.908 162.148V162.148L143.354 161.995L143.353 161.995L142.799 161.818L142.798 161.818L142.421 161.692L142.233 161.629V161.629L141.655 161.44L141.654 161.44L141.076 161.227L141.076 161.227L140.486 161.003L140.485 161.003L139.902 160.758L139.896 160.755L139.584 160.628H139.584L139.577 160.625L139.577 160.625L139.308 160.508L139.306 160.508V160.507L139.306 160.507V160.507L138.712 160.251H138.711L138.705 160.248L138.704 160.248L138.091 159.965L138.091 159.964L138.09 159.964V159.964L138.086 159.962L137.52 159.697H137.517L137.511 159.692L137.51 159.692L137.508 159.691L137.491 159.679L137.475 159.668L136.864 159.375L136.863 159.374L136.25 159.056L135.637 158.737L135.618 158.727L135.618 158.706L135.618 158.694L135.618 158.676L135.633 158.665L136.781 157.845H136.779L136.849 157.796L136.871 157.781L138.073 156.887L138.108 156.861L138.11 156.859L138.111 156.859L139.333 155.907L140.547 154.916L141.737 153.891L142.915 152.842L143.186 152.583L143.186 152.583L143.187 152.584L143.186 152.583L144.059 151.757L144.245 151.571H144.244L144.298 151.517L144.305 151.51L144.316 151.5H144.316L145.155 150.683L145.19 150.649L145.863 149.955H145.862L145.92 149.895L145.931 149.884H145.931L146.298 149.506L146.439 149.353L146.945 148.799L146.946 148.798L147.37 148.35L148.418 147.172L148.477 147.102L148.477 147.101L148.984 146.512L148.984 146.511L149.434 145.992H149.432L149.479 145.935L149.489 145.921H149.489L149.962 145.333L149.962 145.333L150.434 144.767L150.455 144.734L150.456 144.733L150.457 144.732L150.929 144.13L151.355 143.583L151.388 143.541L152.307 142.304L153.191 141.054L153.224 141.007L153.251 141.058ZM106.824 98.5832C111.211 97.5812 116.358 97.8016 121.918 99.2735L122.029 99.3001H122.018C123.393 99.6676 124.794 100.111 126.214 100.632L126.494 100.735L126.5 100.739C126.506 100.742 126.51 100.747 126.513 100.753L126.553 100.767L126.505 100.794C126.501 100.798 126.497 100.801 126.491 100.802L126.487 100.805L125.487 101.373L125.278 101.492L124.082 102.208L124.082 102.208L123.403 102.621L122.503 103.186L122.503 103.186L122.043 103.481L122.043 103.481L121.559 103.793L121.064 104.125L120.582 104.448L120.582 104.448L119.689 105.071L119.68 105.08L119.678 105.083L119.675 105.084L119.009 105.555L118.885 105.645H118.887L118.86 105.663L118.249 106.106L118.131 106.193L117.919 106.353H117.924L117.838 106.415L117.838 106.415L117.828 106.424H117.827L117.791 106.449L117.591 106.6V106.61L117.572 106.62L117.552 106.63L117.499 106.671L117.454 106.707H117.472L117.377 106.77L117.368 106.777H117.366L117.349 106.789L117.288 106.83L117.094 106.976L117.049 107.016L117.037 107.027L117.031 107.026L117.018 107.033L117.008 107.038L116.998 107.036L116.998 107.036V107.036L116.943 107.03L116.903 107.025L116.902 107.025L116.901 107.024L116.373 106.93L116.372 106.93V106.93L116.072 106.889L115.772 106.848V106.848L115.171 106.777V106.777L114.584 106.718H114.584L114.582 106.718L114.019 106.671H114.018L114.017 106.671L113.743 106.654L113.451 106.636V106.636L112.91 106.624H112.604L112.603 106.624L112.382 106.612L112.278 106.624L112.276 106.624H111.863L111.357 106.647L111.357 106.648L110.862 106.683L110.861 106.683H110.86L110.392 106.73L109.934 106.789L109.934 106.789L109.498 106.859L109.498 106.86L109.075 106.93L109.075 106.93L108.71 107.013L108.663 107.024L108.274 107.118L107.905 107.222L107.898 107.224L107.898 107.224L107.713 107.278L107.533 107.33L107.194 107.447L107.194 107.447L106.865 107.576L106.866 107.576L106.547 107.718L106.241 107.859L105.948 108.011L105.948 108.011L105.666 108.164L105.397 108.328L105.138 108.505L105.137 108.505L104.895 108.679L104.892 108.68L104.893 108.68L104.691 108.841L104.422 109.057L104.001 109.455L104 109.456L103.999 109.456L103.601 109.878L103.224 110.35L103.048 110.596L102.873 110.852L102.791 111.005L102.791 111.005L102.79 111.006L102.724 111.116L102.72 111.123L102.72 111.124L102.556 111.405L102.403 111.698L102.354 111.813H102.357L102.334 111.861L102.333 111.863L102.332 111.864L102.332 111.865L102.262 112.005L102.133 112.322L102.133 112.322L102.004 112.65L101.976 112.733L101.968 112.756L101.968 112.756V112.756L101.968 112.758L101.874 113.004L101.768 113.368L101.768 113.368H101.768L101.768 113.368L101.763 113.388L101.686 113.663V113.663L101.662 113.745L101.662 113.745L101.557 114.133L101.483 114.502H101.484L101.476 114.538L101.474 114.544L101.474 114.544L101.394 114.968L101.392 114.98L101.321 115.428L101.315 115.488L101.31 115.544L101.307 115.575H101.305L101.262 115.875L101.216 116.356L101.216 116.356L101.216 116.357L101.216 116.507V116.509L101.216 116.51L101.192 116.839L101.192 116.839L101.169 117.346L101.168 117.347L101.157 117.864V118.394L101.169 118.948L101.202 119.468H101.204V119.5L101.245 120.002L101.251 120.077L101.298 120.549V120.549L101.309 120.66L101.31 120.667L101.38 121.255L101.475 121.868L101.581 122.493L101.583 122.508L101.574 122.52L101.445 122.696L101.444 122.697L100.712 123.661L100.702 123.675L99.8649 124.831L99.8648 124.831L99.0528 125.996L99.0445 126.013H99.0415L98.4153 126.941L98.415 126.942L98.2536 127.172L98.2503 127.177L98.241 127.191L97.7673 127.931L97.767 127.932L97.7669 127.932L97.4848 128.355L97.4849 128.355L97.1311 128.933L97.1308 128.934L96.7424 129.546L96.7425 129.546L96.7388 129.552L96.5186 129.935L96.5184 129.935L96.0393 130.741L96.0352 130.748L95.9293 130.937V130.937L95.5284 131.645L95.5283 131.645L95.3576 131.941C95.3561 131.948 95.3523 131.955 95.3466 131.96L95.3144 132.016L95.2878 131.946L95.1699 131.64L95.1695 131.639L94.9222 130.932L94.8514 130.743L94.851 130.742L94.5799 129.928L94.5796 129.927L94.5051 129.681C94.4717 129.577 94.4387 129.473 94.4062 129.369L94.2614 128.926L94.2611 128.924L94.096 128.346V128.346L93.9781 127.922L93.7659 127.167L93.7655 127.166V127.166L93.7067 126.93L93.7066 126.929L93.4828 125.986L93.4709 125.939L93.4705 125.938L93.2349 124.841L93.2341 124.838V124.813L93.2268 124.775C93.1759 124.519 93.1279 124.265 93.0827 124.011L93.0346 123.757L93.0111 123.663L93.0108 123.661L93.0105 123.66L92.8572 122.681L92.857 122.68L92.8569 122.678L92.8463 122.521C92.8202 122.332 92.7957 122.143 92.7728 121.954L92.7628 121.878L92.7315 121.638H92.7305L92.7273 121.606L92.7268 121.602L92.7222 121.567H92.7232L92.6919 121.264V121.264L92.6362 120.706H92.6359L92.6327 120.674L92.6244 120.588H92.6227L92.621 120.554L92.6209 120.553L92.6175 120.517H92.6192L92.602 120.176C92.588 119.976 92.576 119.776 92.5659 119.578L92.5628 119.53L92.5002 119.468H92.5496L92.5385 118.95L92.5267 118.502L92.5266 118.501H92.5267V118.319C92.5244 118.106 92.5244 117.893 92.5267 117.681V117.344L92.5268 117.343L92.5269 117.341L92.5403 117.053C92.5454 116.894 92.5516 116.736 92.5594 116.579L92.562 116.507L92.5619 116.354V116.353L92.562 116.352L92.5975 115.868L92.6184 115.575H92.6174L92.6208 115.541L92.6211 115.538L92.6212 115.537L92.6329 115.419V115.419L92.6801 114.97V114.97L92.7271 114.582V114.535L92.7277 114.532L92.7827 114.21C92.7917 114.147 92.801 114.083 92.8104 114.02L92.8406 113.771H92.8396L92.8454 113.731L92.8455 113.731L92.8571 113.648L92.8572 113.647L92.8575 113.646L92.9164 113.351L92.9871 112.986L93.0343 112.738L93.0345 112.737L93.0579 112.632L93.1287 112.301L93.1288 112.301L93.19 112.026H93.1885L93.1995 111.982L93.2351 111.84L93.2354 111.839L93.2826 111.674L93.3038 111.598C93.3327 111.488 93.3622 111.378 93.3926 111.269L93.4246 111.141H93.4221L93.4359 111.095L93.4422 111.07H93.4434L93.4714 110.978V110.977L93.5045 110.87H93.5041L93.517 110.829L93.5185 110.824L93.5261 110.799H93.5266L93.6012 110.564L93.6013 110.564L93.6262 110.489C93.6473 110.423 93.6689 110.358 93.6906 110.292L93.7305 110.153L93.7309 110.152L93.7312 110.151L93.8372 109.844L93.8376 109.843L93.8451 109.846L93.8378 109.843L94.0022 109.42L94.0258 109.349L94.0263 109.348L94.0268 109.346L94.0954 109.186C94.1558 109.035 94.2177 108.886 94.2814 108.737L94.3207 108.641L94.3443 108.571L94.3452 108.568L94.3469 108.565L94.3982 108.472C94.4034 108.46 94.4088 108.448 94.4141 108.437L94.4552 108.334H94.4501L94.4757 108.283L94.4834 108.263H94.4855L94.5577 108.119L94.6284 107.966V107.966L94.676 107.862H94.6694L94.7006 107.809L94.7765 107.679C94.7934 107.646 94.8103 107.613 94.8273 107.58L94.8529 107.528L94.8627 107.509H94.8637L94.8805 107.478C94.9028 107.435 94.9253 107.392 94.9479 107.35L94.9826 107.281L94.9827 107.28L94.9925 107.261H94.9935L95.0416 107.174L95.0889 107.08L95.0914 107.075L95.0953 107.071L95.1041 107.062L95.1089 107.054C95.1382 107.002 95.1678 106.95 95.1976 106.897L95.2066 106.88L95.2067 106.879L95.2076 106.878L95.2088 106.876L95.2089 106.876L95.2174 106.863C95.2315 106.838 95.2461 106.814 95.2603 106.789H95.2581L95.2904 106.736L95.2992 106.718H95.3007L95.3181 106.69L95.322 106.683H95.3138L95.3484 106.631L95.3491 106.63L95.3503 106.628L95.3705 106.598L95.3731 106.594L95.3836 106.573L95.3915 106.557V106.542H95.3916V106.541H95.4064L95.4727 106.424H95.4703L95.5026 106.37L95.5054 106.365L95.5123 106.353H95.5129L95.5381 106.311L95.5389 106.31L95.9309 105.716H95.9231L95.962 105.663L95.9709 105.645H95.971L95.9711 105.645H95.9751L96.4242 105.034L96.4257 105.032L96.4276 105.03L96.4389 105.019L96.4857 104.96C96.5835 104.833 96.6832 104.707 96.7846 104.582L96.9319 104.397L96.9332 104.395L97.084 104.226C97.1897 104.103 97.2974 103.982 97.4068 103.863L97.5108 103.746L97.5115 103.746L97.5123 103.745L97.579 103.678C97.6848 103.566 97.7922 103.455 97.9014 103.346C97.9413 103.306 97.9816 103.267 98.0219 103.227L98.1131 103.132L98.114 103.131L98.1148 103.131L98.2574 103.001C98.3971 102.869 98.539 102.74 98.6831 102.614H98.6775L98.7482 102.555H98.7474L98.8043 102.508C98.9832 102.354 99.1656 102.204 99.3509 102.058L99.4248 101.997L99.4255 101.997L99.4262 101.996L99.511 101.933C100.142 101.448 100.808 101.007 101.508 100.61L101.622 100.543L101.623 100.543L101.624 100.542L101.694 100.506C101.921 100.381 102.151 100.261 102.385 100.145L102.413 100.13L102.414 100.129L102.415 100.129L102.453 100.111C102.692 99.9939 102.935 99.8813 103.182 99.7734L103.228 99.7517L103.229 99.7512L103.23 99.7509L103.264 99.7373C103.625 99.5812 103.994 99.4357 104.369 99.3001H104.358L104.541 99.2388C104.889 99.1169 105.243 99.0037 105.603 98.8992H105.574L105.81 98.84C106.112 98.7558 106.417 98.6776 106.726 98.6055L106.771 98.5936L106.773 98.5933L106.773 98.593L106.824 98.5832Z" fill="white"/>
<path d="M203.753 160V114.56H220.777C226.324 114.56 230.527 115.541 233.385 117.504C236.287 119.467 237.737 122.581 237.737 126.848C237.737 128.768 237.332 130.453 236.521 131.904C235.753 133.312 234.601 134.421 233.065 135.232C231.572 136.043 229.759 136.491 227.625 136.576L227.561 136.448C231.444 136.576 234.431 137.643 236.521 139.648C238.612 141.611 239.657 144.235 239.657 147.52C239.657 151.701 238.207 154.837 235.305 156.928C232.447 158.976 228.372 160 223.081 160H203.753ZM212.073 152.96H222.697C225.3 152.96 227.348 152.427 228.841 151.36C230.377 150.293 231.145 148.715 231.145 146.624C231.145 144.533 230.399 142.933 228.905 141.824C227.412 140.715 225.343 140.16 222.697 140.16H212.073V152.96ZM212.073 133.632H220.521C223.252 133.632 225.385 133.12 226.921 132.096C228.457 131.072 229.225 129.579 229.225 127.616C229.225 125.568 228.479 124.053 226.985 123.072C225.492 122.091 223.337 121.6 220.521 121.6H212.073V133.632ZM245.068 160V125.824H252.748L253.068 135.296L252.364 135.168C252.876 131.883 253.836 129.515 255.244 128.064C256.695 126.571 258.658 125.824 261.132 125.824H264.268V132.864H261.068C259.319 132.864 257.868 133.12 256.716 133.632C255.564 134.144 254.69 134.955 254.092 136.064C253.538 137.131 253.26 138.539 253.26 140.288V160H245.068ZM281.621 160.768C278.251 160.768 275.285 160.043 272.725 158.592C270.208 157.099 268.245 155.008 266.837 152.32C265.472 149.632 264.789 146.496 264.789 142.912C264.789 139.285 265.472 136.149 266.837 133.504C268.245 130.816 270.208 128.747 272.725 127.296C275.285 125.803 278.251 125.056 281.621 125.056C284.992 125.056 287.936 125.803 290.453 127.296C292.971 128.747 294.912 130.816 296.277 133.504C297.685 136.149 298.389 139.285 298.389 142.912C298.389 146.496 297.685 149.632 296.277 152.32C294.912 155.008 292.971 157.099 290.453 158.592C287.936 160.043 284.992 160.768 281.621 160.768ZM281.621 154.112C284.267 154.112 286.293 153.131 287.701 151.168C289.152 149.205 289.877 146.453 289.877 142.912C289.877 139.413 289.152 136.683 287.701 134.72C286.293 132.715 284.267 131.712 281.621 131.712C278.976 131.712 276.928 132.715 275.477 134.72C274.027 136.683 273.301 139.413 273.301 142.912C273.301 146.453 274.027 149.205 275.477 151.168C276.928 153.131 278.976 154.112 281.621 154.112ZM308.771 160L298.467 125.824H306.851L313.507 150.72L320.355 125.824H327.523L334.435 150.72L341.091 125.824H349.475L339.171 160H330.723L323.939 137.088L317.219 160H308.771ZM365.446 160.768C362.076 160.768 359.238 160.277 356.934 159.296C354.673 158.315 352.924 156.949 351.686 155.2C350.449 153.451 349.745 151.467 349.574 149.248L357.958 148.864C358.257 150.656 359.004 152.043 360.198 153.024C361.393 154.005 363.164 154.496 365.51 154.496C367.43 154.496 368.924 154.197 369.99 153.6C371.1 152.96 371.654 151.979 371.654 150.656C371.654 149.888 371.462 149.248 371.078 148.736C370.694 148.224 369.969 147.776 368.902 147.392C367.836 147.008 366.257 146.624 364.166 146.24C360.668 145.643 357.916 144.917 355.91 144.064C353.905 143.168 352.476 142.059 351.622 140.736C350.812 139.413 350.406 137.771 350.406 135.808C350.406 132.608 351.622 130.027 354.054 128.064C356.529 126.059 360.134 125.056 364.87 125.056C367.942 125.056 370.524 125.568 372.614 126.592C374.705 127.573 376.326 128.939 377.478 130.688C378.673 132.395 379.42 134.357 379.718 136.576L371.462 136.96C371.249 135.808 370.865 134.805 370.31 133.952C369.756 133.099 369.009 132.459 368.07 132.032C367.132 131.563 366.022 131.328 364.742 131.328C362.822 131.328 361.372 131.712 360.39 132.48C359.409 133.248 358.918 134.272 358.918 135.552C358.918 136.448 359.132 137.195 359.558 137.792C360.028 138.389 360.774 138.88 361.798 139.264C362.822 139.605 364.188 139.925 365.894 140.224C369.478 140.779 372.294 141.504 374.342 142.4C376.433 143.253 377.905 144.363 378.758 145.728C379.654 147.051 380.102 148.651 380.102 150.528C380.102 152.704 379.484 154.56 378.246 156.096C377.052 157.632 375.345 158.805 373.126 159.616C370.95 160.384 368.39 160.768 365.446 160.768ZM399.36 160.768C395.947 160.768 392.981 160.043 390.464 158.592C387.947 157.099 386.005 155.008 384.64 152.32C383.275 149.632 382.592 146.496 382.592 142.912C382.592 139.328 383.275 136.213 384.64 133.568C386.005 130.88 387.925 128.789 390.4 127.296C392.917 125.803 395.84 125.056 399.168 125.056C402.411 125.056 405.248 125.781 407.68 127.232C410.155 128.683 412.053 130.773 413.376 133.504C414.699 136.235 415.36 139.52 415.36 143.36V145.216H391.104C391.275 148.203 392.085 150.464 393.536 152C395.029 153.493 396.992 154.24 399.424 154.24C401.259 154.24 402.773 153.835 403.968 153.024C405.205 152.171 406.059 150.997 406.528 149.504L414.912 150.016C413.973 153.344 412.117 155.968 409.344 157.888C406.613 159.808 403.285 160.768 399.36 160.768ZM391.104 139.712H406.912C406.741 136.939 405.952 134.891 404.544 133.568C403.136 132.203 401.344 131.52 399.168 131.52C396.992 131.52 395.179 132.224 393.728 133.632C392.32 135.04 391.445 137.067 391.104 139.712ZM419.843 160V125.824H427.523L427.843 135.296L427.139 135.168C427.651 131.883 428.611 129.515 430.019 128.064C431.47 126.571 433.433 125.824 435.907 125.824H439.043V132.864H435.843C434.094 132.864 432.643 133.12 431.491 133.632C430.339 134.144 429.465 134.955 428.867 136.064C428.313 137.131 428.035 138.539 428.035 140.288V160H419.843ZM475.172 161.024C471.503 161.024 468.281 160.32 465.508 158.912C462.777 157.504 460.665 155.52 459.172 152.96C457.721 150.357 456.996 147.285 456.996 143.744V114.496H465.316V143.744C465.316 146.944 466.169 149.419 467.876 151.168C469.583 152.917 472.015 153.792 475.172 153.792C478.329 153.792 480.761 152.917 482.468 151.168C484.217 149.419 485.092 146.944 485.092 143.744V114.496H493.412V143.744C493.412 147.285 492.665 150.357 491.172 152.96C489.679 155.52 487.567 157.504 484.836 158.912C482.148 160.32 478.927 161.024 475.172 161.024ZM514.034 160.768C510.663 160.768 507.826 160.277 505.522 159.296C503.261 158.315 501.511 156.949 500.274 155.2C499.037 153.451 498.333 151.467 498.162 149.248L506.546 148.864C506.845 150.656 507.591 152.043 508.786 153.024C509.981 154.005 511.751 154.496 514.098 154.496C516.018 154.496 517.511 154.197 518.578 153.6C519.687 152.96 520.242 151.979 520.242 150.656C520.242 149.888 520.05 149.248 519.666 148.736C519.282 148.224 518.557 147.776 517.49 147.392C516.423 147.008 514.845 146.624 512.754 146.24C509.255 145.643 506.503 144.917 504.498 144.064C502.493 143.168 501.063 142.059 500.21 140.736C499.399 139.413 498.994 137.771 498.994 135.808C498.994 132.608 500.21 130.027 502.642 128.064C505.117 126.059 508.722 125.056 513.458 125.056C516.53 125.056 519.111 125.568 521.202 126.592C523.293 127.573 524.914 128.939 526.066 130.688C527.261 132.395 528.007 134.357 528.306 136.576L520.05 136.96C519.837 135.808 519.453 134.805 518.898 133.952C518.343 133.099 517.597 132.459 516.658 132.032C515.719 131.563 514.61 131.328 513.33 131.328C511.41 131.328 509.959 131.712 508.978 132.48C507.997 133.248 507.506 134.272 507.506 135.552C507.506 136.448 507.719 137.195 508.146 137.792C508.615 138.389 509.362 138.88 510.386 139.264C511.41 139.605 512.775 139.925 514.482 140.224C518.066 140.779 520.882 141.504 522.93 142.4C525.021 143.253 526.493 144.363 527.346 145.728C528.242 147.051 528.69 148.651 528.69 150.528C528.69 152.704 528.071 154.56 526.834 156.096C525.639 157.632 523.933 158.805 521.714 159.616C519.538 160.384 516.978 160.768 514.034 160.768ZM547.947 160.768C544.534 160.768 541.569 160.043 539.051 158.592C536.534 157.099 534.593 155.008 533.227 152.32C531.862 149.632 531.179 146.496 531.179 142.912C531.179 139.328 531.862 136.213 533.227 133.568C534.593 130.88 536.513 128.789 538.987 127.296C541.505 125.803 544.427 125.056 547.755 125.056C550.998 125.056 553.835 125.781 556.267 127.232C558.742 128.683 560.641 130.773 561.963 133.504C563.286 136.235 563.947 139.52 563.947 143.36V145.216H539.691C539.862 148.203 540.673 150.464 542.123 152C543.617 153.493 545.579 154.24 548.011 154.24C549.846 154.24 551.361 153.835 552.555 153.024C553.793 152.171 554.646 150.997 555.115 149.504L563.499 150.016C562.561 153.344 560.705 155.968 557.931 157.888C555.201 159.808 551.873 160.768 547.947 160.768ZM539.691 139.712H555.499C555.329 136.939 554.539 134.891 553.131 133.568C551.723 132.203 549.931 131.52 547.755 131.52C545.579 131.52 543.766 132.224 542.315 133.632C540.907 135.04 540.033 137.067 539.691 139.712Z" fill="white"/>
<path d="M601.434 161.024C597.509 161.024 594.074 160.085 591.13 158.208C588.229 156.288 585.967 153.557 584.346 150.016C582.725 146.475 581.914 142.251 581.914 137.344C581.914 132.437 582.725 128.213 584.346 124.672C585.967 121.088 588.229 118.336 591.13 116.416C594.074 114.496 597.509 113.536 601.434 113.536C606.597 113.536 610.671 114.965 613.658 117.824C616.645 120.64 618.607 124.437 619.546 129.216L616.154 129.472C615.471 125.547 613.893 122.432 611.418 120.128C608.943 117.824 605.615 116.672 601.434 116.672C598.191 116.672 595.354 117.525 592.922 119.232C590.49 120.896 588.613 123.264 587.29 126.336C585.967 129.408 585.306 133.077 585.306 137.344C585.306 141.611 585.967 145.28 587.29 148.352C588.613 151.381 590.49 153.728 592.922 155.392C595.354 157.056 598.191 157.888 601.434 157.888C605.829 157.888 609.306 156.672 611.866 154.24C614.426 151.765 615.983 148.373 616.538 144.064L619.93 144.32C619.375 147.733 618.309 150.699 616.73 153.216C615.151 155.691 613.061 157.611 610.458 158.976C607.898 160.341 604.89 161.024 601.434 161.024ZM631.244 160C629.452 160 628.044 159.552 627.02 158.656C625.996 157.717 625.484 156.309 625.484 154.432V114.56H628.556V154.304C628.556 155.243 628.812 155.968 629.324 156.48C629.879 156.992 630.668 157.248 631.692 157.248H633.996V160H631.244ZM651.608 160.768C648.621 160.768 646.019 160.043 643.8 158.592C641.581 157.141 639.853 155.093 638.616 152.448C637.421 149.803 636.824 146.667 636.824 143.04C636.824 139.413 637.421 136.277 638.616 133.632C639.853 130.987 641.581 128.939 643.8 127.488C646.019 126.037 648.621 125.312 651.608 125.312C654.595 125.312 657.197 126.037 659.416 127.488C661.635 128.939 663.341 130.987 664.536 133.632C665.773 136.277 666.392 139.413 666.392 143.04C666.392 146.667 665.773 149.803 664.536 152.448C663.341 155.093 661.635 157.141 659.416 158.592C657.197 160.043 654.595 160.768 651.608 160.768ZM651.608 157.76C655.192 157.76 658.008 156.459 660.056 153.856C662.104 151.211 663.128 147.605 663.128 143.04C663.128 138.475 662.104 134.891 660.056 132.288C658.008 129.643 655.192 128.32 651.608 128.32C648.024 128.32 645.208 129.643 643.16 132.288C641.112 134.891 640.088 138.475 640.088 143.04C640.088 147.605 641.112 151.211 643.16 153.856C645.208 156.459 648.024 157.76 651.608 157.76ZM683.343 160.768C679.972 160.768 677.263 159.637 675.215 157.376C673.209 155.072 672.207 151.915 672.207 147.904V126.08H675.279V146.88C675.279 150.549 676.025 153.301 677.519 155.136C679.055 156.971 681.273 157.888 684.175 157.888C687.332 157.888 689.828 156.864 691.663 154.816C693.54 152.725 694.479 149.909 694.479 146.368V126.08H697.551V160H694.735L694.607 151.04L695.119 151.168C694.649 154.197 693.369 156.565 691.279 158.272C689.231 159.936 686.585 160.768 683.343 160.768ZM717.567 160.768C714.623 160.768 712.084 160.043 709.951 158.592C707.818 157.141 706.175 155.093 705.023 152.448C703.914 149.803 703.359 146.667 703.359 143.04C703.359 139.413 703.914 136.277 705.023 133.632C706.175 130.987 707.818 128.939 709.951 127.488C712.084 126.037 714.623 125.312 717.567 125.312C720.255 125.312 722.602 126.037 724.607 127.488C726.655 128.939 728.084 130.837 728.895 133.184V114.56H731.967V160H729.407L729.215 152.384C728.276 154.987 726.74 157.035 724.607 158.528C722.474 160.021 720.127 160.768 717.567 160.768ZM717.951 157.76C720.212 157.76 722.154 157.141 723.775 155.904C725.439 154.667 726.698 152.96 727.551 150.784C728.447 148.565 728.895 145.984 728.895 143.04C728.895 140.181 728.447 137.643 727.551 135.424C726.698 133.205 725.439 131.477 723.775 130.24C722.154 128.96 720.212 128.32 717.951 128.32C714.452 128.32 711.679 129.643 709.631 132.288C707.626 134.933 706.623 138.517 706.623 143.04C706.623 147.52 707.626 151.104 709.631 153.792C711.679 156.437 714.452 157.76 717.951 157.76Z" fill="#FE750E"/>
<path d="M323.535 200.32H320.391V190H323.535V191.032H321.615V199.288H323.535V200.32ZM335.73 199V191.668H333.234V190.48H339.474V191.668H336.978V199H335.73ZM340.621 199V190.48H341.881V194.584L341.317 194.128H345.781L345.217 194.584V190.48H346.477V199H345.217V194.848L345.781 195.304H341.317L341.881 194.848V199H340.621ZM348.201 199V190.48H353.433V191.668H349.461V194.152H353.289V195.304H349.461V197.812H353.529V199H348.201ZM362.783 199L361.871 190.48H363.131L363.839 197.968H363.695L364.583 191.44H365.687L366.575 197.968H366.431L367.139 190.48H368.399L367.487 199H365.843L364.991 192.76H365.279L364.427 199H362.783ZM369.018 199L371.514 190.48H373.146L375.642 199H374.334L372.33 191.788L370.326 199H369.018ZM370.41 196.78L370.794 195.616H373.866L374.25 196.78H370.41ZM378.902 199V195.496L376.37 190.48H377.762L379.526 194.2L381.29 190.48H382.682L380.162 195.496V199H378.902ZM390.604 199L393.1 190.48H394.732L397.228 199H395.92L393.916 191.788L391.912 199H390.604ZM391.996 196.78L392.38 195.616H395.452L395.836 196.78H391.996ZM398.448 199V197.812H400.488V191.668H398.448V190.48H403.776V191.668H401.736V197.812H403.776V199H398.448ZM415.502 199.192C414.59 199.192 413.878 198.912 413.366 198.352C412.854 197.792 412.598 197.02 412.598 196.036V190.48H413.858V196.084C413.858 196.708 413.998 197.188 414.278 197.524C414.558 197.852 414.966 198.016 415.502 198.016C416.038 198.016 416.446 197.852 416.726 197.524C417.006 197.188 417.146 196.708 417.146 196.084V190.48H418.406V196.036C418.406 197.02 418.15 197.792 417.638 198.352C417.126 198.912 416.414 199.192 415.502 199.192ZM422.806 199.192C422.19 199.192 421.65 199.068 421.186 198.82C420.73 198.572 420.366 198.228 420.094 197.788C419.822 197.34 419.662 196.82 419.614 196.228L420.91 196.144C420.966 196.552 421.078 196.896 421.246 197.176C421.414 197.456 421.634 197.668 421.906 197.812C422.178 197.948 422.494 198.016 422.854 198.016C423.206 198.016 423.502 197.972 423.742 197.884C423.982 197.788 424.166 197.652 424.294 197.476C424.422 197.3 424.486 197.088 424.486 196.84C424.486 196.584 424.426 196.36 424.306 196.168C424.186 195.976 423.97 195.8 423.658 195.64C423.346 195.48 422.89 195.316 422.29 195.148C421.706 194.988 421.23 194.808 420.862 194.608C420.494 194.408 420.226 194.16 420.058 193.864C419.89 193.568 419.806 193.2 419.806 192.76C419.806 192.272 419.918 191.844 420.142 191.476C420.374 191.1 420.702 190.808 421.126 190.6C421.558 190.392 422.074 190.288 422.674 190.288C423.266 190.288 423.77 190.404 424.186 190.636C424.61 190.868 424.942 191.192 425.182 191.608C425.43 192.016 425.582 192.496 425.638 193.048L424.342 193.12C424.302 192.792 424.21 192.504 424.066 192.256C423.93 192.008 423.742 191.816 423.502 191.68C423.262 191.536 422.974 191.464 422.638 191.464C422.166 191.464 421.79 191.58 421.51 191.812C421.238 192.036 421.102 192.332 421.102 192.7C421.102 192.948 421.158 193.152 421.27 193.312C421.382 193.472 421.578 193.616 421.858 193.744C422.138 193.872 422.53 194.004 423.034 194.14C423.714 194.324 424.254 194.536 424.654 194.776C425.054 195.016 425.342 195.304 425.518 195.64C425.694 195.976 425.782 196.376 425.782 196.84C425.782 197.304 425.658 197.716 425.41 198.076C425.162 198.428 424.814 198.704 424.366 198.904C423.926 199.096 423.406 199.192 422.806 199.192ZM427.349 199V190.48H432.581V191.668H428.609V194.152H432.437V195.304H428.609V197.812H432.677V199H427.349ZM437.196 199.192C436.58 199.192 436.04 199.068 435.576 198.82C435.12 198.572 434.756 198.228 434.484 197.788C434.212 197.34 434.052 196.82 434.004 196.228L435.3 196.144C435.356 196.552 435.468 196.896 435.636 197.176C435.804 197.456 436.024 197.668 436.296 197.812C436.568 197.948 436.884 198.016 437.244 198.016C437.596 198.016 437.892 197.972 438.132 197.884C438.372 197.788 438.556 197.652 438.684 197.476C438.812 197.3 438.876 197.088 438.876 196.84C438.876 196.584 438.816 196.36 438.696 196.168C438.576 195.976 438.36 195.8 438.048 195.64C437.736 195.48 437.28 195.316 436.68 195.148C436.096 194.988 435.62 194.808 435.252 194.608C434.884 194.408 434.616 194.16 434.448 193.864C434.28 193.568 434.196 193.2 434.196 192.76C434.196 192.272 434.308 191.844 434.532 191.476C434.764 191.1 435.092 190.808 435.516 190.6C435.948 190.392 436.464 190.288 437.064 190.288C437.656 190.288 438.16 190.404 438.576 190.636C439 190.868 439.332 191.192 439.572 191.608C439.82 192.016 439.972 192.496 440.028 193.048L438.732 193.12C438.692 192.792 438.6 192.504 438.456 192.256C438.32 192.008 438.132 191.816 437.892 191.68C437.652 191.536 437.364 191.464 437.028 191.464C436.556 191.464 436.18 191.58 435.9 191.812C435.628 192.036 435.492 192.332 435.492 192.7C435.492 192.948 435.548 193.152 435.66 193.312C435.772 193.472 435.968 193.616 436.248 193.744C436.528 193.872 436.92 194.004 437.424 194.14C438.104 194.324 438.644 194.536 439.044 194.776C439.444 195.016 439.732 195.304 439.908 195.64C440.084 195.976 440.172 196.376 440.172 196.84C440.172 197.304 440.048 197.716 439.8 198.076C439.552 198.428 439.204 198.704 438.756 198.904C438.316 199.096 437.796 199.192 437.196 199.192ZM450.855 199V191.668H448.359V190.48H454.599V191.668H452.103V199H450.855ZM455.746 199V190.48H457.006V194.584L456.442 194.128H460.906L460.342 194.584V190.48H461.602V199H460.342V194.848L460.906 195.304H456.442L457.006 194.848V199H455.746ZM463.326 199V190.48H468.558V191.668H464.586V194.152H468.414V195.304H464.586V197.812H468.654V199H463.326ZM477.908 199L476.996 190.48H478.256L478.964 197.968H478.82L479.708 191.44H480.812L481.7 197.968H481.556L482.264 190.48H483.524L482.612 199H480.968L480.116 192.76H480.404L479.552 199H477.908ZM484.911 199V190.48H490.143V191.668H486.171V194.152H489.999V195.304H486.171V197.812H490.239V199H484.911ZM492.047 199V190.48H494.519C495.455 190.48 496.167 190.684 496.655 191.092C497.143 191.5 497.387 192.068 497.387 192.796C497.387 193.148 497.307 193.464 497.147 193.744C496.987 194.016 496.751 194.236 496.439 194.404C496.135 194.564 495.771 194.648 495.347 194.656V194.584C495.867 194.584 496.303 194.672 496.655 194.848C497.015 195.016 497.287 195.256 497.471 195.568C497.655 195.872 497.747 196.228 497.747 196.636C497.747 197.388 497.487 197.972 496.967 198.388C496.455 198.796 495.735 199 494.807 199H492.047ZM493.307 197.824H494.819C495.371 197.824 495.779 197.716 496.043 197.5C496.307 197.276 496.439 196.968 496.439 196.576C496.439 196.16 496.299 195.836 496.019 195.604C495.747 195.372 495.347 195.256 494.819 195.256H493.307V197.824ZM493.307 194.092H494.543C495.071 194.092 495.459 193.988 495.707 193.78C495.955 193.564 496.079 193.264 496.079 192.88C496.079 192.488 495.955 192.188 495.707 191.98C495.459 191.764 495.071 191.656 494.543 191.656H493.307V194.092ZM507.469 200.32V199.288H509.389V191.032H507.469V190H510.613V200.32H507.469Z" fill="white"/>
</svg>
