<svg width="830" height="274" viewBox="0 0 830 274" fill="none" xmlns="http://www.w3.org/2000/svg">
<rect x="0.5" y="0.5" width="829" height="273" fill="white"/>
<rect x="0.5" y="0.5" width="829" height="273" stroke="black"/>
<path d="M86.7414 92.1487C93.4959 89.8874 99.9743 89.3183 105.432 90.7496L105.512 90.7708L105.559 90.7821L105.56 90.7823L105.561 90.7826L105.609 90.7969C107.136 91.211 108.54 91.7723 109.818 92.4684L109.871 92.4951L109.872 92.4956L109.873 92.4963L109.912 92.5202C111.735 93.5275 113.298 94.8114 114.59 96.3358L114.644 96.3948L114.645 96.3956L114.645 96.3966L114.712 96.4812C114.872 96.6739 115.027 96.8704 115.178 97.0706L115.185 97.0776L115.187 97.0798L115.189 97.0823L115.221 97.1277C115.586 97.6164 115.926 98.1269 116.241 98.658L116.268 98.6947H116.263C116.356 98.854 116.448 99.0153 116.537 99.1783H116.538L116.546 99.1949C116.547 99.1975 116.549 99.2002 116.55 99.2028L116.577 99.249H116.575C116.597 99.2894 116.619 99.3299 116.64 99.3705L116.658 99.4023H116.657C116.754 99.5848 116.847 99.7695 116.938 99.9563L116.972 100.023L116.972 100.025L116.973 100.026L116.978 100.038C117.065 100.219 117.149 100.402 117.23 100.587L117.243 100.613L117.244 100.616L117.256 100.648C117.503 101.212 117.724 101.796 117.921 102.396C117.938 102.449 117.955 102.501 117.971 102.554L117.974 102.557L117.976 102.566L117.986 102.601C118.168 103.178 118.327 103.771 118.463 104.379L118.47 104.401L118.471 104.404L118.472 104.406L118.472 104.408L118.519 104.632L118.52 104.633L118.518 104.633V104.633L118.52 104.633L118.525 104.667C118.568 104.873 118.609 105.081 118.647 105.29L118.654 105.323H118.662V105.371C118.777 106.021 118.867 106.686 118.932 107.366L118.932 107.371L118.933 107.373V107.374C118.997 108.05 119.036 108.741 119.049 109.445L119.05 109.459L119.051 109.461V109.463L119.051 109.464L119.054 109.498H119.051L119.051 109.54C119.055 109.85 119.055 110.162 119.051 110.478V110.538L119.05 110.54V110.571H119.049C119.036 111.284 118.997 112.01 118.933 112.748V112.765H118.931C118.839 113.823 118.694 114.906 118.497 116.011L118.472 116.156L118.472 116.157L118.44 116.32C117.989 118.729 117.288 121.243 116.327 123.837L116.29 123.945L116.265 124.018L116.231 123.96C116.225 123.955 116.221 123.948 116.22 123.94L115.53 122.749L114.823 121.546L114.823 121.546L114.091 120.371L114.072 120.341L113.32 119.184L113.315 119.177L112.525 117.998V117.997L112.054 117.326L112.054 117.326L111.712 116.831L111.702 116.817L110.864 115.676L110.369 115.015L110.368 115.015L110.003 114.52L109.994 114.508L109.997 114.494C109.997 114.493 109.997 114.493 109.997 114.493L110.102 113.87V113.848L110.103 113.845L110.185 113.255L110.25 112.765H110.248L110.256 112.723L110.26 112.706L110.268 112.665L110.326 112.077L110.327 112.075L110.362 111.501V111.501L110.397 110.948L110.409 110.394L110.409 110.389V110.359H110.409L110.421 109.865L110.41 109.498H110.409V109.466L110.409 109.464L110.409 109.463H110.409V109.346L110.385 108.839V108.839L110.353 108.448H110.35V108.416L110.35 108.414V108.356L110.303 107.875L110.303 107.875L110.244 107.428L110.174 106.981L110.173 106.98L110.173 106.98L110.113 106.604L110.103 106.546L110.056 106.382L110.056 106.381L110.056 106.379L110.009 106.131V106.131L109.915 105.745L109.914 105.741L109.817 105.417H109.808V105.388L109.808 105.387V105.382L109.807 105.364L109.691 105.004L109.574 104.65L109.48 104.429L109.48 104.427L109.479 104.426L109.444 104.322L109.304 104.005L109.165 103.704L109.163 103.7L109.16 103.693L109.01 103.406V103.406L108.858 103.124L108.694 102.854L108.517 102.596L108.341 102.349L107.977 101.878L107.577 101.455H107.577L107.284 101.186V101.186L106.98 100.916L106.651 100.657L106.345 100.447L106.31 100.423V100.423L106.04 100.249L105.946 100.188L105.724 100.071L105.723 100.07L105.558 99.9758V99.9757L105.147 99.7646L104.713 99.577L104.255 99.4005L104.253 99.3999L103.891 99.2949L103.89 99.2945L103.889 99.2941L103.762 99.2479H103.762L103.243 99.1064V99.1063L102.703 98.9771L102.127 98.8595L102.127 98.8594V98.8595L102.086 98.8531L101.527 98.7653L100.891 98.6946L100.221 98.6475V98.6476L99.529 98.6241H98.8013L98.0547 98.6357H98.0546L97.278 98.6946L97.2781 98.6947L96.8958 98.7284L96.4765 98.7655L95.6651 98.8594L95.6653 98.8595L94.8171 98.989L93.957 99.1542L93.9569 99.1541L93.0735 99.3427L93.0734 99.3426V99.3427L93.0698 99.3436H93.0695L92.1728 99.5533L92.1667 99.5548L91.2479 99.8022L91.2478 99.8021L90.318 100.073L90.3182 100.073L90.2837 100.084L89.3642 100.379L89.3644 100.379L88.4093 100.721L87.6792 101.004H87.679L87.4527 101.09L87.4317 101.098L87.4316 101.098L86.4541 101.499L86.4542 101.499L85.4661 101.923L85.4648 101.923L85.4647 101.923L85.4639 101.923L84.4626 102.383L83.4732 102.872L83.4623 102.878L83.4545 102.882H83.454L82.4484 103.396L82.4485 103.396L81.4346 103.939L80.4212 104.505L80.4211 104.505L79.4081 105.106L78.7012 105.542L78.7007 105.542L78.3824 105.731L78.1148 105.902L77.3695 106.379L77.3677 106.38L77.1705 106.519L77.1696 106.52L77.1695 106.52L76.3685 107.05L76.3686 107.05L76.3492 107.064L75.6967 107.522L75.6964 107.522L75.3544 107.758L75.3543 107.758L74.3529 108.477H74.3527L74.3528 108.477L74.3512 108.478L73.4008 109.191L73.3632 109.22L73.3631 109.22V109.22L72.892 109.585L72.3733 109.986L71.6378 110.583H71.6402L71.5644 110.643L71.5604 110.646L71.56 110.646L71.3949 110.776L70.4296 111.588L70.4297 111.589L69.4751 112.425L69.4752 112.425L68.5367 113.282L68.5324 113.286L68.5323 113.286L68.5322 113.286L68.5323 113.286L67.6009 114.147L66.6938 115.043L66.6821 115.054L66.6822 115.054L65.7862 115.951L64.9146 116.869L64.9148 116.87L64.4785 117.341L64.4782 117.342L64.0508 117.792L64.0421 117.802L63.206 118.756L63.2061 118.756L62.3819 119.71L62.3726 119.724H62.3703L61.5677 120.689L61.4266 120.866L61.4265 120.866L60.7782 121.668L60.4839 122.056V122.056L60.0674 122.601L60.0242 122.658L60.024 122.658L59.2819 123.648L59.282 123.648L58.5631 124.65L58.5632 124.65L57.8676 125.652L57.8675 125.652L57.1963 126.665L56.5705 127.644L56.5481 127.679L56.5482 127.679L56.542 127.689L55.9383 128.688L55.9354 128.693L55.9355 128.693L55.5817 129.294L55.5815 129.295L55.3341 129.707L55.3318 129.711L54.8985 130.508L54.8977 130.51L54.7691 130.72L54.7692 130.72L54.7592 130.739L54.2505 131.722L54.2479 131.727L54.2439 131.731L54.2365 131.738L53.7323 132.747L53.7324 132.747L53.6499 132.924L53.6498 132.924L53.261 133.749L53.2611 133.749L52.8155 134.746L52.5657 135.329L52.3891 135.74L52.3892 135.741L52.3888 135.742L52.0147 136.712L52.0125 136.718L52.0122 136.719L51.649 137.68L51.6491 137.697L51.6492 137.733H51.6386L51.3168 138.652L51.2464 138.887L51.2463 138.887L51.0225 139.595L50.893 140.054L50.8929 140.054L50.7514 140.526L50.5866 141.162L50.5161 141.433L50.3376 142.202H50.3385L50.3275 142.246L50.3039 142.341L50.1273 143.212L49.9743 144.071L49.9744 144.071L49.9735 144.077L49.8566 144.908L49.8544 144.927L49.7976 145.45V145.45L49.7937 145.45L49.7975 145.45L49.7631 145.715L49.7624 145.72L49.704 146.504L49.7039 146.505V146.507L49.704 146.543H49.7016L49.6565 147.276L49.6564 147.278V147.392L49.6565 147.51V147.545H49.6557L49.6447 148.018L49.6565 148.511V148.725L49.6917 149.405L49.6999 149.479L49.7035 149.511L49.7036 149.512L49.7506 150.065L49.8094 150.477L49.8096 150.478L49.8324 150.685L49.8331 150.689H49.833L49.9386 151.289H49.9387L50.0563 151.865L50.1819 152.391L50.1861 152.407L50.3382 152.911H50.3383L50.4596 153.253H50.4607L50.4666 153.273L50.4679 153.277L50.4681 153.278L50.4685 153.278L50.5001 153.384L50.5033 153.395L50.6798 153.842L50.879 154.264L51.0785 154.675L51.2902 155.028L51.2952 155.036V155.059L51.3756 155.18L51.5244 155.403L51.7717 155.744L52.0287 156.06L52.2993 156.354L52.5808 156.648L52.5941 156.66L52.8715 156.915L52.8743 156.918L53.18 157.177L53.5082 157.423L53.805 157.617H53.8065L53.816 157.624L53.8453 157.646L53.861 157.658L54.2358 157.881L54.3363 157.934L54.6356 158.093L55.0474 158.293L55.4914 158.48L55.4938 158.48H55.4937L55.8461 158.613L55.9638 158.657L56.4168 158.797L56.4564 158.81H56.4565L56.9867 158.951L57.5386 159.068L58.1266 159.174L58.3709 159.209H58.372L58.3748 159.21L58.7402 159.269L59.2693 159.317L59.3853 159.327H59.3854L59.71 159.35L60.0562 159.374H60.0563L60.7631 159.398L61.4928 159.386L62.2576 159.351L63.0348 159.304L63.8463 159.221L64.6708 159.104L65.5157 158.963L65.5184 158.962L65.5341 158.959L65.5468 158.969L65.5669 158.984L65.5938 159.004L65.726 159.103H65.7268L65.7332 159.109L65.7353 159.11L65.7361 159.111L65.7367 159.111L65.7485 159.121L66.0329 159.336L66.0549 159.351H66.0558L66.0625 159.356L66.0639 159.357L66.0646 159.357L66.0655 159.358L66.1029 159.386H66.1267V159.404L66.1969 159.457H66.1931L66.6943 159.836L66.7018 159.841L66.7154 159.851L67.8566 160.678L68.2977 160.99L68.8701 161.386L68.8709 161.386L68.8716 161.387L69.0231 161.503L69.848 162.046L69.8489 162.046L70.2016 162.293L70.2474 162.323L71.3923 163.06H71.3921L71.4146 163.074L71.7336 163.272L71.7338 163.272L72.582 163.802H72.5821L72.5885 163.806L73.7841 164.51L73.8114 164.525L73.8993 164.576H73.8983L74.9668 165.194C74.9767 165.192 74.9868 165.195 74.9946 165.201H75.1727L75.0524 165.243L75.0528 165.244L74.9809 165.269L74.6507 165.387H74.6505L74.6451 165.389H74.645L74.4622 165.453C74.203 165.547 73.9447 165.638 73.6871 165.726L73.4482 165.812L73.4426 165.814H73.4421L72.5748 166.095L72.2568 166.201L72.2557 166.201L71.6161 166.392H71.65L71.3827 166.461L71.382 166.461L71.3819 166.461L71.1765 166.515C70.8695 166.602 70.5638 166.685 70.2596 166.764L70.2034 166.78L70.2028 166.78L70.2025 166.779H70.2024L70.2027 166.78L70.1323 166.797C69.9228 166.851 69.714 166.904 69.5059 166.954L69.3025 167.005H69.3375L69.0267 167.074L69.0238 167.075L69.0228 167.075L68.816 167.121L68.7046 167.146L68.7045 167.146V167.146H68.7042L67.8671 167.323L67.866 167.323L67.5939 167.372C67.3733 167.414 67.1537 167.455 66.9349 167.493L66.7109 167.535L66.7094 167.535L66.5973 167.551C66.3123 167.599 66.0289 167.643 65.747 167.683L65.5665 167.712L65.5656 167.712H65.5648L65.4251 167.728C65.2233 167.755 65.0223 167.78 64.8222 167.804L64.4455 167.854L64.4445 167.854L64.4434 167.854L64.4239 167.855L64.1917 167.872C63.9658 167.894 63.7409 167.914 63.5173 167.932L63.3356 167.949H63.3349L62.9813 167.972L62.9807 167.972L62.7666 167.982C62.6077 167.991 62.4494 167.999 62.2917 168.006L62.2494 168.008H62.2403L62.2351 168.008C61.8921 168.021 61.5521 168.029 61.2151 168.031L61.1992 168.031H61.1987V168.031H61.1437C60.8512 168.032 60.561 168.029 60.2731 168.021L60.1133 168.019V168.019H60.1119L60.0023 168.013C59.8307 168.006 59.66 167.999 59.4901 167.99L59.0749 167.972H59.0744L59.0726 167.972L58.852 167.949H58.8509L58.8493 167.949L58.7224 167.937C58.6043 167.927 58.4866 167.917 58.3693 167.905L58.0619 167.878H58.0607L58.059 167.878L57.8232 167.854L57.8219 167.854V167.854L57.0594 167.748H57.0578L57.0552 167.748L56.8223 167.713H56.8213L56.8183 167.712L56.0875 167.582V167.582H56.0868L55.8509 167.535L55.8505 167.535L55.1314 167.382L55.1305 167.381L55.1297 167.381L54.906 167.322V167.322L54.2104 167.145L54.209 167.145L54.1287 167.121L53.9732 167.074L53.9726 167.074L53.9692 167.073L53.7422 167.005H53.7541L53.3063 166.864H53.3046L53.2984 166.861L53.0963 166.782C52.968 166.738 52.8406 166.692 52.714 166.645L52.4328 166.545H52.4322L52.426 166.543L52.2138 166.46L52.2133 166.46L51.5767 166.2L51.575 166.2L51.5735 166.199L51.3747 166.094L50.7617 165.811L50.7602 165.81L50.7587 165.809L50.5985 165.715C50.4965 165.662 50.3952 165.608 50.2946 165.554L49.9703 165.385L49.9688 165.384L49.7683 165.266L49.7679 165.266L49.2021 164.924L49.2001 164.923L48.9078 164.719C48.815 164.657 48.7229 164.594 48.6314 164.53L48.4704 164.428L48.4692 164.428L48.4679 164.427L47.7722 163.896V163.896L47.7253 163.861L47.7245 163.86L47.7237 163.859L47.4459 163.623C47.3957 163.581 47.3458 163.539 47.2961 163.496L47.0989 163.329L47.0974 163.328L47.0129 163.247C46.8896 163.136 46.768 163.024 46.6481 162.909L46.4612 162.738L46.4602 162.737L46.4594 162.736L46.2883 162.554C46.053 162.315 45.8245 162.068 45.6034 161.813L45.374 161.556L45.3734 161.555L45.3728 161.555L45.2785 161.437L45.2782 161.436L44.7476 160.752L44.7455 160.75L44.744 160.747L44.7326 160.724L44.6903 160.664C44.582 160.514 44.4759 160.362 44.372 160.209L44.2503 160.035H44.2493L44.2403 160.021L44.2397 160.02L44.2388 160.018L44.1562 159.889L44.156 159.888L44.1484 159.876L44.1217 159.834H44.1224L43.8848 159.452L43.884 159.451L43.8833 159.449L43.8813 159.445H43.8812L43.8715 159.426L43.8623 159.407C43.8548 159.394 43.8471 159.382 43.8396 159.369L43.8047 159.326L43.8015 159.322L43.7995 159.317L43.7801 159.268C43.7754 159.26 43.7707 159.252 43.766 159.244L43.7558 159.229L43.7551 159.228L43.7544 159.226L43.7218 159.168C43.7068 159.142 43.6918 159.116 43.6769 159.09L43.6252 159.003L43.6245 159.002L43.6239 159.001L43.5983 158.95C43.5683 158.896 43.5385 158.842 43.5091 158.788L43.4603 158.709L43.4597 158.708L43.4592 158.707L43.3748 158.549H43.3745L43.3678 158.535L43.365 158.53L43.3644 158.529V158.529L43.3508 158.502H43.3507L43.3408 158.482L43.2703 158.341L43.2699 158.34L43.2686 158.337L43.2447 158.289H43.246L43.2196 158.233C43.1754 158.145 43.1318 158.055 43.0888 157.966L43.0795 157.947H43.0792L43.0719 157.932L43.0698 157.928L43.0442 157.877H43.0456L42.9643 157.705L42.9423 157.672L42.9403 157.669L42.9399 157.668L42.9059 157.617H42.9189L42.8567 157.466L42.7799 157.287C42.7691 157.262 42.7581 157.236 42.7473 157.211L42.6324 156.958L42.632 156.957L42.5854 156.829L42.5356 156.709H42.5342L42.5257 156.686L42.5249 156.683L42.5062 156.638H42.5087L42.4197 156.391L42.4069 156.355C42.3732 156.264 42.3399 156.173 42.3073 156.081L42.2554 155.956L42.2545 155.954L42.1954 155.777L42.1952 155.776L42.089 155.434V155.434L41.9715 155.081L41.9697 155.075V155.051L41.933 154.913C41.8899 154.764 41.8481 154.613 41.8078 154.461L41.7588 154.289L41.7585 154.288L41.735 154.194L41.7346 154.193V154.192L41.7105 154.079C41.6564 153.859 41.6055 153.638 41.5578 153.415L41.5231 153.299L41.5225 153.297L41.5221 153.294L41.4819 153.045C41.4408 152.836 41.4024 152.626 41.3668 152.414L41.3576 152.377L41.3466 152.333H41.3511L41.3343 152.216C41.3073 152.047 41.282 151.878 41.2584 151.707L41.2156 151.443L41.2153 151.441L41.2152 151.44L41.2034 151.299L41.195 151.213C41.1517 150.847 41.1162 150.477 41.0882 150.104H41.0875L41.0855 150.071L41.0838 150.045C41.072 149.883 41.0616 149.72 41.0526 149.557L41.0501 149.517L41.05 149.516V149.506C41.0329 149.183 41.0215 148.856 41.0155 148.528L41.0147 148.514V148.487C40.9935 147.218 41.0549 145.916 41.1964 144.588L41.2152 144.381L41.2154 144.379L41.2325 144.264C41.2674 143.963 41.3062 143.661 41.3492 143.358H41.3488L41.3497 143.353C41.3984 143.009 41.4525 142.664 41.5115 142.316L41.5219 142.233L41.522 142.232L41.5223 142.231L41.5911 141.866C41.6178 141.719 41.6457 141.571 41.6742 141.424L41.6754 141.418L41.6757 141.417C41.839 140.575 42.0318 139.725 42.2535 138.869L42.2537 138.867L42.2541 138.866C42.5521 137.715 42.9021 136.552 43.3028 135.381L43.3127 135.35H43.3101L43.3276 135.303L43.3349 135.28H43.3361L43.3703 135.186C43.6256 134.45 43.9007 133.711 44.1953 132.97L44.2238 132.896L44.2247 132.894L44.2299 132.883C44.2857 132.743 44.3421 132.603 44.3992 132.464C47.6365 124.549 53.0843 116.42 60.2678 109.234L60.6053 108.898C60.7255 108.779 60.8461 108.661 60.9669 108.543H60.9595L61.0119 108.499C64.9367 104.672 69.1266 101.359 73.3976 98.6358H73.3103L73.4911 98.576C73.8756 98.3317 74.2609 98.0924 74.6465 97.8577H74.6433L74.6621 97.8481C75.0598 97.6062 75.4581 97.3696 75.8568 97.138H75.8562L75.8603 97.1359C78.4006 95.6604 80.9568 94.3959 83.4912 93.3584C84.5792 92.913 85.6634 92.5097 86.7404 92.1491H86.7403L86.7414 92.1487ZM93.4777 103.578C93.4887 103.566 93.5054 103.564 93.519 103.571L93.525 103.575L93.8674 103.853C108.326 115.681 118.204 132.295 119.011 146.201L119.029 146.529C119.118 148.405 119.039 150.182 118.799 151.85H118.801L118.796 151.869C118.66 152.813 118.472 153.723 118.235 154.595L118.235 154.598H118.247L118.224 154.644L118.223 154.645L118.222 154.649L118.219 154.654C117.804 156.164 117.24 157.564 116.536 158.844L116.524 158.87L116.523 158.873L116.521 158.877L116.511 158.889C116.436 159.025 116.359 159.159 116.281 159.292H116.284L116.253 159.343L116.244 159.363H116.241L116.232 159.378L116.227 159.386H116.246L116.246 159.386H116.248L116.192 159.442C116.093 159.607 115.991 159.769 115.887 159.93L115.838 160.007L115.838 160.007L115.838 160.007L115.579 160.396L115.578 160.397L115.577 160.398L115.496 160.506C115.386 160.661 115.274 160.814 115.16 160.965L115.059 161.105L115.058 161.106L115.058 161.107L114.864 161.343C114.77 161.46 114.674 161.575 114.577 161.689L114.492 161.791L114.491 161.792L114.49 161.793L114.444 161.842C114.298 162.01 114.149 162.174 113.996 162.335L113.901 162.441L113.605 162.738L113.275 163.056L113.274 163.057L113.117 163.196C112.863 163.427 112.601 163.65 112.333 163.865L112.282 163.907L112.282 163.907L111.928 164.19L111.927 164.191L111.926 164.192L111.591 164.427C111.388 164.571 111.182 164.711 110.972 164.848L110.841 164.935L110.84 164.935L110.451 165.183L110.451 165.184L110.45 165.184L110.072 165.397L110.072 165.397L109.905 165.487C109.83 165.529 109.755 165.57 109.679 165.61L109.659 165.621L109.659 165.621L109.647 165.627C109.503 165.703 109.358 165.778 109.211 165.851L108.845 166.034L108.843 166.035L108.442 166.212L108.442 166.212L108.006 166.401L108.005 166.401L107.58 166.566L107.58 166.566L107.538 166.582C107.406 166.632 107.273 166.681 107.14 166.728L107.132 166.732L107.13 166.732L107.124 166.734C106.867 166.825 106.606 166.912 106.342 166.994L106.247 167.027L106.246 167.027L106.245 167.027L106.063 167.078C105.905 167.125 105.745 167.17 105.584 167.213L105.325 167.287L105.323 167.287L105.127 167.331C104.958 167.373 104.788 167.413 104.617 167.451L104.369 167.511L104.368 167.511L104.366 167.512L104.211 167.538L104.15 167.549C103.941 167.59 103.729 167.629 103.516 167.666L103.401 167.688L103.399 167.689L103.399 167.689H103.399L103.397 167.689H103.397L103.239 167.712C102.997 167.75 102.752 167.785 102.505 167.816L102.409 167.83L102.406 167.831H102.404L102.235 167.849C102.151 167.859 102.067 167.869 101.983 167.878L101.877 167.889H101.877L101.393 167.937L101.392 167.937L101.231 167.947C101.034 167.962 100.834 167.975 100.634 167.986L100.355 168.007L100.353 168.008H100.347L100.039 168.013C99.831 168.02 99.6216 168.025 99.4108 168.027L99.2922 168.031L99.2907 168.031V168.031L99.1523 168.03C98.874 168.03 98.5934 168.027 98.3103 168.02L98.2178 168.019H98.2171L97.82 168.008H97.8156L97.1242 167.972H97.1204L97.1191 167.972L96.8065 167.948C96.7122 167.941 96.6178 167.934 96.5232 167.927L96.011 167.89H96.0101L96.0093 167.889L95.6539 167.846C95.4682 167.826 95.2822 167.805 95.0957 167.782L94.8896 167.76L94.8886 167.759V167.759L94.599 167.719C94.554 167.713 94.5091 167.706 94.464 167.7L94.3818 167.689H94.3815L94.3589 167.685C94.2011 167.663 94.0429 167.64 93.8846 167.615L93.7486 167.595H93.7471L93.7444 167.594L93.2256 167.512L93.2248 167.512L92.5882 167.394L92.5875 167.394L92.3108 167.337C92.1601 167.307 92.0092 167.277 91.8581 167.245L91.4204 167.158L91.419 167.157L91.0611 167.07C90.8307 167.017 90.5998 166.962 90.3686 166.905L90.2403 166.874L90.2395 166.874L90.0442 166.823C89.906 166.788 89.7677 166.752 89.6293 166.715L89.0605 166.568L89.0593 166.567V166.567L88.5054 166.402V166.402L87.8571 166.213L87.8562 166.213L87.3076 166.038H87.3071L87.3017 166.036L87.2833 166.03L87.086 165.967H87.0908L86.6534 165.824L86.6523 165.824L86.3621 165.719C86.1829 165.657 86.0036 165.594 85.8242 165.53L85.4386 165.399L85.4373 165.399V165.399L84.8835 165.186V165.186L84.2233 164.939L84.2221 164.938L83.7277 164.732C83.6551 164.703 83.5823 164.674 83.5097 164.644L83.0081 164.443L83.0071 164.443L82.4415 164.195L81.7813 163.912L81.78 163.912L81.4226 163.74C81.2733 163.672 81.124 163.603 80.9746 163.533L80.5547 163.346L80.5533 163.345V163.345L79.9872 163.062V163.062L79.3276 162.744L79.3266 162.743L78.7607 162.449V162.449L78.1005 162.107L78.1 162.106L77.5341 161.8H77.534L76.8934 161.45H76.893L76.8849 161.445L76.8801 161.443L76.764 161.379H76.7693L76.3155 161.12H76.3151L76.3069 161.115L76.2992 161.111L76.1918 161.049H76.1937L75.6586 160.738L75.1009 160.412H75.1006L75.0922 160.407L75.0861 160.404L74.9798 160.341H74.9827L74.4433 160.018L73.8861 159.669H73.8858L73.8772 159.664L73.847 159.645L73.773 159.598H73.7735L73.559 159.463L73.5557 159.461L73.5528 159.458L73.5443 159.45L73.5301 159.441L73.4888 159.417L73.4883 159.416L73.4031 159.363H73.4024L73.3938 159.357L73.2641 159.274L73.2635 159.274L73.2458 159.262L73.228 159.25L73.0865 159.156V159.156L72.8866 159.027L72.8862 159.026L72.8771 159.02L72.7863 158.962H72.7889L72.7259 158.92C72.6785 158.889 72.6312 158.857 72.5839 158.826L72.3444 158.673L72.3439 158.673L72.0256 158.46L72.0226 158.458L72.0105 158.446L71.8542 158.34C71.7642 158.28 71.6743 158.219 71.5844 158.158L71.2561 157.935H71.2559L71.2469 157.929L71.234 157.92L71.1518 157.865H71.1528L70.8343 157.646V157.646L70.8083 157.629H70.8076L70.7983 157.622L70.7023 157.558H70.71L70.4358 157.359C70.2103 157.199 69.9852 157.038 69.7607 156.875L69.644 156.797L69.6432 156.797L69.6425 156.796L69.2771 156.525L69.277 156.525L68.7109 156.1V156.1L68.4641 155.924L68.4634 155.923L68.4627 155.923L68.1207 155.652V155.652L67.5082 155.18L67.5072 155.18L67.4034 155.094C67.2379 154.964 67.0725 154.833 66.9076 154.701L66.8712 154.673L66.8708 154.673L66.2107 154.142L66.1517 154.095L66.1513 154.094L66.0732 154.032H66.0757L65.5382 153.587L65.5379 153.587L65.0075 153.139H65.0074L64.8542 153.009L64.8537 153.009L64.5069 152.703C64.3668 152.582 64.2269 152.46 64.0873 152.337L63.8876 152.172L63.887 152.171L63.8862 152.171L63.5011 151.817C63.4134 151.738 63.3258 151.659 63.2385 151.58L62.7783 151.169L62.7181 151.108V151.108L62.5048 150.909C62.1242 150.556 61.7462 150.199 61.3711 149.838L61.2686 149.741L61.2681 149.74L61.1355 149.61C60.7058 149.193 60.2799 148.77 59.8579 148.341L59.5579 148.041L59.0392 147.499L58.5427 146.979H58.5425L58.532 146.968L58.2963 146.72L58.2959 146.72L57.554 145.907L57.5188 145.872L57.518 145.871L57.5174 145.87L57.1792 145.486C57.0003 145.286 56.8223 145.084 56.6453 144.882L56.5271 144.75L56.5267 144.749L56.0905 144.242L56.0903 144.242L56.0507 144.196C55.92 144.043 55.7898 143.889 55.6601 143.735L55.5597 143.617L55.5103 143.559H55.5104L55.3594 143.381L55.3591 143.381L54.6506 142.521H54.6483L54.6378 142.505L54.614 142.47L54.6052 142.456L54.6093 142.441L54.7508 141.91L54.8334 141.58L54.8924 141.367L54.8926 141.367L55.0577 140.813L55.0578 140.812L55.2314 140.268L55.2348 140.257V140.257L55.2388 140.245L55.3848 139.797H55.3843L55.3845 139.796H55.3843L55.3999 139.75L55.4206 139.688L55.4234 139.679V139.679L55.612 139.113L55.6124 139.112L55.8245 138.523L56.06 137.934L56.0713 137.889L56.0718 137.887L56.0728 137.884L56.2968 137.342L56.4617 136.929L56.462 136.928L56.4661 136.93H56.4662L56.4621 136.928L56.5445 136.74L56.804 136.138L56.8746 135.973L56.8752 135.972L57.0873 135.524L57.0893 135.52L57.3004 135.055H57.2979L57.3235 135.004L57.355 134.941L57.3706 134.91L57.3805 134.89L57.8094 134.032L57.9837 133.683L57.984 133.683L58.3143 133.057L58.3411 133.007L58.3742 133.053L58.3743 133.054H58.3744L58.3771 133.057L59.0665 134.028L59.0696 134.032H59.0695L59.0696 134.032L59.7764 134.998L60.1772 135.517L60.1773 135.517L60.5088 135.952L60.5193 135.966H60.5192L61.2732 136.92L62.0511 137.875L62.8403 138.818L63.3124 139.352L63.5946 139.667L63.5954 139.668L63.6544 139.738L63.6553 139.74L64.4786 140.657L65.3268 141.565H65.3269L65.645 141.895L66.1637 142.425L66.166 142.428L66.1678 142.431L66.1895 142.463L67.0706 143.333L67.3181 143.569L67.3184 143.569L67.9663 144.193L67.9737 144.2L68.867 145.024L68.8738 145.03H68.8736L69.793 145.856L69.7942 145.857L69.8751 145.918H69.864L70.7235 146.669L71.6568 147.439L71.6664 147.447L72.6214 148.213H72.6213L73.5778 148.949H73.5785L73.5882 148.956L73.5949 148.962L74.5528 149.686L75.1306 150.087L75.1314 150.088H75.1313L75.5313 150.382L76.5098 151.054H76.5097L77.4882 151.714H77.4881L78.4771 152.339H78.4773L79.4671 152.952L79.7019 153.081L79.703 153.081H79.7029L79.8223 153.147H79.8135L80.4565 153.529H80.4566L81.3645 154.036L81.3648 154.036L81.4473 154.084H81.4472L82.436 154.614L83.108 154.956L83.1087 154.956L83.4103 155.118L83.4149 155.121H83.4148L84.392 155.592L85.3581 156.04L86.324 156.464L86.3346 156.468L87.2877 156.852L87.2901 156.853H87.2902L88.2333 157.218H88.2332L88.4214 157.287L89.1746 157.56H89.1747L90.1052 157.866L91.0123 158.137H91.0124L91.9077 158.385L91.9133 158.386L91.9547 158.397H91.9548L92.7906 158.609L93.6631 158.797H93.663L94.5073 158.962L94.51 158.962L95.3346 159.092L96.0183 159.186L96.0199 159.186L96.0198 159.186H96.0199L96.1489 159.21L96.924 159.292L97.6904 159.351H97.6903L97.7204 159.352L98.4321 159.386H98.432L99.1436 159.398H99.1488L99.8446 159.386H99.8494L100.502 159.351L101.149 159.292L101.749 159.21V159.21L102.076 159.156L102.325 159.116L102.878 158.998L103.397 158.868L103.399 158.868L103.901 158.716L104.269 158.593L104.361 158.563L104.806 158.387L105.231 158.198L105.628 157.999L106.005 157.787L106.356 157.565L106.534 157.438L106.686 157.329L106.741 157.285L106.783 157.251H106.778L106.862 157.188L107.002 157.083L107.002 157.083L107.296 156.825L107.578 156.554L107.58 156.552L107.848 156.272L108.107 155.978L108.353 155.661L108.588 155.332L108.81 154.981L109.022 154.616L109.221 154.218L109.397 153.807L109.574 153.36L109.739 152.888V152.888L109.88 152.395L110.02 151.878L110.039 151.779L110.126 151.324L110.185 150.971L110.185 150.97L110.232 150.735L110.303 150.124L110.303 150.12L110.362 149.489L110.409 148.83L110.421 148.147L110.409 147.428L110.385 146.687L110.385 146.685H110.385L110.329 145.988H110.326V145.956L110.326 145.954V145.932L110.302 145.696L110.244 145.144L110.243 145.139L110.209 144.909L110.139 144.347L110.138 144.343L110.136 144.331L109.997 143.507L109.832 142.658L109.644 141.8L109.644 141.799L109.608 141.669L109.608 141.669L109.42 140.914L109.415 140.898L109.174 140.014L109.172 140.006V140.006L108.902 139.101L108.901 139.1L108.642 138.322L108.642 138.321L108.595 138.169L108.262 137.261H108.26L108.253 137.237L107.9 136.283L107.771 135.989L107.77 135.988L107.513 135.332L107.511 135.328V135.328L107.087 134.362L107.087 134.362L106.64 133.384L106.64 133.384L106.19 132.461H106.186L106.178 132.436L106.167 132.403L105.674 131.429L105.568 131.252L105.568 131.251L105.567 131.25L105.143 130.438L104.92 130.049L104.919 130.048L104.924 130.046L104.919 130.048L104.59 129.448L104.565 129.407L104 128.469V128.469L103.989 128.451L103.516 127.684H103.515L103.505 127.667L103.472 127.614H103.475L103.4 127.479L102.765 126.492L102.756 126.483L102.753 126.48L102.752 126.477L102.103 125.511L101.432 124.532L101.114 124.096L101.113 124.096L100.728 123.559L100.724 123.553V123.553L100.241 122.905L100.241 122.905L100.006 122.587L99.2517 121.621V121.621L98.4959 120.679H98.4958L98.4922 120.674L98.4856 120.666L97.7081 119.723L97.7058 119.72L97.4362 119.417H97.4354L97.4248 119.404L97.4211 119.4L97.3733 119.346H97.3756L96.9106 118.796L96.9063 118.791V118.791L96.9023 118.787L96.0819 117.872V117.872L95.3745 117.106L95.3734 117.104L95.2438 116.951H95.2437L94.3847 116.056V116.056L94.3027 115.974L94.3024 115.974L93.5131 115.173L92.6339 114.317L92.629 114.312L92.0395 113.746L91.7339 113.452L90.8599 112.671H90.8587L90.8484 112.66L90.8135 112.625L89.8834 111.801L89.8784 111.797L88.9528 111.011L88.9527 111.011V111.011L88.9405 111.001L88.0007 110.235L87.998 110.233V110.233L87.9978 110.233V110.233L87.0439 109.479L86.0771 108.748L86.0674 108.741L85.1105 108.029V108.028L84.2746 107.451L84.2734 107.451L84.136 107.347L84.1328 107.345L84.0859 107.312L84.0878 107.311L84.1364 107.285L84.7495 106.955L84.7501 106.954L85.3749 106.636L85.7128 106.467H85.686L85.8478 106.399L85.849 106.399L85.9893 106.34L86.602 106.046L86.6027 106.046L87.2039 105.774L87.8052 105.503L87.8063 105.503L88.4045 105.256L88.4076 105.255L88.9968 105.007L88.9978 105.007L89.5754 104.783L89.576 104.783L89.9668 104.639H89.9368L90.1513 104.571L90.1537 104.57L90.1544 104.57L90.7321 104.37L90.7331 104.369L91.2989 104.192L91.8529 104.016L91.8542 104.015L92.4083 103.862L92.9505 103.709L92.9513 103.708L92.9517 103.708L93.4582 103.579L93.4625 103.578H93.4777ZM101.751 133.058L102.081 133.683L102.081 133.683L102.4 134.308L102.4 134.308L102.4 134.309L102.695 134.922L102.695 134.923L102.975 135.53L102.982 135.537L103.043 135.598H103.013L103.261 136.137L103.261 136.138L103.521 136.74L103.78 137.341L103.78 137.342L104.007 137.921H104.011L104.017 137.945L104.24 138.522L104.241 138.523L104.453 139.112L104.453 139.113H104.453V139.113H104.453L104.456 139.122L104.653 139.691L104.654 139.691L104.842 140.257L104.878 140.363L104.878 140.364L105.015 140.798L105.019 140.811L105.019 140.812L105.02 140.813L105.173 141.367L105.22 141.52L105.22 141.521L105.326 141.91L105.326 141.911L105.45 142.431C105.461 142.441 105.465 142.456 105.46 142.469L105.46 142.47L105.458 142.472C105.457 142.475 105.456 142.477 105.454 142.479C105.447 142.487 105.44 142.496 105.433 142.504L105.285 142.696L105.284 142.697L104.926 143.125C104.238 143.958 103.531 144.78 102.806 145.587L102.713 145.693L102.712 145.694L102.711 145.693H102.711L102.712 145.694L102.683 145.725C102.116 146.354 101.538 146.975 100.951 147.587L100.79 147.758L100.79 147.759L100.666 147.882C99.3964 149.192 98.0815 150.46 96.7279 151.679L96.7259 151.683L96.7207 151.688L96.5507 151.838C96.3342 152.032 96.1166 152.225 95.8982 152.416L95.8014 152.501L95.8015 152.501L95.7395 152.557H95.7502L95.6719 152.619L95.6617 152.628H95.6602L95.602 152.674C95.3715 152.874 95.1398 153.072 94.9072 153.27L94.7161 153.434L94.7153 153.434L94.714 153.433L94.7152 153.434L94.6532 153.484C94.2783 153.799 93.9008 154.11 93.5209 154.418L93.5145 154.423L93.5002 154.436L93.5001 154.436V154.436L93.4815 154.432L93.4812 154.431V154.432L93.4658 154.427L92.9549 154.291L92.9512 154.29L92.9511 154.29V154.29L92.4087 154.149L92.4082 154.148V154.148L91.8542 153.995L91.8529 153.995L91.2987 153.818L91.2982 153.818L90.9211 153.692L90.7326 153.629V153.629L90.155 153.44L90.1537 153.44L89.5761 153.227L89.5756 153.227L88.9862 153.003L88.985 153.003L88.4021 152.758L88.3959 152.755L88.084 152.628H88.0834L88.0771 152.625L88.0768 152.625L87.8079 152.508L87.806 152.508V152.507L87.8056 152.507V152.507L87.2113 152.251H87.2108L87.2044 152.248L87.2035 152.248L86.5906 151.965L86.5904 151.964L86.59 151.964V151.964L86.5861 151.962L86.0198 151.697H86.0171L86.0107 151.692L86.0102 151.692L86.008 151.691L85.9903 151.679L85.9747 151.668L85.364 151.375L85.363 151.374L84.7498 151.056L84.1369 150.737L84.118 150.727L84.1178 150.706L84.1177 150.694L84.1176 150.676L84.1326 150.665L85.2805 149.845H85.2792L85.3483 149.796L85.3704 149.781L86.5727 148.887L86.6078 148.861L86.6102 148.859L86.6109 148.859L87.8328 147.907L89.0466 146.916L90.2372 145.891L91.4149 144.842L91.6859 144.583L91.686 144.583L91.6871 144.584L91.6861 144.583L92.5584 143.757L92.745 143.571H92.7434L92.7979 143.517L92.8053 143.51L92.8156 143.5H92.8162L93.6547 142.683L93.6898 142.649L94.3623 141.955H94.3621L94.4202 141.895L94.4303 141.884H94.4306L94.7974 141.506L94.9384 141.353L95.4451 140.799L95.4455 140.798L95.8701 140.35L96.9179 139.172L96.9767 139.102L96.9772 139.101L97.4841 138.511L97.4842 138.511L97.9341 137.992H97.9322L97.9784 137.935L97.9883 137.921H97.989L98.4618 137.333L98.4622 137.333L98.9335 136.767L98.9552 136.734L98.9559 136.733L98.9568 136.732L99.4284 136.13L99.8548 135.583L99.8881 135.541L100.807 134.304L101.691 133.054L101.724 133.007L101.751 133.058ZM55.3234 90.5832C59.7109 89.5812 64.8574 89.8016 70.4179 91.2735L70.5289 91.3001H70.518C71.8933 91.6676 73.2938 92.1113 74.7141 92.632L74.9936 92.7354L74.9999 92.7385C75.0054 92.742 75.0097 92.7469 75.0125 92.7525L75.053 92.7672L75.0048 92.7945C75.0009 92.798 74.9963 92.8006 74.9913 92.8021L74.9863 92.8051L73.9871 93.3734L73.7783 93.4924L72.5821 94.2079L72.5822 94.208L71.903 94.6209L71.0029 95.1863L71.0031 95.1865L70.5433 95.4813L70.5432 95.4812L70.0592 95.7925L69.5634 96.1249L69.082 96.448L69.0819 96.4478L68.1887 97.0711L68.1796 97.0804L68.1774 97.0826L68.175 97.0842L67.5084 97.5555L67.3848 97.6451H67.387L67.3594 97.6634L66.7489 98.1058L66.6312 98.1925L66.419 98.3529H66.424L66.338 98.4152L66.3381 98.4154L66.3282 98.4236H66.3268L66.2912 98.4493L66.0912 98.6005V98.6104L66.0719 98.6202L66.0519 98.63L65.9984 98.6705L65.9535 98.7066H65.9722L65.877 98.7701L65.8682 98.7774H65.8662L65.8485 98.7892L65.7874 98.83L65.5936 98.9763L65.5489 99.0161L65.5367 99.0269L65.5312 99.0261L65.5178 99.0329L65.5081 99.0378L65.4975 99.0364L65.4974 99.0363V99.0364L65.4428 99.0296L65.4031 99.0247L65.4022 99.0246L65.4012 99.0244L64.8726 98.9305L64.872 98.9304V98.9302L64.5715 98.889L64.2716 98.8478V98.8479L63.6703 98.7772V98.7771L63.0836 98.7184H63.0834L63.082 98.7183L62.5188 98.6714H62.5179L62.5168 98.6713L62.2424 98.654L61.9509 98.6358V98.6357L61.41 98.624H61.1034L61.1025 98.6239L60.8816 98.6123L60.7781 98.6238L60.7761 98.624H60.3631L59.8571 98.6474L59.8572 98.6475L59.3618 98.6831L59.3606 98.6832H59.3595L58.8918 98.7299L58.4335 98.7886L58.4336 98.7887L57.9975 98.8594L57.9976 98.8595L57.5751 98.9298L57.5752 98.9299L57.2097 99.0132L57.1626 99.0241L56.7741 99.1184L56.4048 99.2222L56.3981 99.224L56.3982 99.2241L56.2125 99.278L56.0329 99.3302L55.6939 99.447L55.694 99.4471L55.3652 99.5762L55.3653 99.5763L55.0469 99.7178L54.741 99.8591L54.448 100.011L54.4482 100.011L54.166 100.164L53.8964 100.328L53.6378 100.505L53.6371 100.505L53.3945 100.679L53.3923 100.68L53.3924 100.68L53.191 100.841L52.9214 101.057L52.5004 101.455L52.4993 101.456L52.4992 101.456L52.1005 101.878L51.7237 102.35L51.548 102.596L51.3729 102.852L51.2911 103.005L51.2907 103.005L51.2902 103.006L51.2239 103.116L51.2199 103.123L51.2196 103.124L51.0554 103.405L50.903 103.698L50.8536 103.813H50.8569L50.8335 103.861L50.8325 103.863L50.8321 103.864L50.8316 103.865L50.7616 104.005L50.6325 104.322L50.6326 104.322L50.5035 104.65L50.476 104.733L50.4683 104.756L50.4681 104.756V104.756L50.4677 104.758L50.3737 105.004L50.2681 105.368L50.2682 105.368H50.2681L50.2682 105.368L50.2627 105.388L50.1857 105.663V105.663L50.1621 105.745L50.1622 105.745L50.0563 106.133L49.9825 106.502H49.9842L49.9755 106.538L49.9741 106.544L49.9742 106.544L49.8939 106.968L49.8916 106.98L49.8212 107.428L49.8151 107.488L49.8097 107.544L49.8065 107.575H49.8051L49.7622 107.875L49.7153 108.356L49.7155 108.356L49.7153 108.357L49.7155 108.507V108.509L49.7153 108.51L49.6917 108.839L49.6918 108.839L49.6683 109.346L49.6682 109.347L49.6565 109.864V110.394L49.6683 110.948L49.7016 111.468H49.7036V111.5L49.7443 112.002L49.7507 112.077L49.7978 112.549V112.549L49.8089 112.66L49.8096 112.667L49.8801 113.255L49.9743 113.868L50.0804 114.493L50.0829 114.508L50.074 114.52L49.9444 114.696L49.944 114.697L49.212 115.661L49.2017 115.675L48.3647 116.831L48.3646 116.831L47.5526 117.996L47.5442 118.013H47.5413L46.9151 118.941L46.9148 118.942L46.7534 119.172L46.7501 119.177L46.7408 119.191L46.2671 119.931L46.2668 119.932L46.2667 119.932L45.9846 120.355L45.9847 120.355L45.6308 120.933L45.6306 120.934L45.2422 121.546L45.2423 121.546L45.2386 121.552L45.0184 121.935L45.0182 121.935L44.5391 122.741L44.535 122.748L44.4291 122.937V122.937L44.0282 123.645L44.0281 123.645L43.8574 123.941C43.8558 123.948 43.852 123.955 43.8464 123.96L43.8142 124.016L43.7876 123.946L43.6697 123.64L43.6693 123.639L43.422 122.932L43.3512 122.743L43.3508 122.742L43.0797 121.928L43.0794 121.927L43.0049 121.681C42.9715 121.577 42.9385 121.473 42.906 121.369L42.7612 120.926L42.7609 120.924L42.5958 120.346V120.346L42.4779 119.922L42.2657 119.167L42.2653 119.166V119.166L42.2065 118.93L42.2063 118.929L41.9826 117.986L41.9707 117.939L41.9703 117.938L41.7346 116.841L41.7339 116.838V116.813L41.7265 116.775C41.6757 116.519 41.6277 116.265 41.5824 116.011L41.5344 115.757L41.5109 115.663L41.5105 115.661L41.5103 115.66L41.357 114.681L41.3568 114.68L41.3567 114.678L41.3461 114.521C41.32 114.332 41.2955 114.143 41.2726 113.954L41.2626 113.878L41.2313 113.638H41.2303L41.227 113.606L41.2266 113.602L41.222 113.567H41.223L41.1917 113.264V113.264L41.136 112.706H41.1357L41.1325 112.674L41.1242 112.588H41.1224L41.1208 112.554L41.1207 112.553L41.1173 112.517H41.1189L41.1018 112.176C41.0878 111.976 41.0758 111.776 41.0657 111.578L41.0626 111.53L41 111.468H41.0493L41.0383 110.95L41.0265 110.502L41.0264 110.501H41.0265V110.319C41.0242 110.106 41.0242 109.893 41.0265 109.681V109.344L41.0266 109.343L41.0267 109.341L41.04 109.053C41.0452 108.894 41.0514 108.736 41.0592 108.579L41.0618 108.507L41.0617 108.354V108.353L41.0618 108.352L41.0973 107.868L41.1182 107.575H41.1172L41.1206 107.541L41.1209 107.538L41.121 107.537L41.1327 107.419V107.419L41.1799 106.97V106.97L41.2269 106.582V106.535L41.2275 106.532L41.2825 106.21C41.2915 106.147 41.3007 106.083 41.3102 106.02L41.3404 105.771H41.3394L41.3452 105.731L41.3453 105.731L41.3569 105.648L41.357 105.647L41.3573 105.646L41.4162 105.351L41.4869 104.986L41.5341 104.738L41.5343 104.737L41.5577 104.632L41.6285 104.301L41.6286 104.301L41.6898 104.026H41.6882L41.6993 103.982L41.7349 103.84L41.7352 103.839L41.7823 103.674L41.8036 103.598C41.8325 103.488 41.8619 103.378 41.8924 103.269L41.9244 103.141H41.9219L41.9356 103.095L41.942 103.07H41.9432L41.9712 102.978V102.977L42.0042 102.87H42.0039L42.0168 102.829L42.0183 102.824L42.0259 102.799H42.0264L42.101 102.564L42.1011 102.564L42.126 102.489C42.1471 102.423 42.1687 102.358 42.1904 102.292L42.2303 102.153L42.2306 102.152L42.231 102.151L42.337 101.844L42.3374 101.843L42.3449 101.846L42.3375 101.843L42.502 101.42L42.5256 101.349L42.5261 101.348L42.5266 101.346L42.5952 101.186C42.6556 101.035 42.7174 100.886 42.7812 100.737L42.8205 100.641L42.844 100.571L42.845 100.568L42.8467 100.565L42.898 100.472C42.9032 100.46 42.9086 100.448 42.9139 100.437L42.955 100.334H42.9498L42.9755 100.283L42.9832 100.263H42.9853L43.0575 100.119L43.1282 99.9656V99.9655L43.1758 99.8624H43.1692L43.2004 99.8092L43.2762 99.6794C43.2931 99.6461 43.31 99.6127 43.3271 99.5796L43.3527 99.5282L43.3625 99.5086H43.3635L43.3803 99.4775C43.4026 99.4349 43.4251 99.3923 43.4477 99.3499L43.4824 99.2805L43.4825 99.2804L43.4922 99.261H43.4933L43.5414 99.1743L43.5886 99.08L43.5912 99.075L43.5951 99.071L43.6038 99.062L43.6087 99.0545C43.638 99.0019 43.6676 98.9496 43.6974 98.8974L43.7064 98.8796L43.7065 98.8795L43.7074 98.8776L43.7086 98.8757L43.7087 98.8756L43.7172 98.8626C43.7313 98.838 43.7459 98.8137 43.7601 98.7892H43.7579L43.7902 98.7355L43.7989 98.7184H43.8005L43.8179 98.6897L43.8218 98.6832H43.8136L43.8482 98.631L43.8488 98.6299L43.85 98.628L43.8703 98.5977L43.8729 98.5939L43.8834 98.5728L43.8913 98.557V98.5416H43.8914V98.5415H43.9062L43.9725 98.4236H43.9701L44.0024 98.3699L44.0052 98.3651L44.0121 98.3529H44.0126L44.0379 98.311L44.0387 98.3097L44.4307 97.7159H44.4228L44.4618 97.6628L44.4707 97.6452H44.4708L44.4709 97.6451H44.4749L44.924 97.0344L44.9255 97.0324L44.9274 97.0304L44.9387 97.0191L44.9855 96.96C45.0833 96.8327 45.183 96.7068 45.2844 96.5825L45.4317 96.3966L45.433 96.3951L45.5838 96.2258C45.6895 96.1033 45.7972 95.9825 45.9066 95.8631L46.0106 95.7464L46.0113 95.7457L46.0121 95.745L46.0788 95.6781C46.1846 95.5662 46.292 95.4554 46.4011 95.3463C46.4411 95.3063 46.4814 95.2665 46.5217 95.227L46.6129 95.1322L46.6137 95.1313L46.6146 95.1305L46.7572 95.001C46.8969 94.8695 47.0388 94.7404 47.1828 94.614H47.1773L47.2479 94.5552H47.2472L47.3041 94.5083C47.483 94.3542 47.6654 94.2042 47.8507 94.0579L47.9246 93.9972L47.9252 93.9965L47.926 93.996L48.0108 93.9332C48.6413 93.448 49.3077 93.007 50.0075 92.6104L50.1219 92.5433L50.1228 92.5427L50.1237 92.5423L50.1941 92.506C50.4208 92.3811 50.6509 92.2608 50.8844 92.1451L50.913 92.1297L50.9139 92.1293L50.9149 92.1289L50.9528 92.1113C51.1922 91.9939 51.4352 91.8813 51.6815 91.7734L51.7282 91.7517L51.7292 91.7512L51.7301 91.7509L51.7638 91.7373C52.125 91.5812 52.4936 91.4357 52.8691 91.3001H52.8578L53.0412 91.2388C53.3892 91.1169 53.7431 91.0037 54.1027 90.8992H54.0738L54.3102 90.84C54.6115 90.7558 54.9167 90.6776 55.2257 90.6055L55.2711 90.5936L55.2723 90.5933L55.2732 90.593L55.3234 90.5832Z" fill="black"/>
<path d="M151.605 149V109.24H166.501C171.354 109.24 175.031 110.099 177.533 111.816C180.071 113.533 181.341 116.259 181.341 119.992C181.341 121.672 180.986 123.147 180.277 124.416C179.605 125.648 178.597 126.619 177.253 127.328C175.946 128.037 174.359 128.429 172.493 128.504L172.437 128.392C175.834 128.504 178.447 129.437 180.277 131.192C182.106 132.909 183.021 135.205 183.021 138.08C183.021 141.739 181.751 144.483 179.213 146.312C176.711 148.104 173.146 149 168.517 149H151.605ZM158.885 142.84H168.181C170.458 142.84 172.25 142.373 173.557 141.44C174.901 140.507 175.573 139.125 175.573 137.296C175.573 135.467 174.919 134.067 173.613 133.096C172.306 132.125 170.495 131.64 168.181 131.64H158.885V142.84ZM158.885 125.928H166.277C168.666 125.928 170.533 125.48 171.877 124.584C173.221 123.688 173.893 122.381 173.893 120.664C173.893 118.872 173.239 117.547 171.933 116.688C170.626 115.829 168.741 115.4 166.277 115.4H158.885V125.928ZM187.755 149V119.096H194.475L194.755 127.384L194.139 127.272C194.587 124.397 195.427 122.325 196.659 121.056C197.929 119.749 199.646 119.096 201.811 119.096H204.555V125.256H201.755C200.225 125.256 198.955 125.48 197.947 125.928C196.939 126.376 196.174 127.085 195.651 128.056C195.166 128.989 194.923 130.221 194.923 131.752V149H187.755ZM219.739 149.672C216.79 149.672 214.195 149.037 211.955 147.768C209.752 146.461 208.035 144.632 206.803 142.28C205.608 139.928 205.011 137.184 205.011 134.048C205.011 130.875 205.608 128.131 206.803 125.816C208.035 123.464 209.752 121.653 211.955 120.384C214.195 119.077 216.79 118.424 219.739 118.424C222.688 118.424 225.264 119.077 227.467 120.384C229.67 121.653 231.368 123.464 232.563 125.816C233.795 128.131 234.411 130.875 234.411 134.048C234.411 137.184 233.795 139.928 232.563 142.28C231.368 144.632 229.67 146.461 227.467 147.768C225.264 149.037 222.688 149.672 219.739 149.672ZM219.739 143.848C222.054 143.848 223.827 142.989 225.059 141.272C226.328 139.555 226.963 137.147 226.963 134.048C226.963 130.987 226.328 128.597 225.059 126.88C223.827 125.125 222.054 124.248 219.739 124.248C217.424 124.248 215.632 125.125 214.363 126.88C213.094 128.597 212.459 130.987 212.459 134.048C212.459 137.147 213.094 139.555 214.363 141.272C215.632 142.989 217.424 143.848 219.739 143.848ZM243.495 149L234.479 119.096H241.815L247.639 140.88L253.631 119.096H259.903L265.951 140.88L271.775 119.096H279.111L270.095 149H262.703L256.767 128.952L250.887 149H243.495ZM293.086 149.672C290.137 149.672 287.654 149.243 285.638 148.384C283.659 147.525 282.129 146.331 281.046 144.8C279.963 143.269 279.347 141.533 279.198 139.592L286.534 139.256C286.795 140.824 287.449 142.037 288.494 142.896C289.539 143.755 291.089 144.184 293.142 144.184C294.822 144.184 296.129 143.923 297.062 143.4C298.033 142.84 298.518 141.981 298.518 140.824C298.518 140.152 298.35 139.592 298.014 139.144C297.678 138.696 297.043 138.304 296.11 137.968C295.177 137.632 293.795 137.296 291.966 136.96C288.905 136.437 286.497 135.803 284.742 135.056C282.987 134.272 281.737 133.301 280.99 132.144C280.281 130.987 279.926 129.549 279.926 127.832C279.926 125.032 280.99 122.773 283.118 121.056C285.283 119.301 288.438 118.424 292.582 118.424C295.27 118.424 297.529 118.872 299.358 119.768C301.187 120.627 302.606 121.821 303.614 123.352C304.659 124.845 305.313 126.563 305.574 128.504L298.35 128.84C298.163 127.832 297.827 126.955 297.342 126.208C296.857 125.461 296.203 124.901 295.382 124.528C294.561 124.117 293.59 123.912 292.47 123.912C290.79 123.912 289.521 124.248 288.662 124.92C287.803 125.592 287.374 126.488 287.374 127.608C287.374 128.392 287.561 129.045 287.934 129.568C288.345 130.091 288.998 130.52 289.894 130.856C290.79 131.155 291.985 131.435 293.478 131.696C296.614 132.181 299.078 132.816 300.87 133.6C302.699 134.347 303.987 135.317 304.734 136.512C305.518 137.669 305.91 139.069 305.91 140.712C305.91 142.616 305.369 144.24 304.286 145.584C303.241 146.928 301.747 147.955 299.806 148.664C297.902 149.336 295.662 149.672 293.086 149.672ZM322.76 149.672C319.774 149.672 317.179 149.037 314.976 147.768C312.774 146.461 311.075 144.632 309.88 142.28C308.686 139.928 308.088 137.184 308.088 134.048C308.088 130.912 308.686 128.187 309.88 125.872C311.075 123.52 312.755 121.691 314.92 120.384C317.123 119.077 319.68 118.424 322.592 118.424C325.43 118.424 327.912 119.059 330.04 120.328C332.206 121.597 333.867 123.427 335.024 125.816C336.182 128.205 336.76 131.08 336.76 134.44V136.064H315.536C315.686 138.677 316.395 140.656 317.664 142C318.971 143.307 320.688 143.96 322.816 143.96C324.422 143.96 325.747 143.605 326.792 142.896C327.875 142.149 328.622 141.123 329.032 139.816L336.368 140.264C335.547 143.176 333.923 145.472 331.496 147.152C329.107 148.832 326.195 149.672 322.76 149.672ZM315.536 131.248H329.368C329.219 128.821 328.528 127.029 327.296 125.872C326.064 124.677 324.496 124.08 322.592 124.08C320.688 124.08 319.102 124.696 317.832 125.928C316.6 127.16 315.835 128.933 315.536 131.248ZM340.683 149V119.096H347.403L347.683 127.384L347.067 127.272C347.515 124.397 348.355 122.325 349.587 121.056C350.857 119.749 352.574 119.096 354.739 119.096H357.483V125.256H354.683C353.153 125.256 351.883 125.48 350.875 125.928C349.867 126.376 349.102 127.085 348.579 128.056C348.094 128.989 347.851 130.221 347.851 131.752V149H340.683ZM389.096 149.896C385.885 149.896 383.066 149.28 380.64 148.048C378.25 146.816 376.402 145.08 375.096 142.84C373.826 140.563 373.192 137.875 373.192 134.776V109.184H380.472V134.776C380.472 137.576 381.218 139.741 382.712 141.272C384.205 142.803 386.333 143.568 389.096 143.568C391.858 143.568 393.986 142.803 395.48 141.272C397.01 139.741 397.776 137.576 397.776 134.776V109.184H405.056V134.776C405.056 137.875 404.402 140.563 403.096 142.84C401.789 145.08 399.941 146.816 397.552 148.048C395.2 149.28 392.381 149.896 389.096 149.896ZM423.1 149.672C420.151 149.672 417.668 149.243 415.652 148.384C413.673 147.525 412.143 146.331 411.06 144.8C409.977 143.269 409.361 141.533 409.212 139.592L416.548 139.256C416.809 140.824 417.463 142.037 418.508 142.896C419.553 143.755 421.103 144.184 423.156 144.184C424.836 144.184 426.143 143.923 427.076 143.4C428.047 142.84 428.532 141.981 428.532 140.824C428.532 140.152 428.364 139.592 428.028 139.144C427.692 138.696 427.057 138.304 426.124 137.968C425.191 137.632 423.809 137.296 421.98 136.96C418.919 136.437 416.511 135.803 414.756 135.056C413.001 134.272 411.751 133.301 411.004 132.144C410.295 130.987 409.94 129.549 409.94 127.832C409.94 125.032 411.004 122.773 413.132 121.056C415.297 119.301 418.452 118.424 422.596 118.424C425.284 118.424 427.543 118.872 429.372 119.768C431.201 120.627 432.62 121.821 433.628 123.352C434.673 124.845 435.327 126.563 435.588 128.504L428.364 128.84C428.177 127.832 427.841 126.955 427.356 126.208C426.871 125.461 426.217 124.901 425.396 124.528C424.575 124.117 423.604 123.912 422.484 123.912C420.804 123.912 419.535 124.248 418.676 124.92C417.817 125.592 417.388 126.488 417.388 127.608C417.388 128.392 417.575 129.045 417.948 129.568C418.359 130.091 419.012 130.52 419.908 130.856C420.804 131.155 421.999 131.435 423.492 131.696C426.628 132.181 429.092 132.816 430.884 133.6C432.713 134.347 434.001 135.317 434.748 136.512C435.532 137.669 435.924 139.069 435.924 140.712C435.924 142.616 435.383 144.24 434.3 145.584C433.255 146.928 431.761 147.955 429.82 148.664C427.916 149.336 425.676 149.672 423.1 149.672ZM452.774 149.672C449.788 149.672 447.193 149.037 444.99 147.768C442.788 146.461 441.089 144.632 439.894 142.28C438.7 139.928 438.102 137.184 438.102 134.048C438.102 130.912 438.7 128.187 439.894 125.872C441.089 123.52 442.769 121.691 444.934 120.384C447.137 119.077 449.694 118.424 452.606 118.424C455.444 118.424 457.926 119.059 460.054 120.328C462.22 121.597 463.881 123.427 465.038 125.816C466.196 128.205 466.774 131.08 466.774 134.44V136.064H445.55C445.7 138.677 446.409 140.656 447.678 142C448.985 143.307 450.702 143.96 452.83 143.96C454.436 143.96 455.761 143.605 456.806 142.896C457.889 142.149 458.636 141.123 459.046 139.816L466.382 140.264C465.561 143.176 463.937 145.472 461.51 147.152C459.121 148.832 456.209 149.672 452.774 149.672ZM445.55 131.248H459.382C459.233 128.821 458.542 127.029 457.31 125.872C456.078 124.677 454.51 124.08 452.606 124.08C450.702 124.08 449.116 124.696 447.846 125.928C446.614 127.16 445.849 128.933 445.55 131.248Z" fill="black"/>
<path d="M501.477 149.896C497.856 149.896 494.739 149.056 492.125 147.376C489.512 145.696 487.496 143.307 486.077 140.208C484.659 137.109 483.949 133.432 483.949 129.176C483.949 124.883 484.659 121.187 486.077 118.088C487.496 114.989 489.512 112.6 492.125 110.92C494.739 109.203 497.856 108.344 501.477 108.344C505.099 108.344 508.216 109.203 510.829 110.92C513.48 112.6 515.496 114.989 516.877 118.088C518.296 121.187 519.005 124.883 519.005 129.176C519.005 133.432 518.296 137.109 516.877 140.208C515.496 143.307 513.48 145.696 510.829 147.376C508.216 149.056 505.099 149.896 501.477 149.896ZM501.477 147.152C504.501 147.152 507.096 146.424 509.261 144.968C511.464 143.512 513.144 141.44 514.301 138.752C515.459 136.064 516.037 132.872 516.037 129.176C516.037 125.443 515.459 122.232 514.301 119.544C513.144 116.856 511.464 114.784 509.261 113.328C507.096 111.835 504.501 111.088 501.477 111.088C498.491 111.088 495.896 111.835 493.693 113.328C491.528 114.784 489.848 116.856 488.653 119.544C487.496 122.232 486.917 125.443 486.917 129.176C486.917 132.872 487.496 136.064 488.653 138.752C489.848 141.44 491.528 143.512 493.693 144.968C495.896 146.424 498.491 147.152 501.477 147.152ZM524.643 157.4V119.32H527.107L527.219 128L526.659 127.664C527.406 124.789 528.713 122.568 530.579 121C532.483 119.432 534.723 118.648 537.299 118.648C539.95 118.648 542.19 119.32 544.019 120.664C545.886 121.971 547.286 123.8 548.219 126.152C549.19 128.467 549.675 131.136 549.675 134.16C549.675 137.184 549.19 139.872 548.219 142.224C547.286 144.539 545.905 146.368 544.075 147.712C542.246 149.019 540.025 149.672 537.411 149.672C535.657 149.672 534.033 149.28 532.539 148.496C531.046 147.675 529.795 146.611 528.787 145.304C527.779 143.997 527.145 142.597 526.883 141.104L527.331 140.432V157.4H524.643ZM537.243 147.04C540.23 147.04 542.582 145.901 544.299 143.624C546.017 141.309 546.875 138.155 546.875 134.16C546.875 130.165 545.998 127.029 544.243 124.752C542.526 122.437 540.174 121.28 537.187 121.28C535.246 121.28 533.529 121.821 532.035 122.904C530.579 123.987 529.422 125.499 528.563 127.44C527.742 129.381 527.331 131.621 527.331 134.16C527.331 136.699 527.742 138.939 528.563 140.88C529.422 142.821 530.598 144.333 532.091 145.416C533.585 146.499 535.302 147.04 537.243 147.04ZM565.936 149.672C563.136 149.672 560.746 149 558.768 147.656C556.826 146.275 555.352 144.408 554.344 142.056C553.336 139.704 552.832 137.072 552.832 134.16C552.832 131.248 553.317 128.635 554.288 126.32C555.296 123.968 556.752 122.101 558.656 120.72C560.597 119.339 562.949 118.648 565.712 118.648C568.474 118.648 570.789 119.32 572.656 120.664C574.56 122.008 575.997 123.837 576.968 126.152C577.976 128.429 578.48 131.024 578.48 133.936V134.832H555.688C555.8 138.677 556.77 141.683 558.6 143.848C560.466 145.976 562.912 147.04 565.936 147.04C568.362 147.04 570.341 146.461 571.872 145.304C573.402 144.109 574.448 142.56 575.008 140.656L577.92 140.88C577.173 143.419 575.754 145.528 573.664 147.208C571.573 148.851 568.997 149.672 565.936 149.672ZM555.688 132.424H575.512C575.362 128.915 574.429 126.189 572.712 124.248C571.032 122.269 568.698 121.28 565.712 121.28C562.874 121.28 560.56 122.269 558.768 124.248C556.976 126.189 555.949 128.915 555.688 132.424ZM583.572 149V119.32H586.092L586.204 127.272L585.812 127.104C586.074 125.237 586.69 123.688 587.66 122.456C588.631 121.187 589.826 120.235 591.244 119.6C592.7 118.965 594.287 118.648 596.004 118.648C598.244 118.648 600.092 119.152 601.548 120.16C603.004 121.168 604.087 122.531 604.796 124.248C605.506 125.928 605.86 127.813 605.86 129.904V149H603.172V131.248C603.172 129.232 602.911 127.477 602.388 125.984C601.866 124.453 601.044 123.277 599.924 122.456C598.804 121.597 597.311 121.168 595.444 121.168C592.644 121.168 590.404 122.083 588.724 123.912C587.082 125.741 586.26 128.187 586.26 131.248V149H583.572ZM639.486 149.896C636.574 149.896 633.998 149.317 631.758 148.16C629.555 146.965 627.8 145.379 626.494 143.4C625.187 141.384 624.496 139.107 624.422 136.568L627.334 136.344C627.446 138.397 628.006 140.245 629.014 141.888C630.022 143.493 631.422 144.781 633.214 145.752C635.043 146.685 637.171 147.152 639.598 147.152C641.651 147.152 643.462 146.835 645.03 146.2C646.635 145.528 647.886 144.595 648.782 143.4C649.715 142.168 650.182 140.675 650.182 138.92C650.182 137.576 649.846 136.363 649.174 135.28C648.539 134.197 647.326 133.208 645.534 132.312C643.779 131.416 641.184 130.557 637.75 129.736C634.8 129.027 632.411 128.243 630.582 127.384C628.752 126.525 627.408 125.443 626.55 124.136C625.691 122.829 625.262 121.168 625.262 119.152C625.262 117.099 625.766 115.269 626.774 113.664C627.819 112.021 629.312 110.733 631.254 109.8C633.195 108.829 635.547 108.344 638.31 108.344C641.222 108.344 643.686 108.923 645.702 110.08C647.718 111.237 649.267 112.768 650.35 114.672C651.432 116.539 652.03 118.555 652.142 120.72L649.174 120.944C649.099 119.115 648.632 117.472 647.774 116.016C646.915 114.523 645.683 113.328 644.078 112.432C642.472 111.536 640.512 111.088 638.198 111.088C635.062 111.088 632.616 111.853 630.862 113.384C629.107 114.877 628.23 116.8 628.23 119.152C628.23 120.608 628.547 121.821 629.182 122.792C629.816 123.725 630.918 124.547 632.486 125.256C634.054 125.928 636.275 126.6 639.15 127.272C642.771 128.131 645.59 129.12 647.606 130.24C649.659 131.323 651.078 132.573 651.862 133.992C652.683 135.411 653.094 137.035 653.094 138.864C653.094 141.141 652.496 143.101 651.302 144.744C650.107 146.387 648.483 147.656 646.43 148.552C644.376 149.448 642.062 149.896 639.486 149.896ZM670.938 149.672C668.325 149.672 666.047 149.037 664.106 147.768C662.165 146.499 660.653 144.707 659.57 142.392C658.525 140.077 658.002 137.333 658.002 134.16C658.002 130.987 658.525 128.243 659.57 125.928C660.653 123.613 662.165 121.821 664.106 120.552C666.047 119.283 668.325 118.648 670.938 118.648C673.551 118.648 675.829 119.283 677.77 120.552C679.711 121.821 681.205 123.613 682.25 125.928C683.333 128.243 683.874 130.987 683.874 134.16C683.874 137.333 683.333 140.077 682.25 142.392C681.205 144.707 679.711 146.499 677.77 147.768C675.829 149.037 673.551 149.672 670.938 149.672ZM670.938 147.04C674.074 147.04 676.538 145.901 678.33 143.624C680.122 141.309 681.018 138.155 681.018 134.16C681.018 130.165 680.122 127.029 678.33 124.752C676.538 122.437 674.074 121.28 670.938 121.28C667.802 121.28 665.338 122.437 663.546 124.752C661.754 127.029 660.858 130.165 660.858 134.16C660.858 138.155 661.754 141.309 663.546 143.624C665.338 145.901 667.802 147.04 670.938 147.04ZM698.706 149.672C695.756 149.672 693.386 148.683 691.594 146.704C689.839 144.688 688.962 141.925 688.962 138.416V119.32H691.65V137.52C691.65 140.731 692.303 143.139 693.61 144.744C694.954 146.349 696.895 147.152 699.434 147.152C702.196 147.152 704.38 146.256 705.986 144.464C707.628 142.635 708.45 140.171 708.45 137.072V119.32H711.138V149H708.674L708.562 141.16L709.01 141.272C708.599 143.923 707.479 145.995 705.65 147.488C703.858 148.944 701.543 149.672 698.706 149.672ZM718.727 149V119.32H721.023L721.303 128L720.687 127.664C721.247 124.864 722.18 122.773 723.487 121.392C724.794 120.011 726.623 119.32 728.975 119.32H731.271V122.008H728.695C727.239 122.008 725.97 122.4 724.887 123.184C723.804 123.931 722.946 124.976 722.311 126.32C721.714 127.627 721.415 129.12 721.415 130.8V149H718.727ZM745.687 149.672C742.887 149.672 740.517 149 738.575 147.656C736.671 146.275 735.215 144.408 734.207 142.056C733.237 139.704 732.751 137.072 732.751 134.16C732.751 131.248 733.237 128.635 734.207 126.32C735.215 123.968 736.671 122.101 738.575 120.72C740.517 119.339 742.887 118.648 745.687 118.648C747.927 118.648 749.869 119.077 751.511 119.936C753.191 120.795 754.554 121.971 755.599 123.464C756.645 124.957 757.391 126.693 757.839 128.672L754.983 128.896C754.423 126.469 753.359 124.603 751.791 123.296C750.223 121.952 748.189 121.28 745.687 121.28C742.589 121.28 740.125 122.437 738.295 124.752C736.503 127.029 735.607 130.165 735.607 134.16C735.607 138.155 736.503 141.309 738.295 143.624C740.125 145.901 742.589 147.04 745.687 147.04C748.189 147.04 750.261 146.331 751.903 144.912C753.546 143.493 754.61 141.477 755.095 138.864L757.951 139.088C757.541 141.141 756.794 142.971 755.711 144.576C754.666 146.144 753.285 147.395 751.567 148.328C749.887 149.224 747.927 149.672 745.687 149.672ZM773.652 149.672C770.852 149.672 768.462 149 766.484 147.656C764.542 146.275 763.068 144.408 762.06 142.056C761.052 139.704 760.548 137.072 760.548 134.16C760.548 131.248 761.033 128.635 762.004 126.32C763.012 123.968 764.468 122.101 766.372 120.72C768.313 119.339 770.665 118.648 773.428 118.648C776.19 118.648 778.505 119.32 780.372 120.664C782.276 122.008 783.713 123.837 784.684 126.152C785.692 128.429 786.196 131.024 786.196 133.936V134.832H763.404C763.516 138.677 764.486 141.683 766.316 143.848C768.182 145.976 770.628 147.04 773.652 147.04C776.078 147.04 778.057 146.461 779.588 145.304C781.118 144.109 782.164 142.56 782.724 140.656L785.636 140.88C784.889 143.419 783.47 145.528 781.38 147.208C779.289 148.851 776.713 149.672 773.652 149.672ZM763.404 132.424H783.228C783.078 128.915 782.145 126.189 780.428 124.248C778.748 122.269 776.414 121.28 773.428 121.28C770.59 121.28 768.276 122.269 766.484 124.248C764.692 126.189 763.665 128.915 763.404 132.424Z" fill="#2563EB"/>
<path d="M32.51 42.92V42.12H39.72V42.92H32.51ZM32.51 38.73V37.93H39.72V38.73H32.51ZM33.62 44.03V36.82H34.42V44.03H33.62ZM37.81 44.03V36.82H38.61V44.03H37.81ZM46.6085 44V43.01H48.3085V37.89H46.6085V36.9H51.0485V37.89H49.3485V43.01H51.0485V44H46.6085ZM54.2246 43.14L53.0046 38.06L53.1146 38.05V44H52.1046V36.9H53.5046L54.8246 42.29H54.4246L55.7446 36.9H57.1446V44H56.1346V38.05L56.2446 38.06L55.0246 43.14H54.2246ZM57.6607 44L59.7407 36.9H61.1007L63.1807 44H62.0907L60.4207 37.99L58.7507 44H57.6607ZM58.8207 42.15L59.1407 41.18H61.7007L62.0207 42.15H58.8207ZM66.2068 44.16C65.6935 44.16 65.2401 44.02 64.8468 43.74C64.4535 43.46 64.1435 43.0467 63.9168 42.5C63.6901 41.9467 63.5768 41.2667 63.5768 40.46C63.5768 39.6933 63.6835 39.0333 63.8968 38.48C64.1101 37.9267 64.4135 37.5 64.8068 37.2C65.2068 36.8933 65.6835 36.74 66.2368 36.74C66.6835 36.74 67.0768 36.8367 67.4168 37.03C67.7568 37.2233 68.0401 37.4967 68.2668 37.85C68.5001 38.2033 68.6668 38.6167 68.7668 39.09L67.6768 39.16C67.5768 38.7267 67.4068 38.38 67.1668 38.12C66.9335 37.86 66.6268 37.73 66.2468 37.73C65.9135 37.73 65.6268 37.8367 65.3868 38.05C65.1535 38.2567 64.9735 38.5633 64.8468 38.97C64.7268 39.3767 64.6668 39.8733 64.6668 40.46C64.6668 41.04 64.7301 41.5333 64.8568 41.94C64.9835 42.34 65.1668 42.6467 65.4068 42.86C65.6535 43.0667 65.9501 43.17 66.2968 43.17C66.6035 43.17 66.8668 43.0933 67.0868 42.94C67.3068 42.78 67.4768 42.56 67.5968 42.28C67.7235 41.9933 67.7935 41.6633 67.8068 41.29H66.2468V40.38H68.7768V44H67.9268L67.8768 42.37L68.1468 42.36C68.0735 42.7 67.9535 43.0067 67.7868 43.28C67.6268 43.5533 67.4168 43.77 67.1568 43.93C66.8968 44.0833 66.5801 44.16 66.2068 44.16ZM69.8929 44V36.9H74.2529V37.89H70.9429V39.96H74.1329V40.92H70.9429V43.01H74.3329V44H69.8929ZM81.5851 44V36.9H86.0251V37.87H82.0351L82.6351 37.3V40.56L82.0351 40.05H85.8451V41.01H82.0351L82.6351 40.5V44H81.5851ZM89.4012 44.16C88.6412 44.16 88.0478 43.9267 87.6212 43.46C87.1945 42.9933 86.9812 42.35 86.9812 41.53V36.9H88.0312V41.57C88.0312 42.09 88.1478 42.49 88.3812 42.77C88.6145 43.0433 88.9545 43.18 89.4012 43.18C89.8478 43.18 90.1878 43.0433 90.4212 42.77C90.6545 42.49 90.7712 42.09 90.7712 41.57V36.9H91.8212V41.53C91.8212 42.35 91.6078 42.9933 91.1812 43.46C90.7545 43.9267 90.1612 44.16 89.4012 44.16ZM93.1773 44V36.9H94.2273V43.6L93.5873 43.01H97.6173V44H93.1773ZM98.9734 44V36.9H100.023V43.6L99.3834 43.01H103.413V44H98.9734ZM106.269 44V41.08L104.159 36.9H105.319L106.789 40L108.259 36.9H109.419L107.319 41.08V44H106.269ZM116.362 44V36.9H117.412V43.6L116.772 43.01H120.802V44H116.362ZM124.178 44.16C123.611 44.16 123.131 44.0167 122.738 43.73C122.351 43.4433 122.054 43.0233 121.848 42.47C121.641 41.9167 121.538 41.2467 121.538 40.46C121.538 39.66 121.641 38.9833 121.848 38.43C122.054 37.8767 122.351 37.4567 122.738 37.17C123.131 36.8833 123.611 36.74 124.178 36.74C124.744 36.74 125.224 36.8833 125.618 37.17C126.011 37.4567 126.308 37.8767 126.508 38.43C126.714 38.9833 126.818 39.66 126.818 40.46C126.818 41.2467 126.714 41.9167 126.508 42.47C126.308 43.0233 126.011 43.4433 125.618 43.73C125.224 44.0167 124.744 44.16 124.178 44.16ZM124.178 43.18C124.511 43.18 124.791 43.08 125.018 42.88C125.251 42.68 125.428 42.3767 125.548 41.97C125.668 41.5633 125.728 41.06 125.728 40.46C125.728 39.86 125.668 39.3567 125.548 38.95C125.428 38.5367 125.251 38.23 125.018 38.03C124.791 37.8233 124.511 37.72 124.178 37.72C123.844 37.72 123.561 37.8233 123.328 38.03C123.101 38.23 122.928 38.5367 122.808 38.95C122.688 39.3567 122.628 39.86 122.628 40.46C122.628 41.06 122.688 41.5633 122.808 41.97C122.928 42.3767 123.101 42.68 123.328 42.88C123.561 43.08 123.844 43.18 124.178 43.18ZM127.214 44L129.294 36.9H130.654L132.734 44H131.644L129.974 37.99L128.304 44H127.214ZM128.374 42.15L128.694 41.18H131.254L131.574 42.15H128.374ZM133.6 44V36.9H135.33C135.957 36.9 136.5 37.04 136.96 37.32C137.427 37.5933 137.783 37.9967 138.03 38.53C138.283 39.0567 138.41 39.7 138.41 40.46C138.41 41.22 138.283 41.8633 138.03 42.39C137.783 42.9167 137.427 43.3167 136.96 43.59C136.5 43.8633 135.957 44 135.33 44H133.6ZM134.65 43.01H135.3C135.947 43.01 136.443 42.8 136.79 42.38C137.143 41.9533 137.32 41.3133 137.32 40.46C137.32 39.6067 137.143 38.9667 136.79 38.54C136.443 38.1067 135.947 37.89 135.3 37.89H134.65V43.01ZM139.446 44V36.9H143.806V37.89H140.496V39.96H143.686V40.92H140.496V43.01H143.886V44H139.446ZM145.192 44V36.9H146.922C147.549 36.9 148.092 37.04 148.552 37.32C149.019 37.5933 149.375 37.9967 149.622 38.53C149.875 39.0567 150.002 39.7 150.002 40.46C150.002 41.22 149.875 41.8633 149.622 42.39C149.375 42.9167 149.019 43.3167 148.552 43.59C148.092 43.8633 147.549 44 146.922 44H145.192ZM146.242 43.01H146.892C147.539 43.01 148.035 42.8 148.382 42.38C148.735 41.9533 148.912 41.3133 148.912 40.46C148.912 39.6067 148.735 38.9667 148.382 38.54C148.035 38.1067 147.539 37.89 146.892 37.89H146.242V43.01Z" fill="#52525B"/>
<path d="M685.84 44.04V36.72H693.16V44.04H685.84ZM700.506 42.94L703.226 37.91L704.026 37.96L701.306 42.99L700.506 42.94ZM702.266 44.16C701.746 44.16 701.296 44.01 700.916 43.71C700.536 43.41 700.246 42.9833 700.046 42.43C699.846 41.8767 699.746 41.22 699.746 40.46C699.746 39.6933 699.846 39.0333 700.046 38.48C700.246 37.9267 700.536 37.5 700.916 37.2C701.296 36.8933 701.746 36.74 702.266 36.74C702.793 36.74 703.243 36.8933 703.616 37.2C703.996 37.5 704.286 37.9267 704.486 38.48C704.686 39.0333 704.786 39.6933 704.786 40.46C704.786 41.22 704.686 41.8767 704.486 42.43C704.286 42.9833 703.996 43.41 703.616 43.71C703.243 44.01 702.793 44.16 702.266 44.16ZM702.266 43.18C702.566 43.18 702.82 43.0733 703.026 42.86C703.24 42.64 703.403 42.3267 703.516 41.92C703.636 41.5133 703.696 41.0267 703.696 40.46C703.696 39.88 703.636 39.3867 703.516 38.98C703.403 38.5733 703.24 38.2633 703.026 38.05C702.82 37.83 702.566 37.72 702.266 37.72C701.973 37.72 701.72 37.83 701.506 38.05C701.293 38.2633 701.126 38.5733 701.006 38.98C700.893 39.3867 700.836 39.88 700.836 40.46C700.836 41.0267 700.893 41.5133 701.006 41.92C701.126 42.3267 701.293 42.64 701.506 42.86C701.72 43.0733 701.973 43.18 702.266 43.18ZM706.302 42.94L709.022 37.91L709.822 37.96L707.102 42.99L706.302 42.94ZM708.062 44.16C707.542 44.16 707.092 44.01 706.712 43.71C706.332 43.41 706.042 42.9833 705.842 42.43C705.642 41.8767 705.542 41.22 705.542 40.46C705.542 39.6933 705.642 39.0333 705.842 38.48C706.042 37.9267 706.332 37.5 706.712 37.2C707.092 36.8933 707.542 36.74 708.062 36.74C708.589 36.74 709.039 36.8933 709.412 37.2C709.792 37.5 710.082 37.9267 710.282 38.48C710.482 39.0333 710.582 39.6933 710.582 40.46C710.582 41.22 710.482 41.8767 710.282 42.43C710.082 42.9833 709.792 43.41 709.412 43.71C709.039 44.01 708.589 44.16 708.062 44.16ZM708.062 43.18C708.362 43.18 708.616 43.0733 708.822 42.86C709.036 42.64 709.199 42.3267 709.312 41.92C709.432 41.5133 709.492 41.0267 709.492 40.46C709.492 39.88 709.432 39.3867 709.312 38.98C709.199 38.5733 709.036 38.2633 708.822 38.05C708.616 37.83 708.362 37.72 708.062 37.72C707.769 37.72 707.516 37.83 707.302 38.05C707.089 38.2633 706.922 38.5733 706.802 38.98C706.689 39.3867 706.632 39.88 706.632 40.46C706.632 41.0267 706.689 41.5133 706.802 41.92C706.922 42.3267 707.089 42.64 707.302 42.86C707.516 43.0733 707.769 43.18 708.062 43.18ZM713.179 44V42.68H714.539V44H713.179ZM717.895 42.94L720.615 37.91L721.415 37.96L718.695 42.99L717.895 42.94ZM719.655 44.16C719.135 44.16 718.685 44.01 718.305 43.71C717.925 43.41 717.635 42.9833 717.435 42.43C717.235 41.8767 717.135 41.22 717.135 40.46C717.135 39.6933 717.235 39.0333 717.435 38.48C717.635 37.9267 717.925 37.5 718.305 37.2C718.685 36.8933 719.135 36.74 719.655 36.74C720.181 36.74 720.631 36.8933 721.005 37.2C721.385 37.5 721.675 37.9267 721.875 38.48C722.075 39.0333 722.175 39.6933 722.175 40.46C722.175 41.22 722.075 41.8767 721.875 42.43C721.675 42.9833 721.385 43.41 721.005 43.71C720.631 44.01 720.181 44.16 719.655 44.16ZM719.655 43.18C719.955 43.18 720.208 43.0733 720.415 42.86C720.628 42.64 720.791 42.3267 720.905 41.92C721.025 41.5133 721.085 41.0267 721.085 40.46C721.085 39.88 721.025 39.3867 720.905 38.98C720.791 38.5733 720.628 38.2633 720.415 38.05C720.208 37.83 719.955 37.72 719.655 37.72C719.361 37.72 719.108 37.83 718.895 38.05C718.681 38.2633 718.515 38.5733 718.395 38.98C718.281 39.3867 718.225 39.88 718.225 40.46C718.225 41.0267 718.281 41.5133 718.395 41.92C718.515 42.3267 718.681 42.64 718.895 42.86C719.108 43.0733 719.361 43.18 719.655 43.18ZM723.691 42.94L726.411 37.91L727.211 37.96L724.491 42.99L723.691 42.94ZM725.451 44.16C724.931 44.16 724.481 44.01 724.101 43.71C723.721 43.41 723.431 42.9833 723.231 42.43C723.031 41.8767 722.931 41.22 722.931 40.46C722.931 39.6933 723.031 39.0333 723.231 38.48C723.431 37.9267 723.721 37.5 724.101 37.2C724.481 36.8933 724.931 36.74 725.451 36.74C725.977 36.74 726.427 36.8933 726.801 37.2C727.181 37.5 727.471 37.9267 727.671 38.48C727.871 39.0333 727.971 39.6933 727.971 40.46C727.971 41.22 727.871 41.8767 727.671 42.43C727.471 42.9833 727.181 43.41 726.801 43.71C726.427 44.01 725.977 44.16 725.451 44.16ZM725.451 43.18C725.751 43.18 726.004 43.0733 726.211 42.86C726.424 42.64 726.587 42.3267 726.701 41.92C726.821 41.5133 726.881 41.0267 726.881 40.46C726.881 39.88 726.821 39.3867 726.701 38.98C726.587 38.5733 726.424 38.2633 726.211 38.05C726.004 37.83 725.751 37.72 725.451 37.72C725.157 37.72 724.904 37.83 724.691 38.05C724.477 38.2633 724.311 38.5733 724.191 38.98C724.077 39.3867 724.021 39.88 724.021 40.46C724.021 41.0267 724.077 41.5133 724.191 41.92C724.311 42.3267 724.477 42.64 724.691 42.86C724.904 43.0733 725.157 43.18 725.451 43.18ZM730.567 44V42.68H731.927V44H730.567ZM730.567 40.21V38.89H731.927V40.21H730.567ZM734.873 44V36.9H736.933C737.713 36.9 738.306 37.07 738.713 37.41C739.12 37.75 739.323 38.2233 739.323 38.83C739.323 39.1233 739.256 39.3867 739.123 39.62C738.99 39.8467 738.793 40.03 738.533 40.17C738.28 40.3033 737.976 40.3733 737.623 40.38V40.32C738.056 40.32 738.42 40.3933 738.713 40.54C739.013 40.68 739.24 40.88 739.393 41.14C739.546 41.3933 739.623 41.69 739.623 42.03C739.623 42.6567 739.406 43.1433 738.973 43.49C738.546 43.83 737.946 44 737.173 44H734.873ZM735.923 43.02H737.183C737.643 43.02 737.983 42.93 738.203 42.75C738.423 42.5633 738.533 42.3067 738.533 41.98C738.533 41.6333 738.416 41.3633 738.183 41.17C737.956 40.9767 737.623 40.88 737.183 40.88H735.923V43.02ZM735.923 39.91H736.953C737.393 39.91 737.716 39.8233 737.923 39.65C738.13 39.47 738.233 39.22 738.233 38.9C738.233 38.5733 738.13 38.3233 737.923 38.15C737.716 37.97 737.393 37.88 736.953 37.88H735.923V39.91ZM740.509 44V36.9H742.719C743.472 36.9 744.062 37.09 744.489 37.47C744.922 37.85 745.139 38.3667 745.139 39.02C745.139 39.36 745.062 39.66 744.909 39.92C744.762 40.18 744.566 40.3833 744.319 40.53C744.079 40.6767 743.822 40.76 743.549 40.78L743.509 40.66C744.002 40.68 744.369 40.7933 744.609 41C744.856 41.2 744.999 41.5267 745.039 41.98L745.219 44H744.169L744.009 42.18C743.989 41.9467 743.939 41.76 743.859 41.62C743.779 41.48 743.656 41.38 743.489 41.32C743.322 41.26 743.092 41.23 742.799 41.23H741.559V44H740.509ZM741.559 40.25H742.699C743.139 40.25 743.476 40.1467 743.709 39.94C743.942 39.7333 744.059 39.4433 744.059 39.07C744.059 38.69 743.942 38.4 743.709 38.2C743.476 37.9933 743.139 37.89 742.699 37.89H741.559V40.25ZM748.635 44.16C748.068 44.16 747.588 44.0167 747.195 43.73C746.808 43.4433 746.512 43.0233 746.305 42.47C746.098 41.9167 745.995 41.2467 745.995 40.46C745.995 39.66 746.098 38.9833 746.305 38.43C746.512 37.8767 746.808 37.4567 747.195 37.17C747.588 36.8833 748.068 36.74 748.635 36.74C749.202 36.74 749.682 36.8833 750.075 37.17C750.468 37.4567 750.765 37.8767 750.965 38.43C751.172 38.9833 751.275 39.66 751.275 40.46C751.275 41.2467 751.172 41.9167 750.965 42.47C750.765 43.0233 750.468 43.4433 750.075 43.73C749.682 44.0167 749.202 44.16 748.635 44.16ZM748.635 43.18C748.968 43.18 749.248 43.08 749.475 42.88C749.708 42.68 749.885 42.3767 750.005 41.97C750.125 41.5633 750.185 41.06 750.185 40.46C750.185 39.86 750.125 39.3567 750.005 38.95C749.885 38.5367 749.708 38.23 749.475 38.03C749.248 37.8233 748.968 37.72 748.635 37.72C748.302 37.72 748.018 37.8233 747.785 38.03C747.558 38.23 747.385 38.5367 747.265 38.95C747.145 39.3567 747.085 39.86 747.085 40.46C747.085 41.06 747.145 41.5633 747.265 41.97C747.385 42.3767 747.558 42.68 747.785 42.88C748.018 43.08 748.302 43.18 748.635 43.18ZM752.471 44L751.711 36.9H752.761L753.351 43.14H753.231L753.971 37.7H754.891L755.631 43.14H755.511L756.101 36.9H757.151L756.391 44H755.021L754.311 38.8H754.551L753.841 44H752.471ZM760.317 44.16C759.804 44.16 759.354 44.0567 758.967 43.85C758.587 43.6433 758.284 43.3567 758.057 42.99C757.831 42.6167 757.697 42.1833 757.657 41.69L758.737 41.62C758.784 41.96 758.877 42.2467 759.017 42.48C759.157 42.7133 759.341 42.89 759.567 43.01C759.794 43.1233 760.057 43.18 760.357 43.18C760.651 43.18 760.897 43.1433 761.097 43.07C761.297 42.99 761.451 42.8767 761.557 42.73C761.664 42.5833 761.717 42.4067 761.717 42.2C761.717 41.9867 761.667 41.8 761.567 41.64C761.467 41.48 761.287 41.3333 761.027 41.2C760.767 41.0667 760.387 40.93 759.887 40.79C759.401 40.6567 759.004 40.5067 758.697 40.34C758.391 40.1733 758.167 39.9667 758.027 39.72C757.887 39.4733 757.817 39.1667 757.817 38.8C757.817 38.3933 757.911 38.0367 758.097 37.73C758.291 37.4167 758.564 37.1733 758.917 37C759.277 36.8267 759.707 36.74 760.207 36.74C760.701 36.74 761.121 36.8367 761.467 37.03C761.821 37.2233 762.097 37.4933 762.297 37.84C762.504 38.18 762.631 38.58 762.677 39.04L761.597 39.1C761.564 38.8267 761.487 38.5867 761.367 38.38C761.254 38.1733 761.097 38.0133 760.897 37.9C760.697 37.78 760.457 37.72 760.177 37.72C759.784 37.72 759.471 37.8167 759.237 38.01C759.011 38.1967 758.897 38.4433 758.897 38.75C758.897 38.9567 758.944 39.1267 759.037 39.26C759.131 39.3933 759.294 39.5133 759.527 39.62C759.761 39.7267 760.087 39.8367 760.507 39.95C761.074 40.1033 761.524 40.28 761.857 40.48C762.191 40.68 762.431 40.92 762.577 41.2C762.724 41.48 762.797 41.8133 762.797 42.2C762.797 42.5867 762.694 42.93 762.487 43.23C762.281 43.5233 761.991 43.7533 761.617 43.92C761.251 44.08 760.817 44.16 760.317 44.16ZM763.903 44V36.9H768.263V37.89H764.953V39.96H768.143V40.92H764.953V43.01H768.343V44H763.903ZM769.49 44V36.9H771.7C772.453 36.9 773.043 37.09 773.47 37.47C773.903 37.85 774.12 38.3667 774.12 39.02C774.12 39.36 774.043 39.66 773.89 39.92C773.743 40.18 773.546 40.3833 773.3 40.53C773.06 40.6767 772.803 40.76 772.53 40.78L772.49 40.66C772.983 40.68 773.35 40.7933 773.59 41C773.836 41.2 773.98 41.5267 774.02 41.98L774.2 44H773.15L772.99 42.18C772.97 41.9467 772.92 41.76 772.84 41.62C772.76 41.48 772.636 41.38 772.47 41.32C772.303 41.26 772.073 41.23 771.78 41.23H770.54V44H769.49ZM770.54 40.25H771.68C772.12 40.25 772.456 40.1467 772.69 39.94C772.923 39.7333 773.04 39.4433 773.04 39.07C773.04 38.69 772.923 38.4 772.69 38.2C772.456 37.9933 772.12 37.89 771.68 37.89H770.54V40.25ZM775.376 44.92V44H779.856V44.92H775.376ZM783.412 44.16C782.652 44.16 782.058 43.9267 781.632 43.46C781.205 42.9933 780.992 42.35 780.992 41.53V36.9H782.042V41.57C782.042 42.09 782.158 42.49 782.392 42.77C782.625 43.0433 782.965 43.18 783.412 43.18C783.858 43.18 784.198 43.0433 784.432 42.77C784.665 42.49 784.782 42.09 784.782 41.57V36.9H785.832V41.53C785.832 42.35 785.618 42.9933 785.192 43.46C784.765 43.9267 784.172 44.16 783.412 44.16ZM789.298 44.16C788.784 44.16 788.334 44.0567 787.948 43.85C787.568 43.6433 787.264 43.3567 787.038 42.99C786.811 42.6167 786.678 42.1833 786.638 41.69L787.718 41.62C787.764 41.96 787.858 42.2467 787.998 42.48C788.138 42.7133 788.321 42.89 788.548 43.01C788.774 43.1233 789.038 43.18 789.338 43.18C789.631 43.18 789.878 43.1433 790.078 43.07C790.278 42.99 790.431 42.8767 790.538 42.73C790.644 42.5833 790.698 42.4067 790.698 42.2C790.698 41.9867 790.648 41.8 790.548 41.64C790.448 41.48 790.268 41.3333 790.008 41.2C789.748 41.0667 789.368 40.93 788.868 40.79C788.381 40.6567 787.984 40.5067 787.678 40.34C787.371 40.1733 787.148 39.9667 787.008 39.72C786.868 39.4733 786.798 39.1667 786.798 38.8C786.798 38.3933 786.891 38.0367 787.078 37.73C787.271 37.4167 787.544 37.1733 787.898 37C788.258 36.8267 788.688 36.74 789.188 36.74C789.681 36.74 790.101 36.8367 790.448 37.03C790.801 37.2233 791.078 37.4933 791.278 37.84C791.484 38.18 791.611 38.58 791.658 39.04L790.578 39.1C790.544 38.8267 790.468 38.5867 790.348 38.38C790.234 38.1733 790.078 38.0133 789.878 37.9C789.678 37.78 789.438 37.72 789.158 37.72C788.764 37.72 788.451 37.8167 788.218 38.01C787.991 38.1967 787.878 38.4433 787.878 38.75C787.878 38.9567 787.924 39.1267 788.018 39.26C788.111 39.3933 788.274 39.5133 788.508 39.62C788.741 39.7267 789.068 39.8367 789.488 39.95C790.054 40.1033 790.504 40.28 790.838 40.48C791.171 40.68 791.411 40.92 791.558 41.2C791.704 41.48 791.778 41.8133 791.778 42.2C791.778 42.5867 791.674 42.93 791.468 43.23C791.261 43.5233 790.971 43.7533 790.598 43.92C790.231 44.08 789.798 44.16 789.298 44.16ZM792.884 44V36.9H797.244V37.89H793.934V39.96H797.124V40.92H793.934V43.01H797.324V44H792.884Z" fill="#52525B"/>
<path d="M323.535 200.32H320.391V190H323.535V191.032H321.615V199.288H323.535V200.32ZM507.469 200.32V199.288H509.389V191.032H507.469V190H510.613V200.32H507.469Z" fill="#52525B"/>
<path d="M333.558 199V190.48H336.21C337.114 190.48 337.822 190.708 338.334 191.164C338.854 191.62 339.114 192.24 339.114 193.024C339.114 193.432 339.022 193.792 338.838 194.104C338.662 194.416 338.426 194.66 338.13 194.836C337.842 195.012 337.534 195.112 337.206 195.136L337.158 194.992C337.75 195.016 338.19 195.152 338.478 195.4C338.774 195.64 338.946 196.032 338.994 196.576L339.21 199H337.95L337.758 196.816C337.734 196.536 337.674 196.312 337.578 196.144C337.482 195.976 337.334 195.856 337.134 195.784C336.934 195.712 336.658 195.676 336.306 195.676H334.818V199H333.558ZM334.818 194.5H336.186C336.714 194.5 337.118 194.376 337.398 194.128C337.678 193.88 337.818 193.532 337.818 193.084C337.818 192.628 337.678 192.28 337.398 192.04C337.118 191.792 336.714 191.668 336.186 191.668H334.818V194.5ZM341.005 199V190.48H346.237V191.668H342.265V194.152H346.093V195.304H342.265V197.812H346.333V199H341.005ZM348.177 199V190.48H350.817C351.409 190.48 351.925 190.588 352.365 190.804C352.813 191.02 353.157 191.328 353.397 191.728C353.645 192.12 353.769 192.588 353.769 193.132C353.769 193.676 353.645 194.148 353.397 194.548C353.157 194.94 352.813 195.244 352.365 195.46C351.925 195.668 351.409 195.772 350.817 195.772H349.437V199H348.177ZM349.437 194.584H350.685C351.293 194.584 351.741 194.46 352.029 194.212C352.317 193.964 352.461 193.604 352.461 193.132C352.461 192.652 352.317 192.288 352.029 192.04C351.741 191.792 351.293 191.668 350.685 191.668H349.437V194.584ZM355.396 199V190.48H360.628V191.668H356.656V194.152H360.484V195.304H356.656V197.812H360.724V199H355.396ZM364.511 199V191.668H362.015V190.48H368.255V191.668H365.759V199H364.511ZM369.666 199V197.812H371.706V191.668H369.666V190.48H374.994V191.668H372.954V197.812H374.994V199H369.666ZM378.902 199V191.668H376.406V190.48H382.646V191.668H380.15V199H378.902ZM384.057 199V197.812H386.097V191.668H384.057V190.48H389.385V191.668H387.345V197.812H389.385V199H384.057ZM393.172 199L390.64 190.48H391.972L394.108 197.98H393.724L395.86 190.48H397.192L394.66 199H393.172ZM398.568 199V190.48H403.8V191.668H399.828V194.152H403.656V195.304H399.828V197.812H403.896V199H398.568ZM413.15 199L412.238 190.48H413.498L414.206 197.968H414.062L414.95 191.44H416.054L416.942 197.968H416.798L417.506 190.48H418.766L417.854 199H416.21L415.358 192.76H415.646L414.794 199H413.15ZM422.698 199.192C422.018 199.192 421.442 199.02 420.97 198.676C420.506 198.332 420.15 197.828 419.902 197.164C419.654 196.5 419.53 195.696 419.53 194.752C419.53 193.792 419.654 192.98 419.902 192.316C420.15 191.652 420.506 191.148 420.97 190.804C421.442 190.46 422.018 190.288 422.698 190.288C423.378 190.288 423.954 190.46 424.426 190.804C424.898 191.148 425.254 191.652 425.494 192.316C425.742 192.98 425.866 193.792 425.866 194.752C425.866 195.696 425.742 196.5 425.494 197.164C425.254 197.828 424.898 198.332 424.426 198.676C423.954 199.02 423.378 199.192 422.698 199.192ZM422.698 198.016C423.098 198.016 423.434 197.896 423.706 197.656C423.986 197.416 424.198 197.052 424.342 196.564C424.486 196.076 424.558 195.472 424.558 194.752C424.558 194.032 424.486 193.428 424.342 192.94C424.198 192.444 423.986 192.076 423.706 191.836C423.434 191.588 423.098 191.464 422.698 191.464C422.298 191.464 421.958 191.588 421.678 191.836C421.406 192.076 421.198 192.444 421.054 192.94C420.91 193.428 420.838 194.032 420.838 194.752C420.838 195.472 420.91 196.076 421.054 196.564C421.198 197.052 421.406 197.416 421.678 197.656C421.958 197.896 422.298 198.016 422.698 198.016ZM427.097 199V190.48H429.749C430.653 190.48 431.361 190.708 431.873 191.164C432.393 191.62 432.653 192.24 432.653 193.024C432.653 193.432 432.561 193.792 432.377 194.104C432.201 194.416 431.965 194.66 431.669 194.836C431.381 195.012 431.073 195.112 430.745 195.136L430.697 194.992C431.289 195.016 431.729 195.152 432.017 195.4C432.313 195.64 432.485 196.032 432.533 196.576L432.749 199H431.489L431.297 196.816C431.273 196.536 431.213 196.312 431.117 196.144C431.021 195.976 430.873 195.856 430.673 195.784C430.473 195.712 430.197 195.676 429.845 195.676H428.357V199H427.097ZM428.357 194.5H429.725C430.253 194.5 430.657 194.376 430.937 194.128C431.217 193.88 431.357 193.532 431.357 193.084C431.357 192.628 431.217 192.28 430.937 192.04C430.657 191.792 430.253 191.668 429.725 191.668H428.357V194.5ZM435.3 196.432V194.644L438.612 190.48H440.136L435.3 196.432ZM434.16 199V190.48H435.42V199H434.16ZM438.756 199L436.044 194.8L436.908 193.936L440.232 199H438.756ZM448.815 199V197.812H450.855V191.668H448.815V190.48H454.143V191.668H452.103V197.812H454.143V199H448.815ZM458.782 199.192C458.166 199.192 457.626 199.068 457.162 198.82C456.706 198.572 456.342 198.228 456.07 197.788C455.798 197.34 455.638 196.82 455.59 196.228L456.886 196.144C456.942 196.552 457.054 196.896 457.222 197.176C457.39 197.456 457.61 197.668 457.882 197.812C458.154 197.948 458.47 198.016 458.83 198.016C459.182 198.016 459.478 197.972 459.718 197.884C459.958 197.788 460.142 197.652 460.27 197.476C460.398 197.3 460.462 197.088 460.462 196.84C460.462 196.584 460.402 196.36 460.282 196.168C460.162 195.976 459.946 195.8 459.634 195.64C459.322 195.48 458.866 195.316 458.266 195.148C457.682 194.988 457.206 194.808 456.838 194.608C456.47 194.408 456.202 194.16 456.034 193.864C455.866 193.568 455.782 193.2 455.782 192.76C455.782 192.272 455.894 191.844 456.118 191.476C456.35 191.1 456.678 190.808 457.102 190.6C457.534 190.392 458.05 190.288 458.65 190.288C459.242 190.288 459.746 190.404 460.162 190.636C460.586 190.868 460.918 191.192 461.158 191.608C461.406 192.016 461.558 192.496 461.614 193.048L460.318 193.12C460.278 192.792 460.186 192.504 460.042 192.256C459.906 192.008 459.718 191.816 459.478 191.68C459.238 191.536 458.95 191.464 458.614 191.464C458.142 191.464 457.766 191.58 457.486 191.812C457.214 192.036 457.078 192.332 457.078 192.7C457.078 192.948 457.134 193.152 457.246 193.312C457.358 193.472 457.554 193.616 457.834 193.744C458.114 193.872 458.506 194.004 459.01 194.14C459.69 194.324 460.23 194.536 460.63 194.776C461.03 195.016 461.318 195.304 461.494 195.64C461.67 195.976 461.758 196.376 461.758 196.84C461.758 197.304 461.634 197.716 461.386 198.076C461.138 198.428 460.79 198.704 460.342 198.904C459.902 199.096 459.382 199.192 458.782 199.192ZM470.461 199V190.48H472.537C473.289 190.48 473.941 190.648 474.493 190.984C475.053 191.312 475.481 191.796 475.777 192.436C476.081 193.068 476.233 193.84 476.233 194.752C476.233 195.664 476.081 196.436 475.777 197.068C475.481 197.7 475.053 198.18 474.493 198.508C473.941 198.836 473.289 199 472.537 199H470.461ZM471.721 197.812H472.501C473.277 197.812 473.873 197.56 474.289 197.056C474.713 196.544 474.925 195.776 474.925 194.752C474.925 193.728 474.713 192.96 474.289 192.448C473.873 191.928 473.277 191.668 472.501 191.668H471.721V197.812ZM477.716 199V190.48H482.948V191.668H478.976V194.152H482.804V195.304H478.976V197.812H483.044V199H477.716ZM484.143 199L486.639 190.48H488.271L490.767 199H489.459L487.455 191.788L485.451 199H484.143ZM485.535 196.78L485.919 195.616H488.991L489.375 196.78H485.535ZM492.047 199V190.48H494.123C494.875 190.48 495.527 190.648 496.079 190.984C496.639 191.312 497.067 191.796 497.363 192.436C497.667 193.068 497.819 193.84 497.819 194.752C497.819 195.664 497.667 196.436 497.363 197.068C497.067 197.7 496.639 198.18 496.079 198.508C495.527 198.836 494.875 199 494.123 199H492.047ZM493.307 197.812H494.087C494.863 197.812 495.459 197.56 495.875 197.056C496.299 196.544 496.511 195.776 496.511 194.752C496.511 193.728 496.299 192.96 495.875 192.448C495.459 191.928 494.863 191.668 494.087 191.668H493.307V197.812Z" fill="black"/>
</svg>
