<svg width="830" height="274" viewBox="0 0 830 274" fill="none" xmlns="http://www.w3.org/2000/svg">
<rect x="0.5" y="0.5" width="829" height="273" fill="black"/>
<rect x="0.5" y="0.5" width="829" height="273" stroke="white"/>
<path d="M155.741 92.1487C162.496 89.8874 168.974 89.3183 174.432 90.7496L174.512 90.7708L174.559 90.7821L174.56 90.7823L174.561 90.7826L174.609 90.7969C176.136 91.211 177.54 91.7723 178.818 92.4684L178.871 92.4951L178.872 92.4956L178.873 92.4963L178.912 92.5202C180.735 93.5275 182.298 94.8114 183.59 96.3358L183.644 96.3948L183.645 96.3956L183.645 96.3966L183.712 96.4812C183.872 96.6739 184.027 96.8704 184.178 97.0706L184.185 97.0776L184.187 97.0798L184.189 97.0823L184.221 97.1277C184.586 97.6164 184.926 98.1269 185.241 98.658L185.268 98.6947H185.263C185.356 98.854 185.448 99.0153 185.537 99.1783H185.538L185.546 99.1949C185.547 99.1975 185.549 99.2002 185.55 99.2028L185.577 99.249H185.575C185.597 99.2894 185.619 99.3299 185.64 99.3705L185.658 99.4023H185.657C185.754 99.5848 185.847 99.7695 185.938 99.9563L185.972 100.023L185.972 100.025L185.973 100.026L185.978 100.038C186.065 100.219 186.149 100.402 186.23 100.587L186.243 100.613L186.244 100.616L186.256 100.648C186.503 101.212 186.724 101.796 186.921 102.396C186.938 102.449 186.955 102.501 186.971 102.554L186.974 102.557L186.976 102.566L186.986 102.601C187.168 103.178 187.327 103.771 187.463 104.379L187.47 104.401L187.471 104.404L187.472 104.406L187.472 104.408L187.519 104.632L187.52 104.633L187.518 104.633V104.633L187.52 104.633L187.525 104.667C187.568 104.873 187.609 105.081 187.647 105.29L187.654 105.323H187.662V105.371C187.777 106.021 187.867 106.686 187.932 107.366L187.932 107.371L187.933 107.373V107.374C187.997 108.05 188.036 108.741 188.049 109.445L188.05 109.459L188.051 109.461V109.463L188.051 109.464L188.054 109.498H188.051L188.051 109.54C188.055 109.85 188.055 110.162 188.051 110.478V110.538L188.05 110.54V110.571H188.049C188.036 111.284 187.997 112.01 187.933 112.748V112.765H187.931C187.839 113.823 187.694 114.906 187.497 116.011L187.472 116.156L187.472 116.157L187.44 116.32C186.989 118.729 186.288 121.243 185.327 123.837L185.29 123.945L185.265 124.018L185.231 123.96C185.225 123.955 185.221 123.948 185.22 123.94L184.53 122.749L183.823 121.546L183.823 121.546L183.091 120.371L183.072 120.341L182.32 119.184L182.315 119.177L181.525 117.998V117.997L181.054 117.326L181.054 117.326L180.712 116.831L180.702 116.817L179.864 115.676L179.369 115.015L179.368 115.015L179.003 114.52L178.994 114.508L178.997 114.494C178.997 114.493 178.997 114.493 178.997 114.493L179.102 113.87V113.848L179.103 113.845L179.185 113.255L179.25 112.765H179.248L179.256 112.723L179.26 112.706L179.268 112.665L179.326 112.077L179.327 112.075L179.362 111.501V111.501L179.397 110.948L179.409 110.394L179.409 110.389V110.359H179.409L179.421 109.865L179.41 109.498H179.409V109.466L179.409 109.464L179.409 109.463H179.409V109.346L179.385 108.839V108.839L179.353 108.448H179.35V108.416L179.35 108.414V108.356L179.303 107.875L179.303 107.875L179.244 107.428L179.174 106.981L179.173 106.98L179.173 106.98L179.113 106.604L179.103 106.546L179.056 106.382L179.056 106.381L179.056 106.379L179.009 106.131V106.131L178.915 105.745L178.914 105.741L178.817 105.417H178.808V105.388L178.808 105.387V105.382L178.807 105.364L178.691 105.004L178.574 104.65L178.48 104.429L178.48 104.427L178.479 104.426L178.444 104.322L178.304 104.005L178.165 103.704L178.163 103.7L178.16 103.693L178.01 103.406V103.406L177.858 103.124L177.694 102.854L177.517 102.596L177.341 102.349L176.977 101.878L176.577 101.455H176.577L176.284 101.186V101.186L175.98 100.916L175.651 100.657L175.345 100.447L175.31 100.423V100.423L175.04 100.249L174.946 100.188L174.724 100.071L174.723 100.07L174.558 99.9758V99.9757L174.147 99.7646L173.713 99.577L173.255 99.4005L173.253 99.3999L172.891 99.2949L172.89 99.2945L172.889 99.2941L172.762 99.2479H172.762L172.243 99.1064V99.1063L171.703 98.9771L171.127 98.8595L171.127 98.8594V98.8595L171.086 98.8531L170.527 98.7653L169.891 98.6946L169.221 98.6475V98.6476L168.529 98.6241H167.801L167.055 98.6357H167.055L166.278 98.6946L166.278 98.6947L165.896 98.7284L165.476 98.7655L164.665 98.8594L164.665 98.8595L163.817 98.989L162.957 99.1542L162.957 99.1541L162.074 99.3427L162.073 99.3426V99.3427L162.07 99.3436H162.07L161.173 99.5533L161.167 99.5548L160.248 99.8022L160.248 99.8021L159.318 100.073L159.318 100.073L159.284 100.084L158.364 100.379L158.364 100.379L157.409 100.721L156.679 101.004H156.679L156.453 101.09L156.432 101.098L156.432 101.098L155.454 101.499L155.454 101.499L154.466 101.923L154.465 101.923L154.465 101.923L154.464 101.923L153.463 102.383L152.473 102.872L152.462 102.878L152.455 102.882H152.454L151.448 103.396L151.449 103.396L150.435 103.939L149.421 104.505L149.421 104.505L148.408 105.106L147.701 105.542L147.701 105.542L147.382 105.731L147.115 105.902L146.369 106.379L146.368 106.38L146.17 106.519L146.17 106.52L146.169 106.52L145.369 107.05L145.369 107.05L145.349 107.064L144.697 107.522L144.696 107.522L144.354 107.758L144.354 107.758L143.353 108.477H143.353L143.353 108.477L143.351 108.478L142.401 109.191L142.363 109.22L142.363 109.22V109.22L141.892 109.585L141.373 109.986L140.638 110.583H140.64L140.564 110.643L140.56 110.646L140.56 110.646L140.395 110.776L139.43 111.588L139.43 111.589L138.475 112.425L138.475 112.425L137.537 113.282L137.532 113.286L137.532 113.286L137.532 113.286L137.532 113.286L136.601 114.147L135.694 115.043L135.682 115.054L135.682 115.054L134.786 115.951L133.915 116.869L133.915 116.87L133.479 117.341L133.478 117.342L133.051 117.792L133.042 117.802L132.206 118.756L132.206 118.756L131.382 119.71L131.373 119.724H131.37L130.568 120.689L130.427 120.866L130.426 120.866L129.778 121.668L129.484 122.056V122.056L129.067 122.601L129.024 122.658L129.024 122.658L128.282 123.648L128.282 123.648L127.563 124.65L127.563 124.65L126.868 125.652L126.868 125.652L126.196 126.665L125.57 127.644L125.548 127.679L125.548 127.679L125.542 127.689L124.938 128.688L124.935 128.693L124.935 128.693L124.582 129.294L124.582 129.295L124.334 129.707L124.332 129.711L123.899 130.508L123.898 130.51L123.769 130.72L123.769 130.72L123.759 130.739L123.251 131.722L123.248 131.727L123.244 131.731L123.237 131.738L122.732 132.747L122.732 132.747L122.65 132.924L122.65 132.924L122.261 133.749L122.261 133.749L121.816 134.746L121.566 135.329L121.389 135.74L121.389 135.741L121.389 135.742L121.015 136.712L121.012 136.718L121.012 136.719L120.649 137.68L120.649 137.697L120.649 137.733H120.639L120.317 138.652L120.246 138.887L120.246 138.887L120.022 139.595L119.893 140.054L119.893 140.054L119.751 140.526L119.587 141.162L119.516 141.433L119.338 142.202H119.338L119.328 142.246L119.304 142.341L119.127 143.212L118.974 144.071L118.974 144.071L118.973 144.077L118.857 144.908L118.854 144.927L118.798 145.45V145.45L118.794 145.45L118.798 145.45L118.763 145.715L118.762 145.72L118.704 146.504L118.704 146.505V146.507L118.704 146.543H118.702L118.656 147.276L118.656 147.278V147.392L118.656 147.51V147.545H118.656L118.645 148.018L118.656 148.511V148.725L118.692 149.405L118.7 149.479L118.704 149.511L118.704 149.512L118.751 150.065L118.809 150.477L118.81 150.478L118.832 150.685L118.833 150.689H118.833L118.939 151.289H118.939L119.056 151.865L119.182 152.391L119.186 152.407L119.338 152.911H119.338L119.46 153.253H119.461L119.467 153.273L119.468 153.277L119.468 153.278L119.468 153.278L119.5 153.384L119.503 153.395L119.68 153.842L119.879 154.264L120.078 154.675L120.29 155.028L120.295 155.036V155.059L120.376 155.18L120.524 155.403L120.772 155.744L121.029 156.06L121.299 156.354L121.581 156.648L121.594 156.66L121.872 156.915L121.874 156.918L122.18 157.177L122.508 157.423L122.805 157.617H122.807L122.816 157.624L122.845 157.646L122.861 157.658L123.236 157.881L123.336 157.934L123.636 158.093L124.047 158.293L124.491 158.48L124.494 158.48H124.494L124.846 158.613L124.964 158.657L125.417 158.797L125.456 158.81H125.457L125.987 158.951L126.539 159.068L127.127 159.174L127.371 159.209H127.372L127.375 159.21L127.74 159.269L128.269 159.317L128.385 159.327H128.385L128.71 159.35L129.056 159.374H129.056L129.763 159.398L130.493 159.386L131.258 159.351L132.035 159.304L132.846 159.221L133.671 159.104L134.516 158.963L134.518 158.962L134.534 158.959L134.547 158.969L134.567 158.984L134.594 159.004L134.726 159.103H134.727L134.733 159.109L134.735 159.11L134.736 159.111L134.737 159.111L134.749 159.121L135.033 159.336L135.055 159.351H135.056L135.062 159.356L135.064 159.357L135.065 159.357L135.066 159.358L135.103 159.386H135.127V159.404L135.197 159.457H135.193L135.694 159.836L135.702 159.841L135.715 159.851L136.857 160.678L137.298 160.99L137.87 161.386L137.871 161.386L137.872 161.387L138.023 161.503L138.848 162.046L138.849 162.046L139.202 162.293L139.247 162.323L140.392 163.06H140.392L140.415 163.074L140.734 163.272L140.734 163.272L141.582 163.802H141.582L141.589 163.806L142.784 164.51L142.811 164.525L142.899 164.576H142.898L143.967 165.194C143.977 165.192 143.987 165.195 143.995 165.201H144.173L144.052 165.243L144.053 165.244L143.981 165.269L143.651 165.387H143.651L143.645 165.389H143.645L143.462 165.453C143.203 165.547 142.945 165.638 142.687 165.726L142.448 165.812L142.443 165.814H142.442L141.575 166.095L141.257 166.201L141.256 166.201L140.616 166.392H140.65L140.383 166.461L140.382 166.461L140.382 166.461L140.176 166.515C139.869 166.602 139.564 166.685 139.26 166.764L139.203 166.78L139.203 166.78L139.203 166.779H139.202L139.203 166.78L139.132 166.797C138.923 166.851 138.714 166.904 138.506 166.954L138.302 167.005H138.337L138.027 167.074L138.024 167.075L138.023 167.075L137.816 167.121L137.705 167.146L137.704 167.146V167.146H137.704L136.867 167.323L136.866 167.323L136.594 167.372C136.373 167.414 136.154 167.455 135.935 167.493L135.711 167.535L135.709 167.535L135.597 167.551C135.312 167.599 135.029 167.643 134.747 167.683L134.566 167.712L134.566 167.712H134.565L134.425 167.728C134.223 167.755 134.022 167.78 133.822 167.804L133.445 167.854L133.444 167.854L133.443 167.854L133.424 167.855L133.192 167.872C132.966 167.894 132.741 167.914 132.517 167.932L132.336 167.949H132.335L131.981 167.972L131.981 167.972L131.767 167.982C131.608 167.991 131.449 167.999 131.292 168.006L131.249 168.008H131.24L131.235 168.008C130.892 168.021 130.552 168.029 130.215 168.031L130.199 168.031H130.199V168.031H130.144C129.851 168.032 129.561 168.029 129.273 168.021L129.113 168.019V168.019H129.112L129.002 168.013C128.831 168.006 128.66 167.999 128.49 167.99L128.075 167.972H128.074L128.073 167.972L127.852 167.949H127.851L127.849 167.949L127.722 167.937C127.604 167.927 127.487 167.917 127.369 167.905L127.062 167.878H127.061L127.059 167.878L126.823 167.854L126.822 167.854V167.854L126.059 167.748H126.058L126.055 167.748L125.822 167.713H125.821L125.818 167.712L125.087 167.582V167.582H125.087L124.851 167.535L124.85 167.535L124.131 167.382L124.13 167.381L124.13 167.381L123.906 167.322V167.322L123.21 167.145L123.209 167.145L123.129 167.121L122.973 167.074L122.973 167.074L122.969 167.073L122.742 167.005H122.754L122.306 166.864H122.305L122.298 166.861L122.096 166.782C121.968 166.738 121.841 166.692 121.714 166.645L121.433 166.545H121.432L121.426 166.543L121.214 166.46L121.213 166.46L120.577 166.2L120.575 166.2L120.573 166.199L120.375 166.094L119.762 165.811L119.76 165.81L119.759 165.809L119.598 165.715C119.496 165.662 119.395 165.608 119.295 165.554L118.97 165.385L118.969 165.384L118.768 165.266L118.768 165.266L118.202 164.924L118.2 164.923L117.908 164.719C117.815 164.657 117.723 164.594 117.631 164.53L117.47 164.428L117.469 164.428L117.468 164.427L116.772 163.896V163.896L116.725 163.861L116.724 163.86L116.724 163.859L116.446 163.623C116.396 163.581 116.346 163.539 116.296 163.496L116.099 163.329L116.097 163.328L116.013 163.247C115.89 163.136 115.768 163.024 115.648 162.909L115.461 162.738L115.46 162.737L115.459 162.736L115.288 162.554C115.053 162.315 114.825 162.068 114.603 161.813L114.374 161.556L114.373 161.555L114.373 161.555L114.279 161.437L114.278 161.436L113.748 160.752L113.746 160.75L113.744 160.747L113.733 160.724L113.69 160.664C113.582 160.514 113.476 160.362 113.372 160.209L113.25 160.035H113.249L113.24 160.021L113.24 160.02L113.239 160.018L113.156 159.889L113.156 159.888L113.148 159.876L113.122 159.834H113.122L112.885 159.452L112.884 159.451L112.883 159.449L112.881 159.445H112.881L112.871 159.426L112.862 159.407C112.855 159.394 112.847 159.382 112.84 159.369L112.805 159.326L112.801 159.322L112.799 159.317L112.78 159.268C112.775 159.26 112.771 159.252 112.766 159.244L112.756 159.229L112.755 159.228L112.754 159.226L112.722 159.168C112.707 159.142 112.692 159.116 112.677 159.09L112.625 159.003L112.625 159.002L112.624 159.001L112.598 158.95C112.568 158.896 112.539 158.842 112.509 158.788L112.46 158.709L112.46 158.708L112.459 158.707L112.375 158.549H112.375L112.368 158.535L112.365 158.53L112.364 158.529V158.529L112.351 158.502H112.351L112.341 158.482L112.27 158.341L112.27 158.34L112.269 158.337L112.245 158.289H112.246L112.22 158.233C112.175 158.145 112.132 158.055 112.089 157.966L112.08 157.947H112.079L112.072 157.932L112.07 157.928L112.044 157.877H112.046L111.964 157.705L111.942 157.672L111.94 157.669L111.94 157.668L111.906 157.617H111.919L111.857 157.466L111.78 157.287C111.769 157.262 111.758 157.236 111.747 157.211L111.632 156.958L111.632 156.957L111.585 156.829L111.536 156.709H111.534L111.526 156.686L111.525 156.683L111.506 156.638H111.509L111.42 156.391L111.407 156.355C111.373 156.264 111.34 156.173 111.307 156.081L111.255 155.956L111.254 155.954L111.195 155.777L111.195 155.776L111.089 155.434V155.434L110.972 155.081L110.97 155.075V155.051L110.933 154.913C110.89 154.764 110.848 154.613 110.808 154.461L110.759 154.289L110.758 154.288L110.735 154.194L110.735 154.193V154.192L110.71 154.079C110.656 153.859 110.606 153.638 110.558 153.415L110.523 153.299L110.522 153.297L110.522 153.294L110.482 153.045C110.441 152.836 110.402 152.626 110.367 152.414L110.358 152.377L110.347 152.333H110.351L110.334 152.216C110.307 152.047 110.282 151.878 110.258 151.707L110.216 151.443L110.215 151.441L110.215 151.44L110.203 151.299L110.195 151.213C110.152 150.847 110.116 150.477 110.088 150.104H110.088L110.085 150.071L110.084 150.045C110.072 149.883 110.062 149.72 110.053 149.557L110.05 149.517L110.05 149.516V149.506C110.033 149.183 110.021 148.856 110.016 148.528L110.015 148.514V148.487C109.993 147.218 110.055 145.916 110.196 144.588L110.215 144.381L110.215 144.379L110.233 144.264C110.267 143.963 110.306 143.661 110.349 143.358H110.349L110.35 143.353C110.398 143.009 110.452 142.664 110.512 142.316L110.522 142.233L110.522 142.232L110.522 142.231L110.591 141.866C110.618 141.719 110.646 141.571 110.674 141.424L110.675 141.418L110.676 141.417C110.839 140.575 111.032 139.725 111.254 138.869L111.254 138.867L111.254 138.866C111.552 137.715 111.902 136.552 112.303 135.381L112.313 135.35H112.31L112.328 135.303L112.335 135.28H112.336L112.37 135.186C112.626 134.45 112.901 133.711 113.195 132.97L113.224 132.896L113.225 132.894L113.23 132.883C113.286 132.743 113.342 132.603 113.399 132.464C116.637 124.549 122.084 116.42 129.268 109.234L129.605 108.898C129.726 108.779 129.846 108.661 129.967 108.543H129.959L130.012 108.499C133.937 104.672 138.127 101.359 142.398 98.6358H142.31L142.491 98.576C142.876 98.3317 143.261 98.0924 143.646 97.8577H143.643L143.662 97.8481C144.06 97.6062 144.458 97.3696 144.857 97.138H144.856L144.86 97.1359C147.401 95.6604 149.957 94.3959 152.491 93.3584C153.579 92.913 154.663 92.5097 155.74 92.1491H155.74L155.741 92.1487ZM162.478 103.578C162.489 103.566 162.505 103.564 162.519 103.571L162.525 103.575L162.867 103.853C177.326 115.681 187.204 132.295 188.011 146.201L188.029 146.529C188.118 148.405 188.039 150.182 187.799 151.85H187.801L187.796 151.869C187.66 152.813 187.472 153.723 187.235 154.595L187.235 154.598H187.247L187.224 154.644L187.223 154.645L187.222 154.649L187.219 154.654C186.804 156.164 186.24 157.564 185.536 158.844L185.524 158.87L185.523 158.873L185.521 158.877L185.511 158.889C185.436 159.025 185.359 159.159 185.281 159.292H185.284L185.253 159.343L185.244 159.363H185.241L185.232 159.378L185.227 159.386H185.246L185.246 159.386H185.248L185.192 159.442C185.093 159.607 184.991 159.769 184.887 159.93L184.838 160.007L184.838 160.007L184.838 160.007L184.579 160.396L184.578 160.397L184.577 160.398L184.496 160.506C184.386 160.661 184.274 160.814 184.16 160.965L184.059 161.105L184.058 161.106L184.058 161.107L183.864 161.343C183.77 161.46 183.674 161.575 183.577 161.689L183.492 161.791L183.491 161.792L183.49 161.793L183.444 161.842C183.298 162.01 183.149 162.174 182.996 162.335L182.901 162.441L182.605 162.738L182.275 163.056L182.274 163.057L182.117 163.196C181.863 163.427 181.601 163.65 181.333 163.865L181.282 163.907L181.282 163.907L180.928 164.19L180.927 164.191L180.926 164.192L180.591 164.427C180.388 164.571 180.182 164.711 179.972 164.848L179.841 164.935L179.84 164.935L179.451 165.183L179.451 165.184L179.45 165.184L179.072 165.397L179.072 165.397L178.905 165.487C178.83 165.529 178.755 165.57 178.679 165.61L178.659 165.621L178.659 165.621L178.647 165.627C178.503 165.703 178.358 165.778 178.211 165.851L177.845 166.034L177.843 166.035L177.442 166.212L177.442 166.212L177.006 166.401L177.005 166.401L176.58 166.566L176.58 166.566L176.538 166.582C176.406 166.632 176.273 166.681 176.14 166.728L176.132 166.732L176.13 166.732L176.124 166.734C175.867 166.825 175.606 166.912 175.342 166.994L175.247 167.027L175.246 167.027L175.245 167.027L175.063 167.078C174.905 167.125 174.745 167.17 174.584 167.213L174.325 167.287L174.323 167.287L174.127 167.331C173.958 167.373 173.788 167.413 173.617 167.451L173.369 167.511L173.368 167.511L173.366 167.512L173.211 167.538L173.15 167.549C172.941 167.59 172.729 167.629 172.516 167.666L172.401 167.688L172.399 167.689L172.399 167.689H172.399L172.397 167.689H172.397L172.239 167.712C171.997 167.75 171.752 167.785 171.505 167.816L171.409 167.83L171.406 167.831H171.404L171.235 167.849C171.151 167.859 171.067 167.869 170.983 167.878L170.877 167.889H170.877L170.393 167.937L170.392 167.937L170.231 167.947C170.034 167.962 169.834 167.975 169.634 167.986L169.355 168.007L169.353 168.008H169.347L169.039 168.013C168.831 168.02 168.622 168.025 168.411 168.027L168.292 168.031L168.291 168.031V168.031L168.152 168.03C167.874 168.03 167.593 168.027 167.31 168.02L167.218 168.019H167.217L166.82 168.008H166.816L166.124 167.972H166.12L166.119 167.972L165.806 167.948C165.712 167.941 165.618 167.934 165.523 167.927L165.011 167.89H165.01L165.009 167.889L164.654 167.846C164.468 167.826 164.282 167.805 164.096 167.782L163.89 167.76L163.889 167.759V167.759L163.599 167.719C163.554 167.713 163.509 167.706 163.464 167.7L163.382 167.689H163.382L163.359 167.685C163.201 167.663 163.043 167.64 162.885 167.615L162.749 167.595H162.747L162.744 167.594L162.226 167.512L162.225 167.512L161.588 167.394L161.588 167.394L161.311 167.337C161.16 167.307 161.009 167.277 160.858 167.245L160.42 167.158L160.419 167.157L160.061 167.07C159.831 167.017 159.6 166.962 159.369 166.905L159.24 166.874L159.239 166.874L159.044 166.823C158.906 166.788 158.768 166.752 158.629 166.715L158.06 166.568L158.059 166.567V166.567L157.505 166.402V166.402L156.857 166.213L156.856 166.213L156.308 166.038H156.307L156.302 166.036L156.283 166.03L156.086 165.967H156.091L155.653 165.824L155.652 165.824L155.362 165.719C155.183 165.657 155.004 165.594 154.824 165.53L154.439 165.399L154.437 165.399V165.399L153.884 165.186V165.186L153.223 164.939L153.222 164.938L152.728 164.732C152.655 164.703 152.582 164.674 152.51 164.644L152.008 164.443L152.007 164.443L151.442 164.195L150.781 163.912L150.78 163.912L150.423 163.74C150.273 163.672 150.124 163.603 149.975 163.533L149.555 163.346L149.553 163.345V163.345L148.987 163.062V163.062L148.328 162.744L148.327 162.743L147.761 162.449V162.449L147.101 162.107L147.1 162.106L146.534 161.8H146.534L145.893 161.45H145.893L145.885 161.445L145.88 161.443L145.764 161.379H145.769L145.315 161.12H145.315L145.307 161.115L145.299 161.111L145.192 161.049H145.194L144.659 160.738L144.101 160.412H144.101L144.092 160.407L144.086 160.404L143.98 160.341H143.983L143.443 160.018L142.886 159.669H142.886L142.877 159.664L142.847 159.645L142.773 159.598H142.774L142.559 159.463L142.556 159.461L142.553 159.458L142.544 159.45L142.53 159.441L142.489 159.417L142.488 159.416L142.403 159.363H142.402L142.394 159.357L142.264 159.274L142.264 159.274L142.246 159.262L142.228 159.25L142.087 159.156V159.156L141.887 159.027L141.886 159.026L141.877 159.02L141.786 158.962H141.789L141.726 158.92C141.679 158.889 141.631 158.857 141.584 158.826L141.344 158.673L141.344 158.673L141.026 158.46L141.023 158.458L141.01 158.446L140.854 158.34C140.764 158.28 140.674 158.219 140.584 158.158L140.256 157.935H140.256L140.247 157.929L140.234 157.92L140.152 157.865H140.153L139.834 157.646V157.646L139.808 157.629H139.808L139.798 157.622L139.702 157.558H139.71L139.436 157.359C139.21 157.199 138.985 157.038 138.761 156.875L138.644 156.797L138.643 156.797L138.643 156.796L138.277 156.525L138.277 156.525L137.711 156.1V156.1L137.464 155.924L137.463 155.923L137.463 155.923L137.121 155.652V155.652L136.508 155.18L136.507 155.18L136.403 155.094C136.238 154.964 136.072 154.833 135.908 154.701L135.871 154.673L135.871 154.673L135.211 154.142L135.152 154.095L135.151 154.094L135.073 154.032H135.076L134.538 153.587L134.538 153.587L134.008 153.139H134.007L133.854 153.009L133.854 153.009L133.507 152.703C133.367 152.582 133.227 152.46 133.087 152.337L132.888 152.172L132.887 152.171L132.886 152.171L132.501 151.817C132.413 151.738 132.326 151.659 132.238 151.58L131.778 151.169L131.718 151.108V151.108L131.505 150.909C131.124 150.556 130.746 150.199 130.371 149.838L130.269 149.741L130.268 149.74L130.136 149.61C129.706 149.193 129.28 148.77 128.858 148.341L128.558 148.041L128.039 147.499L127.543 146.979H127.543L127.532 146.968L127.296 146.72L127.296 146.72L126.554 145.907L126.519 145.872L126.518 145.871L126.517 145.87L126.179 145.486C126 145.286 125.822 145.084 125.645 144.882L125.527 144.75L125.527 144.749L125.091 144.242L125.09 144.242L125.051 144.196C124.92 144.043 124.79 143.889 124.66 143.735L124.56 143.617L124.51 143.559H124.51L124.359 143.381L124.359 143.381L123.651 142.521H123.648L123.638 142.505L123.614 142.47L123.605 142.456L123.609 142.441L123.751 141.91L123.833 141.58L123.892 141.367L123.893 141.367L124.058 140.813L124.058 140.812L124.231 140.268L124.235 140.257V140.257L124.239 140.245L124.385 139.797H124.384L124.384 139.796H124.384L124.4 139.75L124.421 139.688L124.423 139.679V139.679L124.612 139.113L124.612 139.112L124.825 138.523L125.06 137.934L125.071 137.889L125.072 137.887L125.073 137.884L125.297 137.342L125.462 136.929L125.462 136.928L125.466 136.93H125.466L125.462 136.928L125.545 136.74L125.804 136.138L125.875 135.973L125.875 135.972L126.087 135.524L126.089 135.52L126.3 135.055H126.298L126.323 135.004L126.355 134.941L126.371 134.91L126.38 134.89L126.809 134.032L126.984 133.683L126.984 133.683L127.314 133.057L127.341 133.007L127.374 133.053L127.374 133.054H127.374L127.377 133.057L128.067 134.028L128.07 134.032H128.069L128.07 134.032L128.776 134.998L129.177 135.517L129.177 135.517L129.509 135.952L129.519 135.966H129.519L130.273 136.92L131.051 137.875L131.84 138.818L132.312 139.352L132.595 139.667L132.595 139.668L132.654 139.738L132.655 139.74L133.479 140.657L134.327 141.565H134.327L134.645 141.895L135.164 142.425L135.166 142.428L135.168 142.431L135.189 142.463L136.071 143.333L136.318 143.569L136.318 143.569L136.966 144.193L136.974 144.2L137.867 145.024L137.874 145.03H137.874L138.793 145.856L138.794 145.857L138.875 145.918H138.864L139.723 146.669L140.657 147.439L140.666 147.447L141.621 148.213H141.621L142.578 148.949H142.578L142.588 148.956L142.595 148.962L143.553 149.686L144.131 150.087L144.131 150.088H144.131L144.531 150.382L145.51 151.054H145.51L146.488 151.714H146.488L147.477 152.339H147.477L148.467 152.952L148.702 153.081L148.703 153.081H148.703L148.822 153.147H148.813L149.457 153.529H149.457L150.364 154.036L150.365 154.036L150.447 154.084H150.447L151.436 154.614L152.108 154.956L152.109 154.956L152.41 155.118L152.415 155.121H152.415L153.392 155.592L154.358 156.04L155.324 156.464L155.335 156.468L156.288 156.852L156.29 156.853H156.29L157.233 157.218H157.233L157.421 157.287L158.175 157.56H158.175L159.105 157.866L160.012 158.137H160.012L160.908 158.385L160.913 158.386L160.955 158.397H160.955L161.791 158.609L162.663 158.797H162.663L163.507 158.962L163.51 158.962L164.335 159.092L165.018 159.186L165.02 159.186L165.02 159.186H165.02L165.149 159.21L165.924 159.292L166.69 159.351H166.69L166.72 159.352L167.432 159.386H167.432L168.144 159.398H168.149L168.845 159.386H168.849L169.502 159.351L170.149 159.292L170.749 159.21V159.21L171.076 159.156L171.325 159.116L171.878 158.998L172.397 158.868L172.399 158.868L172.901 158.716L173.269 158.593L173.361 158.563L173.806 158.387L174.231 158.198L174.628 157.999L175.005 157.787L175.356 157.565L175.534 157.438L175.686 157.329L175.741 157.285L175.783 157.251H175.778L175.862 157.188L176.002 157.083L176.002 157.083L176.296 156.825L176.578 156.554L176.58 156.552L176.848 156.272L177.107 155.978L177.353 155.661L177.588 155.332L177.81 154.981L178.022 154.616L178.221 154.218L178.397 153.807L178.574 153.36L178.739 152.888V152.888L178.88 152.395L179.02 151.878L179.039 151.779L179.126 151.324L179.185 150.971L179.185 150.97L179.232 150.735L179.303 150.124L179.303 150.12L179.362 149.489L179.409 148.83L179.421 148.147L179.409 147.428L179.385 146.687L179.385 146.685H179.385L179.329 145.988H179.326V145.956L179.326 145.954V145.932L179.302 145.696L179.244 145.144L179.243 145.139L179.209 144.909L179.139 144.347L179.138 144.343L179.136 144.331L178.997 143.507L178.832 142.658L178.644 141.8L178.644 141.799L178.608 141.669L178.608 141.669L178.42 140.914L178.415 140.898L178.174 140.014L178.172 140.006V140.006L177.902 139.101L177.901 139.1L177.642 138.322L177.642 138.321L177.595 138.169L177.262 137.261H177.26L177.253 137.237L176.9 136.283L176.771 135.989L176.77 135.988L176.513 135.332L176.511 135.328V135.328L176.087 134.362L176.087 134.362L175.64 133.384L175.64 133.384L175.19 132.461H175.186L175.178 132.436L175.167 132.403L174.674 131.429L174.568 131.252L174.568 131.251L174.567 131.25L174.143 130.438L173.92 130.049L173.919 130.048L173.924 130.046L173.919 130.048L173.59 129.448L173.565 129.407L173 128.469V128.469L172.989 128.451L172.516 127.684H172.515L172.505 127.667L172.472 127.614H172.475L172.4 127.479L171.765 126.492L171.756 126.483L171.753 126.48L171.752 126.477L171.103 125.511L170.432 124.532L170.114 124.096L170.113 124.096L169.728 123.559L169.724 123.553V123.553L169.241 122.905L169.241 122.905L169.006 122.587L168.252 121.621V121.621L167.496 120.679H167.496L167.492 120.674L167.486 120.666L166.708 119.723L166.706 119.72L166.436 119.417H166.435L166.425 119.404L166.421 119.4L166.373 119.346H166.376L165.911 118.796L165.906 118.791V118.791L165.902 118.787L165.082 117.872V117.872L164.375 117.106L164.373 117.104L164.244 116.951H164.244L163.385 116.056V116.056L163.303 115.974L163.302 115.974L162.513 115.173L161.634 114.317L161.629 114.312L161.04 113.746L160.734 113.452L159.86 112.671H159.859L159.848 112.66L159.813 112.625L158.883 111.801L158.878 111.797L157.953 111.011L157.953 111.011V111.011L157.94 111.001L157.001 110.235L156.998 110.233V110.233L156.998 110.233V110.233L156.044 109.479L155.077 108.748L155.067 108.741L154.11 108.029V108.028L153.275 107.451L153.273 107.451L153.136 107.347L153.133 107.345L153.086 107.312L153.088 107.311L153.136 107.285L153.749 106.955L153.75 106.954L154.375 106.636L154.713 106.467H154.686L154.848 106.399L154.849 106.399L154.989 106.34L155.602 106.046L155.603 106.046L156.204 105.774L156.805 105.503L156.806 105.503L157.405 105.256L157.408 105.255L157.997 105.007L157.998 105.007L158.575 104.783L158.576 104.783L158.967 104.639H158.937L159.151 104.571L159.154 104.57L159.154 104.57L159.732 104.37L159.733 104.369L160.299 104.192L160.853 104.016L160.854 104.015L161.408 103.862L161.95 103.709L161.951 103.708L161.952 103.708L162.458 103.579L162.463 103.578H162.478ZM170.751 133.058L171.081 133.683L171.081 133.683L171.4 134.308L171.4 134.308L171.4 134.309L171.695 134.922L171.695 134.923L171.975 135.53L171.982 135.537L172.043 135.598H172.013L172.261 136.137L172.261 136.138L172.521 136.74L172.78 137.341L172.78 137.342L173.007 137.921H173.011L173.017 137.945L173.24 138.522L173.241 138.523L173.453 139.112L173.453 139.113H173.453V139.113H173.453L173.456 139.122L173.653 139.691L173.654 139.691L173.842 140.257L173.878 140.363L173.878 140.364L174.015 140.798L174.019 140.811L174.019 140.812L174.02 140.813L174.173 141.367L174.22 141.52L174.22 141.521L174.326 141.91L174.326 141.911L174.45 142.431C174.461 142.441 174.465 142.456 174.46 142.469L174.46 142.47L174.458 142.472C174.457 142.475 174.456 142.477 174.454 142.479C174.447 142.487 174.44 142.496 174.433 142.504L174.285 142.696L174.284 142.697L173.926 143.125C173.238 143.958 172.531 144.78 171.806 145.587L171.713 145.693L171.712 145.694L171.711 145.693H171.711L171.712 145.694L171.683 145.725C171.116 146.354 170.538 146.975 169.951 147.587L169.79 147.758L169.79 147.759L169.666 147.882C168.396 149.192 167.081 150.46 165.728 151.679L165.726 151.683L165.721 151.688L165.551 151.838C165.334 152.032 165.117 152.225 164.898 152.416L164.801 152.501L164.801 152.501L164.74 152.557H164.75L164.672 152.619L164.662 152.628H164.66L164.602 152.674C164.371 152.874 164.14 153.072 163.907 153.27L163.716 153.434L163.715 153.434L163.714 153.433L163.715 153.434L163.653 153.484C163.278 153.799 162.901 154.11 162.521 154.418L162.515 154.423L162.5 154.436L162.5 154.436V154.436L162.481 154.432L162.481 154.431V154.432L162.466 154.427L161.955 154.291L161.951 154.29L161.951 154.29V154.29L161.409 154.149L161.408 154.148V154.148L160.854 153.995L160.853 153.995L160.299 153.818L160.298 153.818L159.921 153.692L159.733 153.629V153.629L159.155 153.44L159.154 153.44L158.576 153.227L158.576 153.227L157.986 153.003L157.985 153.003L157.402 152.758L157.396 152.755L157.084 152.628H157.083L157.077 152.625L157.077 152.625L156.808 152.508L156.806 152.508V152.507L156.806 152.507V152.507L156.211 152.251H156.211L156.204 152.248L156.204 152.248L155.591 151.965L155.59 151.964L155.59 151.964V151.964L155.586 151.962L155.02 151.697H155.017L155.011 151.692L155.01 151.692L155.008 151.691L154.99 151.679L154.975 151.668L154.364 151.375L154.363 151.374L153.75 151.056L153.137 150.737L153.118 150.727L153.118 150.706L153.118 150.694L153.118 150.676L153.133 150.665L154.281 149.845H154.279L154.348 149.796L154.37 149.781L155.573 148.887L155.608 148.861L155.61 148.859L155.611 148.859L156.833 147.907L158.047 146.916L159.237 145.891L160.415 144.842L160.686 144.583L160.686 144.583L160.687 144.584L160.686 144.583L161.558 143.757L161.745 143.571H161.743L161.798 143.517L161.805 143.51L161.816 143.5H161.816L162.655 142.683L162.69 142.649L163.362 141.955H163.362L163.42 141.895L163.43 141.884H163.431L163.797 141.506L163.938 141.353L164.445 140.799L164.446 140.798L164.87 140.35L165.918 139.172L165.977 139.102L165.977 139.101L166.484 138.511L166.484 138.511L166.934 137.992H166.932L166.978 137.935L166.988 137.921H166.989L167.462 137.333L167.462 137.333L167.933 136.767L167.955 136.734L167.956 136.733L167.957 136.732L168.428 136.13L168.855 135.583L168.888 135.541L169.807 134.304L170.691 133.054L170.724 133.007L170.751 133.058ZM124.323 90.5832C128.711 89.5812 133.857 89.8016 139.418 91.2735L139.529 91.3001H139.518C140.893 91.6676 142.294 92.1113 143.714 92.632L143.994 92.7354L144 92.7385C144.005 92.742 144.01 92.7469 144.012 92.7525L144.053 92.7672L144.005 92.7945C144.001 92.798 143.996 92.8006 143.991 92.8021L143.986 92.8051L142.987 93.3734L142.778 93.4924L141.582 94.2079L141.582 94.208L140.903 94.6209L140.003 95.1863L140.003 95.1865L139.543 95.4813L139.543 95.4812L139.059 95.7925L138.563 96.1249L138.082 96.448L138.082 96.4478L137.189 97.0711L137.18 97.0804L137.177 97.0826L137.175 97.0842L136.508 97.5555L136.385 97.6451H136.387L136.359 97.6634L135.749 98.1058L135.631 98.1925L135.419 98.3529H135.424L135.338 98.4152L135.338 98.4154L135.328 98.4236H135.327L135.291 98.4493L135.091 98.6005V98.6104L135.072 98.6202L135.052 98.63L134.998 98.6705L134.953 98.7066H134.972L134.877 98.7701L134.868 98.7774H134.866L134.849 98.7892L134.787 98.83L134.594 98.9763L134.549 99.0161L134.537 99.0269L134.531 99.0261L134.518 99.0329L134.508 99.0378L134.498 99.0364L134.497 99.0363V99.0364L134.443 99.0296L134.403 99.0247L134.402 99.0246L134.401 99.0244L133.873 98.9305L133.872 98.9304V98.9302L133.572 98.889L133.272 98.8478V98.8479L132.67 98.7772V98.7771L132.084 98.7184H132.083L132.082 98.7183L131.519 98.6714H131.518L131.517 98.6713L131.242 98.654L130.951 98.6358V98.6357L130.41 98.624H130.103L130.102 98.6239L129.882 98.6123L129.778 98.6238L129.776 98.624H129.363L128.857 98.6474L128.857 98.6475L128.362 98.6831L128.361 98.6832H128.36L127.892 98.7299L127.434 98.7886L127.434 98.7887L126.997 98.8594L126.998 98.8595L126.575 98.9298L126.575 98.9299L126.21 99.0132L126.163 99.0241L125.774 99.1184L125.405 99.2222L125.398 99.224L125.398 99.2241L125.213 99.278L125.033 99.3302L124.694 99.447L124.694 99.4471L124.365 99.5762L124.365 99.5763L124.047 99.7178L123.741 99.8591L123.448 100.011L123.448 100.011L123.166 100.164L122.896 100.328L122.638 100.505L122.637 100.505L122.394 100.679L122.392 100.68L122.392 100.68L122.191 100.841L121.921 101.057L121.5 101.455L121.499 101.456L121.499 101.456L121.1 101.878L120.724 102.35L120.548 102.596L120.373 102.852L120.291 103.005L120.291 103.005L120.29 103.006L120.224 103.116L120.22 103.123L120.22 103.124L120.055 103.405L119.903 103.698L119.854 103.813H119.857L119.833 103.861L119.833 103.863L119.832 103.864L119.832 103.865L119.762 104.005L119.632 104.322L119.633 104.322L119.503 104.65L119.476 104.733L119.468 104.756L119.468 104.756V104.756L119.468 104.758L119.374 105.004L119.268 105.368L119.268 105.368H119.268L119.268 105.368L119.263 105.388L119.186 105.663V105.663L119.162 105.745L119.162 105.745L119.056 106.133L118.983 106.502H118.984L118.976 106.538L118.974 106.544L118.974 106.544L118.894 106.968L118.892 106.98L118.821 107.428L118.815 107.488L118.81 107.544L118.806 107.575H118.805L118.762 107.875L118.715 108.356L118.715 108.356L118.715 108.357L118.715 108.507V108.509L118.715 108.51L118.692 108.839L118.692 108.839L118.668 109.346L118.668 109.347L118.656 109.864V110.394L118.668 110.948L118.702 111.468H118.704V111.5L118.744 112.002L118.751 112.077L118.798 112.549V112.549L118.809 112.66L118.81 112.667L118.88 113.255L118.974 113.868L119.08 114.493L119.083 114.508L119.074 114.52L118.944 114.696L118.944 114.697L118.212 115.661L118.202 115.675L117.365 116.831L117.365 116.831L116.553 117.996L116.544 118.013H116.541L115.915 118.941L115.915 118.942L115.753 119.172L115.75 119.177L115.741 119.191L115.267 119.931L115.267 119.932L115.267 119.932L114.985 120.355L114.985 120.355L114.631 120.933L114.631 120.934L114.242 121.546L114.242 121.546L114.239 121.552L114.018 121.935L114.018 121.935L113.539 122.741L113.535 122.748L113.429 122.937V122.937L113.028 123.645L113.028 123.645L112.857 123.941C112.856 123.948 112.852 123.955 112.846 123.96L112.814 124.016L112.788 123.946L112.67 123.64L112.669 123.639L112.422 122.932L112.351 122.743L112.351 122.742L112.08 121.928L112.079 121.927L112.005 121.681C111.971 121.577 111.939 121.473 111.906 121.369L111.761 120.926L111.761 120.924L111.596 120.346V120.346L111.478 119.922L111.266 119.167L111.265 119.166V119.166L111.206 118.93L111.206 118.929L110.983 117.986L110.971 117.939L110.97 117.938L110.735 116.841L110.734 116.838V116.813L110.727 116.775C110.676 116.519 110.628 116.265 110.582 116.011L110.534 115.757L110.511 115.663L110.511 115.661L110.51 115.66L110.357 114.681L110.357 114.68L110.357 114.678L110.346 114.521C110.32 114.332 110.296 114.143 110.273 113.954L110.263 113.878L110.231 113.638H110.23L110.227 113.606L110.227 113.602L110.222 113.567H110.223L110.192 113.264V113.264L110.136 112.706H110.136L110.133 112.674L110.124 112.588H110.122L110.121 112.554L110.121 112.553L110.117 112.517H110.119L110.102 112.176C110.088 111.976 110.076 111.776 110.066 111.578L110.063 111.53L110 111.468H110.049L110.038 110.95L110.026 110.502L110.026 110.501H110.026V110.319C110.024 110.106 110.024 109.893 110.026 109.681V109.344L110.027 109.343L110.027 109.341L110.04 109.053C110.045 108.894 110.051 108.736 110.059 108.579L110.062 108.507L110.062 108.354V108.353L110.062 108.352L110.097 107.868L110.118 107.575H110.117L110.121 107.541L110.121 107.538L110.121 107.537L110.133 107.419V107.419L110.18 106.97V106.97L110.227 106.582V106.535L110.227 106.532L110.283 106.21C110.292 106.147 110.301 106.083 110.31 106.02L110.34 105.771H110.339L110.345 105.731L110.345 105.731L110.357 105.648L110.357 105.647L110.357 105.646L110.416 105.351L110.487 104.986L110.534 104.738L110.534 104.737L110.558 104.632L110.629 104.301L110.629 104.301L110.69 104.026H110.688L110.699 103.982L110.735 103.84L110.735 103.839L110.782 103.674L110.804 103.598C110.832 103.488 110.862 103.378 110.892 103.269L110.924 103.141H110.922L110.936 103.095L110.942 103.07H110.943L110.971 102.978V102.977L111.004 102.87H111.004L111.017 102.829L111.018 102.824L111.026 102.799H111.026L111.101 102.564L111.101 102.564L111.126 102.489C111.147 102.423 111.169 102.358 111.19 102.292L111.23 102.153L111.231 102.152L111.231 102.151L111.337 101.844L111.337 101.843L111.345 101.846L111.338 101.843L111.502 101.42L111.526 101.349L111.526 101.348L111.527 101.346L111.595 101.186C111.656 101.035 111.717 100.886 111.781 100.737L111.821 100.641L111.844 100.571L111.845 100.568L111.847 100.565L111.898 100.472C111.903 100.46 111.909 100.448 111.914 100.437L111.955 100.334H111.95L111.975 100.283L111.983 100.263H111.985L112.058 100.119L112.128 99.9656V99.9655L112.176 99.8624H112.169L112.2 99.8092L112.276 99.6794C112.293 99.6461 112.31 99.6127 112.327 99.5796L112.353 99.5282L112.362 99.5086H112.363L112.38 99.4775C112.403 99.4349 112.425 99.3923 112.448 99.3499L112.482 99.2805L112.483 99.2804L112.492 99.261H112.493L112.541 99.1743L112.589 99.08L112.591 99.075L112.595 99.071L112.604 99.062L112.609 99.0545C112.638 99.0019 112.668 98.9496 112.697 98.8974L112.706 98.8796L112.706 98.8795L112.707 98.8776L112.709 98.8757L112.709 98.8756L112.717 98.8626C112.731 98.838 112.746 98.8137 112.76 98.7892H112.758L112.79 98.7355L112.799 98.7184H112.8L112.818 98.6897L112.822 98.6832H112.814L112.848 98.631L112.849 98.6299L112.85 98.628L112.87 98.5977L112.873 98.5939L112.883 98.5728L112.891 98.557V98.5416H112.891V98.5415H112.906L112.972 98.4236H112.97L113.002 98.3699L113.005 98.3651L113.012 98.3529H113.013L113.038 98.311L113.039 98.3097L113.431 97.7159H113.423L113.462 97.6628L113.471 97.6452H113.471L113.471 97.6451H113.475L113.924 97.0344L113.926 97.0324L113.927 97.0304L113.939 97.0191L113.985 96.96C114.083 96.8327 114.183 96.7068 114.284 96.5825L114.432 96.3966L114.433 96.3951L114.584 96.2258C114.69 96.1033 114.797 95.9825 114.907 95.8631L115.011 95.7464L115.011 95.7457L115.012 95.745L115.079 95.6781C115.185 95.5662 115.292 95.4554 115.401 95.3463C115.441 95.3063 115.481 95.2665 115.522 95.227L115.613 95.1322L115.614 95.1313L115.615 95.1305L115.757 95.001C115.897 94.8695 116.039 94.7404 116.183 94.614H116.177L116.248 94.5552H116.247L116.304 94.5083C116.483 94.3542 116.665 94.2042 116.851 94.0579L116.925 93.9972L116.925 93.9965L116.926 93.996L117.011 93.9332C117.641 93.448 118.308 93.007 119.007 92.6104L119.122 92.5433L119.123 92.5427L119.124 92.5423L119.194 92.506C119.421 92.3811 119.651 92.2608 119.884 92.1451L119.913 92.1297L119.914 92.1293L119.915 92.1289L119.953 92.1113C120.192 91.9939 120.435 91.8813 120.681 91.7734L120.728 91.7517L120.729 91.7512L120.73 91.7509L120.764 91.7373C121.125 91.5812 121.494 91.4357 121.869 91.3001H121.858L122.041 91.2388C122.389 91.1169 122.743 91.0037 123.103 90.8992H123.074L123.31 90.84C123.611 90.7558 123.917 90.6776 124.226 90.6055L124.271 90.5936L124.272 90.5933L124.273 90.593L124.323 90.5832Z" fill="white"/>
<path d="M221.253 152V106.56H238.277C243.824 106.56 248.027 107.541 250.885 109.504C253.787 111.467 255.237 114.581 255.237 118.848C255.237 120.768 254.832 122.453 254.021 123.904C253.253 125.312 252.101 126.421 250.565 127.232C249.072 128.043 247.259 128.491 245.125 128.576L245.061 128.448C248.944 128.576 251.931 129.643 254.021 131.648C256.112 133.611 257.157 136.235 257.157 139.52C257.157 143.701 255.707 146.837 252.805 148.928C249.947 150.976 245.872 152 240.581 152H221.253ZM229.573 144.96H240.197C242.8 144.96 244.848 144.427 246.341 143.36C247.877 142.293 248.645 140.715 248.645 138.624C248.645 136.533 247.899 134.933 246.405 133.824C244.912 132.715 242.843 132.16 240.197 132.16H229.573V144.96ZM229.573 125.632H238.021C240.752 125.632 242.885 125.12 244.421 124.096C245.957 123.072 246.725 121.579 246.725 119.616C246.725 117.568 245.979 116.053 244.485 115.072C242.992 114.091 240.837 113.6 238.021 113.6H229.573V125.632ZM262.568 152V117.824H270.248L270.568 127.296L269.864 127.168C270.376 123.883 271.336 121.515 272.744 120.064C274.195 118.571 276.158 117.824 278.632 117.824H281.768V124.864H278.568C276.819 124.864 275.368 125.12 274.216 125.632C273.064 126.144 272.19 126.955 271.592 128.064C271.038 129.131 270.76 130.539 270.76 132.288V152H262.568ZM299.121 152.768C295.751 152.768 292.785 152.043 290.225 150.592C287.708 149.099 285.745 147.008 284.337 144.32C282.972 141.632 282.289 138.496 282.289 134.912C282.289 131.285 282.972 128.149 284.337 125.504C285.745 122.816 287.708 120.747 290.225 119.296C292.785 117.803 295.751 117.056 299.121 117.056C302.492 117.056 305.436 117.803 307.953 119.296C310.471 120.747 312.412 122.816 313.777 125.504C315.185 128.149 315.889 131.285 315.889 134.912C315.889 138.496 315.185 141.632 313.777 144.32C312.412 147.008 310.471 149.099 307.953 150.592C305.436 152.043 302.492 152.768 299.121 152.768ZM299.121 146.112C301.767 146.112 303.793 145.131 305.201 143.168C306.652 141.205 307.377 138.453 307.377 134.912C307.377 131.413 306.652 128.683 305.201 126.72C303.793 124.715 301.767 123.712 299.121 123.712C296.476 123.712 294.428 124.715 292.977 126.72C291.527 128.683 290.801 131.413 290.801 134.912C290.801 138.453 291.527 141.205 292.977 143.168C294.428 145.131 296.476 146.112 299.121 146.112ZM326.271 152L315.967 117.824H324.351L331.007 142.72L337.855 117.824H345.023L351.935 142.72L358.591 117.824H366.975L356.671 152H348.223L341.439 129.088L334.719 152H326.271ZM382.946 152.768C379.576 152.768 376.738 152.277 374.434 151.296C372.173 150.315 370.424 148.949 369.186 147.2C367.949 145.451 367.245 143.467 367.074 141.248L375.458 140.864C375.757 142.656 376.504 144.043 377.698 145.024C378.893 146.005 380.664 146.496 383.01 146.496C384.93 146.496 386.424 146.197 387.49 145.6C388.6 144.96 389.154 143.979 389.154 142.656C389.154 141.888 388.962 141.248 388.578 140.736C388.194 140.224 387.469 139.776 386.402 139.392C385.336 139.008 383.757 138.624 381.666 138.24C378.168 137.643 375.416 136.917 373.41 136.064C371.405 135.168 369.976 134.059 369.122 132.736C368.312 131.413 367.906 129.771 367.906 127.808C367.906 124.608 369.122 122.027 371.554 120.064C374.029 118.059 377.634 117.056 382.37 117.056C385.442 117.056 388.024 117.568 390.114 118.592C392.205 119.573 393.826 120.939 394.978 122.688C396.173 124.395 396.92 126.357 397.218 128.576L388.962 128.96C388.749 127.808 388.365 126.805 387.81 125.952C387.256 125.099 386.509 124.459 385.57 124.032C384.632 123.563 383.522 123.328 382.242 123.328C380.322 123.328 378.872 123.712 377.89 124.48C376.909 125.248 376.418 126.272 376.418 127.552C376.418 128.448 376.632 129.195 377.058 129.792C377.528 130.389 378.274 130.88 379.298 131.264C380.322 131.605 381.688 131.925 383.394 132.224C386.978 132.779 389.794 133.504 391.842 134.4C393.933 135.253 395.405 136.363 396.258 137.728C397.154 139.051 397.602 140.651 397.602 142.528C397.602 144.704 396.984 146.56 395.746 148.096C394.552 149.632 392.845 150.805 390.626 151.616C388.45 152.384 385.89 152.768 382.946 152.768ZM416.86 152.768C413.446 152.768 410.481 152.043 407.964 150.592C405.446 149.099 403.505 147.008 402.14 144.32C400.774 141.632 400.092 138.496 400.092 134.912C400.092 131.328 400.774 128.213 402.14 125.568C403.505 122.88 405.425 120.789 407.9 119.296C410.417 117.803 413.34 117.056 416.668 117.056C419.91 117.056 422.748 117.781 425.18 119.232C427.654 120.683 429.553 122.773 430.876 125.504C432.198 128.235 432.86 131.52 432.86 135.36V137.216H408.604C408.774 140.203 409.585 142.464 411.036 144C412.529 145.493 414.492 146.24 416.924 146.24C418.758 146.24 420.273 145.835 421.468 145.024C422.705 144.171 423.558 142.997 424.028 141.504L432.412 142.016C431.473 145.344 429.617 147.968 426.844 149.888C424.113 151.808 420.785 152.768 416.86 152.768ZM408.604 131.712H424.412C424.241 128.939 423.452 126.891 422.044 125.568C420.636 124.203 418.844 123.52 416.668 123.52C414.492 123.52 412.678 124.224 411.228 125.632C409.82 127.04 408.945 129.067 408.604 131.712ZM437.343 152V117.824H445.023L445.343 127.296L444.639 127.168C445.151 123.883 446.111 121.515 447.519 120.064C448.97 118.571 450.933 117.824 453.407 117.824H456.543V124.864H453.343C451.594 124.864 450.143 125.12 448.991 125.632C447.839 126.144 446.965 126.955 446.367 128.064C445.813 129.131 445.535 130.539 445.535 132.288V152H437.343ZM492.672 153.024C489.002 153.024 485.781 152.32 483.008 150.912C480.277 149.504 478.165 147.52 476.672 144.96C475.221 142.357 474.496 139.285 474.496 135.744V106.496H482.816V135.744C482.816 138.944 483.669 141.419 485.376 143.168C487.082 144.917 489.514 145.792 492.672 145.792C495.829 145.792 498.261 144.917 499.968 143.168C501.717 141.419 502.592 138.944 502.592 135.744V106.496H510.912V135.744C510.912 139.285 510.165 142.357 508.672 144.96C507.178 147.52 505.066 149.504 502.336 150.912C499.648 152.32 496.426 153.024 492.672 153.024ZM531.534 152.768C528.163 152.768 525.326 152.277 523.022 151.296C520.76 150.315 519.011 148.949 517.774 147.2C516.536 145.451 515.832 143.467 515.662 141.248L524.046 140.864C524.344 142.656 525.091 144.043 526.286 145.024C527.48 146.005 529.251 146.496 531.598 146.496C533.518 146.496 535.011 146.197 536.078 145.6C537.187 144.96 537.742 143.979 537.742 142.656C537.742 141.888 537.55 141.248 537.166 140.736C536.782 140.224 536.056 139.776 534.99 139.392C533.923 139.008 532.344 138.624 530.254 138.24C526.755 137.643 524.003 136.917 521.998 136.064C519.992 135.168 518.563 134.059 517.71 132.736C516.899 131.413 516.494 129.771 516.494 127.808C516.494 124.608 517.71 122.027 520.142 120.064C522.616 118.059 526.222 117.056 530.958 117.056C534.03 117.056 536.611 117.568 538.702 118.592C540.792 119.573 542.414 120.939 543.566 122.688C544.76 124.395 545.507 126.357 545.806 128.576L537.55 128.96C537.336 127.808 536.952 126.805 536.398 125.952C535.843 125.099 535.096 124.459 534.158 124.032C533.219 123.563 532.11 123.328 530.83 123.328C528.91 123.328 527.459 123.712 526.478 124.48C525.496 125.248 525.006 126.272 525.006 127.552C525.006 128.448 525.219 129.195 525.646 129.792C526.115 130.389 526.862 130.88 527.886 131.264C528.91 131.605 530.275 131.925 531.982 132.224C535.566 132.779 538.382 133.504 540.43 134.4C542.52 135.253 543.992 136.363 544.846 137.728C545.742 139.051 546.19 140.651 546.19 142.528C546.19 144.704 545.571 146.56 544.334 148.096C543.139 149.632 541.432 150.805 539.214 151.616C537.038 152.384 534.478 152.768 531.534 152.768ZM565.447 152.768C562.034 152.768 559.069 152.043 556.551 150.592C554.034 149.099 552.093 147.008 550.727 144.32C549.362 141.632 548.679 138.496 548.679 134.912C548.679 131.328 549.362 128.213 550.727 125.568C552.093 122.88 554.013 120.789 556.487 119.296C559.005 117.803 561.927 117.056 565.255 117.056C568.498 117.056 571.335 117.781 573.767 119.232C576.242 120.683 578.141 122.773 579.463 125.504C580.786 128.235 581.447 131.52 581.447 135.36V137.216H557.191C557.362 140.203 558.173 142.464 559.623 144C561.117 145.493 563.079 146.24 565.511 146.24C567.346 146.24 568.861 145.835 570.055 145.024C571.293 144.171 572.146 142.997 572.615 141.504L580.999 142.016C580.061 145.344 578.205 147.968 575.431 149.888C572.701 151.808 569.373 152.768 565.447 152.768ZM557.191 131.712H572.999C572.829 128.939 572.039 126.891 570.631 125.568C569.223 124.203 567.431 123.52 565.255 123.52C563.079 123.52 561.266 124.224 559.815 125.632C558.407 127.04 557.533 129.067 557.191 131.712Z" fill="white"/>
<path d="M619.245 153.024C615.106 153.024 611.543 152.064 608.557 150.144C605.57 148.224 603.266 145.493 601.645 141.952C600.023 138.411 599.213 134.208 599.213 129.344C599.213 124.437 600.023 120.213 601.645 116.672C603.266 113.131 605.57 110.4 608.557 108.48C611.543 106.517 615.106 105.536 619.245 105.536C623.383 105.536 626.946 106.517 629.933 108.48C632.962 110.4 635.266 113.131 636.845 116.672C638.466 120.213 639.277 124.437 639.277 129.344C639.277 134.208 638.466 138.411 636.845 141.952C635.266 145.493 632.962 148.224 629.933 150.144C626.946 152.064 623.383 153.024 619.245 153.024ZM619.245 149.888C622.701 149.888 625.666 149.056 628.141 147.392C630.658 145.728 632.578 143.36 633.901 140.288C635.223 137.216 635.885 133.568 635.885 129.344C635.885 125.077 635.223 121.408 633.901 118.336C632.578 115.264 630.658 112.896 628.141 111.232C625.666 109.525 622.701 108.672 619.245 108.672C615.831 108.672 612.866 109.525 610.349 111.232C607.874 112.896 605.954 115.264 604.589 118.336C603.266 121.408 602.605 125.077 602.605 129.344C602.605 133.568 603.266 137.216 604.589 140.288C605.954 143.36 607.874 145.728 610.349 147.392C612.866 149.056 615.831 149.888 619.245 149.888ZM661.336 153.024C658.008 153.024 655.064 152.363 652.504 151.04C649.987 149.675 647.982 147.861 646.488 145.6C644.995 143.296 644.206 140.693 644.12 137.792L647.448 137.536C647.576 139.883 648.216 141.995 649.368 143.872C650.52 145.707 652.12 147.179 654.168 148.288C656.259 149.355 658.691 149.888 661.464 149.888C663.811 149.888 665.88 149.525 667.672 148.8C669.507 148.032 670.936 146.965 671.96 145.6C673.027 144.192 673.56 142.485 673.56 140.48C673.56 138.944 673.176 137.557 672.408 136.32C671.683 135.083 670.296 133.952 668.248 132.928C666.243 131.904 663.278 130.923 659.352 129.984C655.982 129.173 653.251 128.277 651.16 127.296C649.07 126.315 647.534 125.077 646.552 123.584C645.571 122.091 645.08 120.192 645.08 117.888C645.08 115.541 645.656 113.451 646.808 111.616C648.003 109.739 649.71 108.267 651.928 107.2C654.147 106.091 656.835 105.536 659.992 105.536C663.32 105.536 666.136 106.197 668.44 107.52C670.744 108.843 672.515 110.592 673.752 112.768C674.99 114.901 675.672 117.205 675.8 119.68L672.408 119.936C672.323 117.845 671.79 115.968 670.808 114.304C669.827 112.597 668.419 111.232 666.584 110.208C664.75 109.184 662.51 108.672 659.864 108.672C656.28 108.672 653.486 109.547 651.48 111.296C649.475 113.003 648.472 115.2 648.472 117.888C648.472 119.552 648.835 120.939 649.56 122.048C650.286 123.115 651.544 124.053 653.336 124.864C655.128 125.632 657.667 126.4 660.952 127.168C665.091 128.149 668.312 129.28 670.616 130.56C672.963 131.797 674.584 133.227 675.48 134.848C676.419 136.469 676.888 138.325 676.888 140.416C676.888 143.019 676.206 145.259 674.84 147.136C673.475 149.013 671.619 150.464 669.272 151.488C666.926 152.512 664.28 153.024 661.336 153.024ZM699.666 153.024C696.338 153.024 693.394 152.363 690.834 151.04C688.317 149.675 686.312 147.861 684.818 145.6C683.325 143.296 682.536 140.693 682.45 137.792L685.778 137.536C685.906 139.883 686.546 141.995 687.698 143.872C688.85 145.707 690.45 147.179 692.498 148.288C694.589 149.355 697.021 149.888 699.794 149.888C702.141 149.888 704.21 149.525 706.002 148.8C707.837 148.032 709.266 146.965 710.29 145.6C711.357 144.192 711.89 142.485 711.89 140.48C711.89 138.944 711.506 137.557 710.738 136.32C710.013 135.083 708.626 133.952 706.578 132.928C704.573 131.904 701.608 130.923 697.682 129.984C694.312 129.173 691.581 128.277 689.49 127.296C687.4 126.315 685.864 125.077 684.882 123.584C683.901 122.091 683.41 120.192 683.41 117.888C683.41 115.541 683.986 113.451 685.138 111.616C686.333 109.739 688.04 108.267 690.258 107.2C692.477 106.091 695.165 105.536 698.322 105.536C701.65 105.536 704.466 106.197 706.77 107.52C709.074 108.843 710.845 110.592 712.082 112.768C713.32 114.901 714.002 117.205 714.13 119.68L710.738 119.936C710.653 117.845 710.12 115.968 709.138 114.304C708.157 112.597 706.749 111.232 704.914 110.208C703.08 109.184 700.84 108.672 698.194 108.672C694.61 108.672 691.816 109.547 689.81 111.296C687.805 113.003 686.802 115.2 686.802 117.888C686.802 119.552 687.165 120.939 687.89 122.048C688.616 123.115 689.874 124.053 691.666 124.864C693.458 125.632 695.997 126.4 699.282 127.168C703.421 128.149 706.642 129.28 708.946 130.56C711.293 131.797 712.914 133.227 713.81 134.848C714.749 136.469 715.218 138.325 715.218 140.416C715.218 143.019 714.536 145.259 713.17 147.136C711.805 149.013 709.949 150.464 707.602 151.488C705.256 152.512 702.61 153.024 699.666 153.024Z" fill="#2563EB"/>
<path d="M32.51 42.92V42.12H39.72V42.92H32.51ZM32.51 38.73V37.93H39.72V38.73H32.51ZM33.62 44.03V36.82H34.42V44.03H33.62ZM37.81 44.03V36.82H38.61V44.03H37.81ZM46.6085 44V43.01H48.3085V37.89H46.6085V36.9H51.0485V37.89H49.3485V43.01H51.0485V44H46.6085ZM54.2246 43.14L53.0046 38.06L53.1146 38.05V44H52.1046V36.9H53.5046L54.8246 42.29H54.4246L55.7446 36.9H57.1446V44H56.1346V38.05L56.2446 38.06L55.0246 43.14H54.2246ZM57.6607 44L59.7407 36.9H61.1007L63.1807 44H62.0907L60.4207 37.99L58.7507 44H57.6607ZM58.8207 42.15L59.1407 41.18H61.7007L62.0207 42.15H58.8207ZM66.2068 44.16C65.6935 44.16 65.2401 44.02 64.8468 43.74C64.4535 43.46 64.1435 43.0467 63.9168 42.5C63.6901 41.9467 63.5768 41.2667 63.5768 40.46C63.5768 39.6933 63.6835 39.0333 63.8968 38.48C64.1101 37.9267 64.4135 37.5 64.8068 37.2C65.2068 36.8933 65.6835 36.74 66.2368 36.74C66.6835 36.74 67.0768 36.8367 67.4168 37.03C67.7568 37.2233 68.0401 37.4967 68.2668 37.85C68.5001 38.2033 68.6668 38.6167 68.7668 39.09L67.6768 39.16C67.5768 38.7267 67.4068 38.38 67.1668 38.12C66.9335 37.86 66.6268 37.73 66.2468 37.73C65.9135 37.73 65.6268 37.8367 65.3868 38.05C65.1535 38.2567 64.9735 38.5633 64.8468 38.97C64.7268 39.3767 64.6668 39.8733 64.6668 40.46C64.6668 41.04 64.7301 41.5333 64.8568 41.94C64.9835 42.34 65.1668 42.6467 65.4068 42.86C65.6535 43.0667 65.9501 43.17 66.2968 43.17C66.6035 43.17 66.8668 43.0933 67.0868 42.94C67.3068 42.78 67.4768 42.56 67.5968 42.28C67.7235 41.9933 67.7935 41.6633 67.8068 41.29H66.2468V40.38H68.7768V44H67.9268L67.8768 42.37L68.1468 42.36C68.0735 42.7 67.9535 43.0067 67.7868 43.28C67.6268 43.5533 67.4168 43.77 67.1568 43.93C66.8968 44.0833 66.5801 44.16 66.2068 44.16ZM69.8929 44V36.9H74.2529V37.89H70.9429V39.96H74.1329V40.92H70.9429V43.01H74.3329V44H69.8929ZM81.5851 44V36.9H86.0251V37.87H82.0351L82.6351 37.3V40.56L82.0351 40.05H85.8451V41.01H82.0351L82.6351 40.5V44H81.5851ZM89.4012 44.16C88.6412 44.16 88.0478 43.9267 87.6212 43.46C87.1945 42.9933 86.9812 42.35 86.9812 41.53V36.9H88.0312V41.57C88.0312 42.09 88.1478 42.49 88.3812 42.77C88.6145 43.0433 88.9545 43.18 89.4012 43.18C89.8478 43.18 90.1878 43.0433 90.4212 42.77C90.6545 42.49 90.7712 42.09 90.7712 41.57V36.9H91.8212V41.53C91.8212 42.35 91.6078 42.9933 91.1812 43.46C90.7545 43.9267 90.1612 44.16 89.4012 44.16ZM93.1773 44V36.9H94.2273V43.6L93.5873 43.01H97.6173V44H93.1773ZM98.9734 44V36.9H100.023V43.6L99.3834 43.01H103.413V44H98.9734ZM106.269 44V41.08L104.159 36.9H105.319L106.789 40L108.259 36.9H109.419L107.319 41.08V44H106.269ZM116.362 44V36.9H117.412V43.6L116.772 43.01H120.802V44H116.362ZM124.178 44.16C123.611 44.16 123.131 44.0167 122.738 43.73C122.351 43.4433 122.054 43.0233 121.848 42.47C121.641 41.9167 121.538 41.2467 121.538 40.46C121.538 39.66 121.641 38.9833 121.848 38.43C122.054 37.8767 122.351 37.4567 122.738 37.17C123.131 36.8833 123.611 36.74 124.178 36.74C124.744 36.74 125.224 36.8833 125.618 37.17C126.011 37.4567 126.308 37.8767 126.508 38.43C126.714 38.9833 126.818 39.66 126.818 40.46C126.818 41.2467 126.714 41.9167 126.508 42.47C126.308 43.0233 126.011 43.4433 125.618 43.73C125.224 44.0167 124.744 44.16 124.178 44.16ZM124.178 43.18C124.511 43.18 124.791 43.08 125.018 42.88C125.251 42.68 125.428 42.3767 125.548 41.97C125.668 41.5633 125.728 41.06 125.728 40.46C125.728 39.86 125.668 39.3567 125.548 38.95C125.428 38.5367 125.251 38.23 125.018 38.03C124.791 37.8233 124.511 37.72 124.178 37.72C123.844 37.72 123.561 37.8233 123.328 38.03C123.101 38.23 122.928 38.5367 122.808 38.95C122.688 39.3567 122.628 39.86 122.628 40.46C122.628 41.06 122.688 41.5633 122.808 41.97C122.928 42.3767 123.101 42.68 123.328 42.88C123.561 43.08 123.844 43.18 124.178 43.18ZM127.214 44L129.294 36.9H130.654L132.734 44H131.644L129.974 37.99L128.304 44H127.214ZM128.374 42.15L128.694 41.18H131.254L131.574 42.15H128.374ZM133.6 44V36.9H135.33C135.957 36.9 136.5 37.04 136.96 37.32C137.427 37.5933 137.783 37.9967 138.03 38.53C138.283 39.0567 138.41 39.7 138.41 40.46C138.41 41.22 138.283 41.8633 138.03 42.39C137.783 42.9167 137.427 43.3167 136.96 43.59C136.5 43.8633 135.957 44 135.33 44H133.6ZM134.65 43.01H135.3C135.947 43.01 136.443 42.8 136.79 42.38C137.143 41.9533 137.32 41.3133 137.32 40.46C137.32 39.6067 137.143 38.9667 136.79 38.54C136.443 38.1067 135.947 37.89 135.3 37.89H134.65V43.01ZM139.446 44V36.9H143.806V37.89H140.496V39.96H143.686V40.92H140.496V43.01H143.886V44H139.446ZM145.192 44V36.9H146.922C147.549 36.9 148.092 37.04 148.552 37.32C149.019 37.5933 149.375 37.9967 149.622 38.53C149.875 39.0567 150.002 39.7 150.002 40.46C150.002 41.22 149.875 41.8633 149.622 42.39C149.375 42.9167 149.019 43.3167 148.552 43.59C148.092 43.8633 147.549 44 146.922 44H145.192ZM146.242 43.01H146.892C147.539 43.01 148.035 42.8 148.382 42.38C148.735 41.9533 148.912 41.3133 148.912 40.46C148.912 39.6067 148.735 38.9667 148.382 38.54C148.035 38.1067 147.539 37.89 146.892 37.89H146.242V43.01Z" fill="#52525B"/>
<path d="M685.84 44.04V36.72H693.16V44.04H685.84ZM700.506 42.94L703.226 37.91L704.026 37.96L701.306 42.99L700.506 42.94ZM702.266 44.16C701.746 44.16 701.296 44.01 700.916 43.71C700.536 43.41 700.246 42.9833 700.046 42.43C699.846 41.8767 699.746 41.22 699.746 40.46C699.746 39.6933 699.846 39.0333 700.046 38.48C700.246 37.9267 700.536 37.5 700.916 37.2C701.296 36.8933 701.746 36.74 702.266 36.74C702.793 36.74 703.243 36.8933 703.616 37.2C703.996 37.5 704.286 37.9267 704.486 38.48C704.686 39.0333 704.786 39.6933 704.786 40.46C704.786 41.22 704.686 41.8767 704.486 42.43C704.286 42.9833 703.996 43.41 703.616 43.71C703.243 44.01 702.793 44.16 702.266 44.16ZM702.266 43.18C702.566 43.18 702.82 43.0733 703.026 42.86C703.24 42.64 703.403 42.3267 703.516 41.92C703.636 41.5133 703.696 41.0267 703.696 40.46C703.696 39.88 703.636 39.3867 703.516 38.98C703.403 38.5733 703.24 38.2633 703.026 38.05C702.82 37.83 702.566 37.72 702.266 37.72C701.973 37.72 701.72 37.83 701.506 38.05C701.293 38.2633 701.126 38.5733 701.006 38.98C700.893 39.3867 700.836 39.88 700.836 40.46C700.836 41.0267 700.893 41.5133 701.006 41.92C701.126 42.3267 701.293 42.64 701.506 42.86C701.72 43.0733 701.973 43.18 702.266 43.18ZM706.302 42.94L709.022 37.91L709.822 37.96L707.102 42.99L706.302 42.94ZM708.062 44.16C707.542 44.16 707.092 44.01 706.712 43.71C706.332 43.41 706.042 42.9833 705.842 42.43C705.642 41.8767 705.542 41.22 705.542 40.46C705.542 39.6933 705.642 39.0333 705.842 38.48C706.042 37.9267 706.332 37.5 706.712 37.2C707.092 36.8933 707.542 36.74 708.062 36.74C708.589 36.74 709.039 36.8933 709.412 37.2C709.792 37.5 710.082 37.9267 710.282 38.48C710.482 39.0333 710.582 39.6933 710.582 40.46C710.582 41.22 710.482 41.8767 710.282 42.43C710.082 42.9833 709.792 43.41 709.412 43.71C709.039 44.01 708.589 44.16 708.062 44.16ZM708.062 43.18C708.362 43.18 708.616 43.0733 708.822 42.86C709.036 42.64 709.199 42.3267 709.312 41.92C709.432 41.5133 709.492 41.0267 709.492 40.46C709.492 39.88 709.432 39.3867 709.312 38.98C709.199 38.5733 709.036 38.2633 708.822 38.05C708.616 37.83 708.362 37.72 708.062 37.72C707.769 37.72 707.516 37.83 707.302 38.05C707.089 38.2633 706.922 38.5733 706.802 38.98C706.689 39.3867 706.632 39.88 706.632 40.46C706.632 41.0267 706.689 41.5133 706.802 41.92C706.922 42.3267 707.089 42.64 707.302 42.86C707.516 43.0733 707.769 43.18 708.062 43.18ZM713.179 44V42.68H714.539V44H713.179ZM717.895 42.94L720.615 37.91L721.415 37.96L718.695 42.99L717.895 42.94ZM719.655 44.16C719.135 44.16 718.685 44.01 718.305 43.71C717.925 43.41 717.635 42.9833 717.435 42.43C717.235 41.8767 717.135 41.22 717.135 40.46C717.135 39.6933 717.235 39.0333 717.435 38.48C717.635 37.9267 717.925 37.5 718.305 37.2C718.685 36.8933 719.135 36.74 719.655 36.74C720.181 36.74 720.631 36.8933 721.005 37.2C721.385 37.5 721.675 37.9267 721.875 38.48C722.075 39.0333 722.175 39.6933 722.175 40.46C722.175 41.22 722.075 41.8767 721.875 42.43C721.675 42.9833 721.385 43.41 721.005 43.71C720.631 44.01 720.181 44.16 719.655 44.16ZM719.655 43.18C719.955 43.18 720.208 43.0733 720.415 42.86C720.628 42.64 720.791 42.3267 720.905 41.92C721.025 41.5133 721.085 41.0267 721.085 40.46C721.085 39.88 721.025 39.3867 720.905 38.98C720.791 38.5733 720.628 38.2633 720.415 38.05C720.208 37.83 719.955 37.72 719.655 37.72C719.361 37.72 719.108 37.83 718.895 38.05C718.681 38.2633 718.515 38.5733 718.395 38.98C718.281 39.3867 718.225 39.88 718.225 40.46C718.225 41.0267 718.281 41.5133 718.395 41.92C718.515 42.3267 718.681 42.64 718.895 42.86C719.108 43.0733 719.361 43.18 719.655 43.18ZM723.691 42.94L726.411 37.91L727.211 37.96L724.491 42.99L723.691 42.94ZM725.451 44.16C724.931 44.16 724.481 44.01 724.101 43.71C723.721 43.41 723.431 42.9833 723.231 42.43C723.031 41.8767 722.931 41.22 722.931 40.46C722.931 39.6933 723.031 39.0333 723.231 38.48C723.431 37.9267 723.721 37.5 724.101 37.2C724.481 36.8933 724.931 36.74 725.451 36.74C725.977 36.74 726.427 36.8933 726.801 37.2C727.181 37.5 727.471 37.9267 727.671 38.48C727.871 39.0333 727.971 39.6933 727.971 40.46C727.971 41.22 727.871 41.8767 727.671 42.43C727.471 42.9833 727.181 43.41 726.801 43.71C726.427 44.01 725.977 44.16 725.451 44.16ZM725.451 43.18C725.751 43.18 726.004 43.0733 726.211 42.86C726.424 42.64 726.587 42.3267 726.701 41.92C726.821 41.5133 726.881 41.0267 726.881 40.46C726.881 39.88 726.821 39.3867 726.701 38.98C726.587 38.5733 726.424 38.2633 726.211 38.05C726.004 37.83 725.751 37.72 725.451 37.72C725.157 37.72 724.904 37.83 724.691 38.05C724.477 38.2633 724.311 38.5733 724.191 38.98C724.077 39.3867 724.021 39.88 724.021 40.46C724.021 41.0267 724.077 41.5133 724.191 41.92C724.311 42.3267 724.477 42.64 724.691 42.86C724.904 43.0733 725.157 43.18 725.451 43.18ZM730.567 44V42.68H731.927V44H730.567ZM730.567 40.21V38.89H731.927V40.21H730.567ZM734.873 44V36.9H736.933C737.713 36.9 738.306 37.07 738.713 37.41C739.12 37.75 739.323 38.2233 739.323 38.83C739.323 39.1233 739.256 39.3867 739.123 39.62C738.99 39.8467 738.793 40.03 738.533 40.17C738.28 40.3033 737.976 40.3733 737.623 40.38V40.32C738.056 40.32 738.42 40.3933 738.713 40.54C739.013 40.68 739.24 40.88 739.393 41.14C739.546 41.3933 739.623 41.69 739.623 42.03C739.623 42.6567 739.406 43.1433 738.973 43.49C738.546 43.83 737.946 44 737.173 44H734.873ZM735.923 43.02H737.183C737.643 43.02 737.983 42.93 738.203 42.75C738.423 42.5633 738.533 42.3067 738.533 41.98C738.533 41.6333 738.416 41.3633 738.183 41.17C737.956 40.9767 737.623 40.88 737.183 40.88H735.923V43.02ZM735.923 39.91H736.953C737.393 39.91 737.716 39.8233 737.923 39.65C738.13 39.47 738.233 39.22 738.233 38.9C738.233 38.5733 738.13 38.3233 737.923 38.15C737.716 37.97 737.393 37.88 736.953 37.88H735.923V39.91ZM740.509 44V36.9H742.719C743.472 36.9 744.062 37.09 744.489 37.47C744.922 37.85 745.139 38.3667 745.139 39.02C745.139 39.36 745.062 39.66 744.909 39.92C744.762 40.18 744.566 40.3833 744.319 40.53C744.079 40.6767 743.822 40.76 743.549 40.78L743.509 40.66C744.002 40.68 744.369 40.7933 744.609 41C744.856 41.2 744.999 41.5267 745.039 41.98L745.219 44H744.169L744.009 42.18C743.989 41.9467 743.939 41.76 743.859 41.62C743.779 41.48 743.656 41.38 743.489 41.32C743.322 41.26 743.092 41.23 742.799 41.23H741.559V44H740.509ZM741.559 40.25H742.699C743.139 40.25 743.476 40.1467 743.709 39.94C743.942 39.7333 744.059 39.4433 744.059 39.07C744.059 38.69 743.942 38.4 743.709 38.2C743.476 37.9933 743.139 37.89 742.699 37.89H741.559V40.25ZM748.635 44.16C748.068 44.16 747.588 44.0167 747.195 43.73C746.808 43.4433 746.512 43.0233 746.305 42.47C746.098 41.9167 745.995 41.2467 745.995 40.46C745.995 39.66 746.098 38.9833 746.305 38.43C746.512 37.8767 746.808 37.4567 747.195 37.17C747.588 36.8833 748.068 36.74 748.635 36.74C749.202 36.74 749.682 36.8833 750.075 37.17C750.468 37.4567 750.765 37.8767 750.965 38.43C751.172 38.9833 751.275 39.66 751.275 40.46C751.275 41.2467 751.172 41.9167 750.965 42.47C750.765 43.0233 750.468 43.4433 750.075 43.73C749.682 44.0167 749.202 44.16 748.635 44.16ZM748.635 43.18C748.968 43.18 749.248 43.08 749.475 42.88C749.708 42.68 749.885 42.3767 750.005 41.97C750.125 41.5633 750.185 41.06 750.185 40.46C750.185 39.86 750.125 39.3567 750.005 38.95C749.885 38.5367 749.708 38.23 749.475 38.03C749.248 37.8233 748.968 37.72 748.635 37.72C748.302 37.72 748.018 37.8233 747.785 38.03C747.558 38.23 747.385 38.5367 747.265 38.95C747.145 39.3567 747.085 39.86 747.085 40.46C747.085 41.06 747.145 41.5633 747.265 41.97C747.385 42.3767 747.558 42.68 747.785 42.88C748.018 43.08 748.302 43.18 748.635 43.18ZM752.471 44L751.711 36.9H752.761L753.351 43.14H753.231L753.971 37.7H754.891L755.631 43.14H755.511L756.101 36.9H757.151L756.391 44H755.021L754.311 38.8H754.551L753.841 44H752.471ZM760.317 44.16C759.804 44.16 759.354 44.0567 758.967 43.85C758.587 43.6433 758.284 43.3567 758.057 42.99C757.831 42.6167 757.697 42.1833 757.657 41.69L758.737 41.62C758.784 41.96 758.877 42.2467 759.017 42.48C759.157 42.7133 759.341 42.89 759.567 43.01C759.794 43.1233 760.057 43.18 760.357 43.18C760.651 43.18 760.897 43.1433 761.097 43.07C761.297 42.99 761.451 42.8767 761.557 42.73C761.664 42.5833 761.717 42.4067 761.717 42.2C761.717 41.9867 761.667 41.8 761.567 41.64C761.467 41.48 761.287 41.3333 761.027 41.2C760.767 41.0667 760.387 40.93 759.887 40.79C759.401 40.6567 759.004 40.5067 758.697 40.34C758.391 40.1733 758.167 39.9667 758.027 39.72C757.887 39.4733 757.817 39.1667 757.817 38.8C757.817 38.3933 757.911 38.0367 758.097 37.73C758.291 37.4167 758.564 37.1733 758.917 37C759.277 36.8267 759.707 36.74 760.207 36.74C760.701 36.74 761.121 36.8367 761.467 37.03C761.821 37.2233 762.097 37.4933 762.297 37.84C762.504 38.18 762.631 38.58 762.677 39.04L761.597 39.1C761.564 38.8267 761.487 38.5867 761.367 38.38C761.254 38.1733 761.097 38.0133 760.897 37.9C760.697 37.78 760.457 37.72 760.177 37.72C759.784 37.72 759.471 37.8167 759.237 38.01C759.011 38.1967 758.897 38.4433 758.897 38.75C758.897 38.9567 758.944 39.1267 759.037 39.26C759.131 39.3933 759.294 39.5133 759.527 39.62C759.761 39.7267 760.087 39.8367 760.507 39.95C761.074 40.1033 761.524 40.28 761.857 40.48C762.191 40.68 762.431 40.92 762.577 41.2C762.724 41.48 762.797 41.8133 762.797 42.2C762.797 42.5867 762.694 42.93 762.487 43.23C762.281 43.5233 761.991 43.7533 761.617 43.92C761.251 44.08 760.817 44.16 760.317 44.16ZM763.903 44V36.9H768.263V37.89H764.953V39.96H768.143V40.92H764.953V43.01H768.343V44H763.903ZM769.49 44V36.9H771.7C772.453 36.9 773.043 37.09 773.47 37.47C773.903 37.85 774.12 38.3667 774.12 39.02C774.12 39.36 774.043 39.66 773.89 39.92C773.743 40.18 773.546 40.3833 773.3 40.53C773.06 40.6767 772.803 40.76 772.53 40.78L772.49 40.66C772.983 40.68 773.35 40.7933 773.59 41C773.836 41.2 773.98 41.5267 774.02 41.98L774.2 44H773.15L772.99 42.18C772.97 41.9467 772.92 41.76 772.84 41.62C772.76 41.48 772.636 41.38 772.47 41.32C772.303 41.26 772.073 41.23 771.78 41.23H770.54V44H769.49ZM770.54 40.25H771.68C772.12 40.25 772.456 40.1467 772.69 39.94C772.923 39.7333 773.04 39.4433 773.04 39.07C773.04 38.69 772.923 38.4 772.69 38.2C772.456 37.9933 772.12 37.89 771.68 37.89H770.54V40.25ZM775.376 44.92V44H779.856V44.92H775.376ZM783.412 44.16C782.652 44.16 782.058 43.9267 781.632 43.46C781.205 42.9933 780.992 42.35 780.992 41.53V36.9H782.042V41.57C782.042 42.09 782.158 42.49 782.392 42.77C782.625 43.0433 782.965 43.18 783.412 43.18C783.858 43.18 784.198 43.0433 784.432 42.77C784.665 42.49 784.782 42.09 784.782 41.57V36.9H785.832V41.53C785.832 42.35 785.618 42.9933 785.192 43.46C784.765 43.9267 784.172 44.16 783.412 44.16ZM789.298 44.16C788.784 44.16 788.334 44.0567 787.948 43.85C787.568 43.6433 787.264 43.3567 787.038 42.99C786.811 42.6167 786.678 42.1833 786.638 41.69L787.718 41.62C787.764 41.96 787.858 42.2467 787.998 42.48C788.138 42.7133 788.321 42.89 788.548 43.01C788.774 43.1233 789.038 43.18 789.338 43.18C789.631 43.18 789.878 43.1433 790.078 43.07C790.278 42.99 790.431 42.8767 790.538 42.73C790.644 42.5833 790.698 42.4067 790.698 42.2C790.698 41.9867 790.648 41.8 790.548 41.64C790.448 41.48 790.268 41.3333 790.008 41.2C789.748 41.0667 789.368 40.93 788.868 40.79C788.381 40.6567 787.984 40.5067 787.678 40.34C787.371 40.1733 787.148 39.9667 787.008 39.72C786.868 39.4733 786.798 39.1667 786.798 38.8C786.798 38.3933 786.891 38.0367 787.078 37.73C787.271 37.4167 787.544 37.1733 787.898 37C788.258 36.8267 788.688 36.74 789.188 36.74C789.681 36.74 790.101 36.8367 790.448 37.03C790.801 37.2233 791.078 37.4933 791.278 37.84C791.484 38.18 791.611 38.58 791.658 39.04L790.578 39.1C790.544 38.8267 790.468 38.5867 790.348 38.38C790.234 38.1733 790.078 38.0133 789.878 37.9C789.678 37.78 789.438 37.72 789.158 37.72C788.764 37.72 788.451 37.8167 788.218 38.01C787.991 38.1967 787.878 38.4433 787.878 38.75C787.878 38.9567 787.924 39.1267 788.018 39.26C788.111 39.3933 788.274 39.5133 788.508 39.62C788.741 39.7267 789.068 39.8367 789.488 39.95C790.054 40.1033 790.504 40.28 790.838 40.48C791.171 40.68 791.411 40.92 791.558 41.2C791.704 41.48 791.778 41.8133 791.778 42.2C791.778 42.5867 791.674 42.93 791.468 43.23C791.261 43.5233 790.971 43.7533 790.598 43.92C790.231 44.08 789.798 44.16 789.298 44.16ZM792.884 44V36.9H797.244V37.89H793.934V39.96H797.124V40.92H793.934V43.01H797.324V44H792.884Z" fill="#52525B"/>
<path d="M323.535 200.32H320.391V190H323.535V191.032H321.615V199.288H323.535V200.32ZM507.469 200.32V199.288H509.389V191.032H507.469V190H510.613V200.32H507.469Z" fill="#52525B"/>
<path d="M333.558 199V190.48H336.21C337.114 190.48 337.822 190.708 338.334 191.164C338.854 191.62 339.114 192.24 339.114 193.024C339.114 193.432 339.022 193.792 338.838 194.104C338.662 194.416 338.426 194.66 338.13 194.836C337.842 195.012 337.534 195.112 337.206 195.136L337.158 194.992C337.75 195.016 338.19 195.152 338.478 195.4C338.774 195.64 338.946 196.032 338.994 196.576L339.21 199H337.95L337.758 196.816C337.734 196.536 337.674 196.312 337.578 196.144C337.482 195.976 337.334 195.856 337.134 195.784C336.934 195.712 336.658 195.676 336.306 195.676H334.818V199H333.558ZM334.818 194.5H336.186C336.714 194.5 337.118 194.376 337.398 194.128C337.678 193.88 337.818 193.532 337.818 193.084C337.818 192.628 337.678 192.28 337.398 192.04C337.118 191.792 336.714 191.668 336.186 191.668H334.818V194.5ZM341.005 199V190.48H346.237V191.668H342.265V194.152H346.093V195.304H342.265V197.812H346.333V199H341.005ZM348.177 199V190.48H350.817C351.409 190.48 351.925 190.588 352.365 190.804C352.813 191.02 353.157 191.328 353.397 191.728C353.645 192.12 353.769 192.588 353.769 193.132C353.769 193.676 353.645 194.148 353.397 194.548C353.157 194.94 352.813 195.244 352.365 195.46C351.925 195.668 351.409 195.772 350.817 195.772H349.437V199H348.177ZM349.437 194.584H350.685C351.293 194.584 351.741 194.46 352.029 194.212C352.317 193.964 352.461 193.604 352.461 193.132C352.461 192.652 352.317 192.288 352.029 192.04C351.741 191.792 351.293 191.668 350.685 191.668H349.437V194.584ZM355.396 199V190.48H360.628V191.668H356.656V194.152H360.484V195.304H356.656V197.812H360.724V199H355.396ZM364.511 199V191.668H362.015V190.48H368.255V191.668H365.759V199H364.511ZM369.666 199V197.812H371.706V191.668H369.666V190.48H374.994V191.668H372.954V197.812H374.994V199H369.666ZM378.902 199V191.668H376.406V190.48H382.646V191.668H380.15V199H378.902ZM384.057 199V197.812H386.097V191.668H384.057V190.48H389.385V191.668H387.345V197.812H389.385V199H384.057ZM393.172 199L390.64 190.48H391.972L394.108 197.98H393.724L395.86 190.48H397.192L394.66 199H393.172ZM398.568 199V190.48H403.8V191.668H399.828V194.152H403.656V195.304H399.828V197.812H403.896V199H398.568ZM413.15 199L412.238 190.48H413.498L414.206 197.968H414.062L414.95 191.44H416.054L416.942 197.968H416.798L417.506 190.48H418.766L417.854 199H416.21L415.358 192.76H415.646L414.794 199H413.15ZM422.698 199.192C422.018 199.192 421.442 199.02 420.97 198.676C420.506 198.332 420.15 197.828 419.902 197.164C419.654 196.5 419.53 195.696 419.53 194.752C419.53 193.792 419.654 192.98 419.902 192.316C420.15 191.652 420.506 191.148 420.97 190.804C421.442 190.46 422.018 190.288 422.698 190.288C423.378 190.288 423.954 190.46 424.426 190.804C424.898 191.148 425.254 191.652 425.494 192.316C425.742 192.98 425.866 193.792 425.866 194.752C425.866 195.696 425.742 196.5 425.494 197.164C425.254 197.828 424.898 198.332 424.426 198.676C423.954 199.02 423.378 199.192 422.698 199.192ZM422.698 198.016C423.098 198.016 423.434 197.896 423.706 197.656C423.986 197.416 424.198 197.052 424.342 196.564C424.486 196.076 424.558 195.472 424.558 194.752C424.558 194.032 424.486 193.428 424.342 192.94C424.198 192.444 423.986 192.076 423.706 191.836C423.434 191.588 423.098 191.464 422.698 191.464C422.298 191.464 421.958 191.588 421.678 191.836C421.406 192.076 421.198 192.444 421.054 192.94C420.91 193.428 420.838 194.032 420.838 194.752C420.838 195.472 420.91 196.076 421.054 196.564C421.198 197.052 421.406 197.416 421.678 197.656C421.958 197.896 422.298 198.016 422.698 198.016ZM427.097 199V190.48H429.749C430.653 190.48 431.361 190.708 431.873 191.164C432.393 191.62 432.653 192.24 432.653 193.024C432.653 193.432 432.561 193.792 432.377 194.104C432.201 194.416 431.965 194.66 431.669 194.836C431.381 195.012 431.073 195.112 430.745 195.136L430.697 194.992C431.289 195.016 431.729 195.152 432.017 195.4C432.313 195.64 432.485 196.032 432.533 196.576L432.749 199H431.489L431.297 196.816C431.273 196.536 431.213 196.312 431.117 196.144C431.021 195.976 430.873 195.856 430.673 195.784C430.473 195.712 430.197 195.676 429.845 195.676H428.357V199H427.097ZM428.357 194.5H429.725C430.253 194.5 430.657 194.376 430.937 194.128C431.217 193.88 431.357 193.532 431.357 193.084C431.357 192.628 431.217 192.28 430.937 192.04C430.657 191.792 430.253 191.668 429.725 191.668H428.357V194.5ZM435.3 196.432V194.644L438.612 190.48H440.136L435.3 196.432ZM434.16 199V190.48H435.42V199H434.16ZM438.756 199L436.044 194.8L436.908 193.936L440.232 199H438.756ZM448.815 199V197.812H450.855V191.668H448.815V190.48H454.143V191.668H452.103V197.812H454.143V199H448.815ZM458.782 199.192C458.166 199.192 457.626 199.068 457.162 198.82C456.706 198.572 456.342 198.228 456.07 197.788C455.798 197.34 455.638 196.82 455.59 196.228L456.886 196.144C456.942 196.552 457.054 196.896 457.222 197.176C457.39 197.456 457.61 197.668 457.882 197.812C458.154 197.948 458.47 198.016 458.83 198.016C459.182 198.016 459.478 197.972 459.718 197.884C459.958 197.788 460.142 197.652 460.27 197.476C460.398 197.3 460.462 197.088 460.462 196.84C460.462 196.584 460.402 196.36 460.282 196.168C460.162 195.976 459.946 195.8 459.634 195.64C459.322 195.48 458.866 195.316 458.266 195.148C457.682 194.988 457.206 194.808 456.838 194.608C456.47 194.408 456.202 194.16 456.034 193.864C455.866 193.568 455.782 193.2 455.782 192.76C455.782 192.272 455.894 191.844 456.118 191.476C456.35 191.1 456.678 190.808 457.102 190.6C457.534 190.392 458.05 190.288 458.65 190.288C459.242 190.288 459.746 190.404 460.162 190.636C460.586 190.868 460.918 191.192 461.158 191.608C461.406 192.016 461.558 192.496 461.614 193.048L460.318 193.12C460.278 192.792 460.186 192.504 460.042 192.256C459.906 192.008 459.718 191.816 459.478 191.68C459.238 191.536 458.95 191.464 458.614 191.464C458.142 191.464 457.766 191.58 457.486 191.812C457.214 192.036 457.078 192.332 457.078 192.7C457.078 192.948 457.134 193.152 457.246 193.312C457.358 193.472 457.554 193.616 457.834 193.744C458.114 193.872 458.506 194.004 459.01 194.14C459.69 194.324 460.23 194.536 460.63 194.776C461.03 195.016 461.318 195.304 461.494 195.64C461.67 195.976 461.758 196.376 461.758 196.84C461.758 197.304 461.634 197.716 461.386 198.076C461.138 198.428 460.79 198.704 460.342 198.904C459.902 199.096 459.382 199.192 458.782 199.192ZM470.461 199V190.48H472.537C473.289 190.48 473.941 190.648 474.493 190.984C475.053 191.312 475.481 191.796 475.777 192.436C476.081 193.068 476.233 193.84 476.233 194.752C476.233 195.664 476.081 196.436 475.777 197.068C475.481 197.7 475.053 198.18 474.493 198.508C473.941 198.836 473.289 199 472.537 199H470.461ZM471.721 197.812H472.501C473.277 197.812 473.873 197.56 474.289 197.056C474.713 196.544 474.925 195.776 474.925 194.752C474.925 193.728 474.713 192.96 474.289 192.448C473.873 191.928 473.277 191.668 472.501 191.668H471.721V197.812ZM477.716 199V190.48H482.948V191.668H478.976V194.152H482.804V195.304H478.976V197.812H483.044V199H477.716ZM484.143 199L486.639 190.48H488.271L490.767 199H489.459L487.455 191.788L485.451 199H484.143ZM485.535 196.78L485.919 195.616H488.991L489.375 196.78H485.535ZM492.047 199V190.48H494.123C494.875 190.48 495.527 190.648 496.079 190.984C496.639 191.312 497.067 191.796 497.363 192.436C497.667 193.068 497.819 193.84 497.819 194.752C497.819 195.664 497.667 196.436 497.363 197.068C497.067 197.7 496.639 198.18 496.079 198.508C495.527 198.836 494.875 199 494.123 199H492.047ZM493.307 197.812H494.087C494.863 197.812 495.459 197.56 495.875 197.056C496.299 196.544 496.511 195.776 496.511 194.752C496.511 193.728 496.299 192.96 495.875 192.448C495.459 191.928 494.863 191.668 494.087 191.668H493.307V197.812Z" fill="white"/>
</svg>
